<svg width="142" height="31" viewBox="0 0 142 31" fill="none" xmlns="http://www.w3.org/2000/svg">
<path d="M0.522727 30V0.90909H10.6932C12.7197 0.90909 14.3911 1.25947 15.7074 1.96023C17.0237 2.65151 18.0038 3.58428 18.6477 4.75852C19.2917 5.92329 19.6136 7.21591 19.6136 8.63636C19.6136 9.88636 19.3911 10.9186 18.946 11.733C18.5104 12.5473 17.9328 13.1913 17.2131 13.6648C16.5028 14.1383 15.7311 14.4886 14.8977 14.7159V15C15.7879 15.0568 16.6828 15.3693 17.5824 15.9375C18.482 16.5057 19.2348 17.3201 19.8409 18.3807C20.447 19.4413 20.75 20.7386 20.75 22.2727C20.75 23.7311 20.4186 25.0426 19.7557 26.2074C19.0928 27.3722 18.0464 28.2955 16.6165 28.9773C15.1866 29.6591 13.3258 30 11.0341 30H0.522727ZM4.04545 26.875H11.0341C13.3352 26.875 14.9688 26.4299 15.9347 25.5398C16.91 24.6402 17.3977 23.5511 17.3977 22.2727C17.3977 21.2879 17.1468 20.3788 16.6449 19.5455C16.143 18.7027 15.428 18.0303 14.5 17.5284C13.572 17.017 12.4735 16.7614 11.2045 16.7614H4.04545V26.875ZM4.04545 13.6932H10.5795C11.6402 13.6932 12.5966 13.4848 13.4489 13.0682C14.3106 12.6515 14.9924 12.0644 15.4943 11.3068C16.0057 10.5492 16.2614 9.65909 16.2614 8.63636C16.2614 7.35795 15.8163 6.27367 14.9261 5.38352C14.036 4.4839 12.625 4.03409 10.6932 4.03409H4.04545V13.6932ZM39.8338 21.0795V8.18182H43.1861V30H39.8338V26.3068H39.6065C39.0952 27.4148 38.2997 28.357 37.2202 29.1335C36.1406 29.9006 34.777 30.2841 33.1293 30.2841C31.7656 30.2841 30.5535 29.9858 29.4929 29.3892C28.4323 28.7831 27.599 27.8741 26.9929 26.6619C26.3868 25.4403 26.0838 23.9015 26.0838 22.0455V8.18182H29.4361V21.8182C29.4361 23.4091 29.8812 24.678 30.7713 25.625C31.6709 26.572 32.8168 27.0455 34.2088 27.0455C35.0421 27.0455 35.8897 26.8324 36.7514 26.4062C37.6226 25.9801 38.3518 25.3267 38.9389 24.446C39.5355 23.5653 39.8338 22.4432 39.8338 21.0795ZM58.8146 8.18182V11.0227H47.5078V8.18182H58.8146ZM50.8033 2.95455H54.1555V23.75C54.1555 24.697 54.2929 25.4072 54.5675 25.8807C54.8516 26.3447 55.2114 26.6572 55.647 26.8182C56.0921 26.9697 56.5608 27.0455 57.0533 27.0455C57.4226 27.0455 57.7256 27.0265 57.9624 26.9886C58.1991 26.9413 58.3885 26.9034 58.5305 26.875L59.2124 29.8864C58.9851 29.9716 58.6679 30.0568 58.2607 30.142C57.8535 30.2367 57.3374 30.2841 56.7124 30.2841C55.7654 30.2841 54.8374 30.0805 53.9283 29.6733C53.0286 29.2661 52.2805 28.6458 51.6839 27.8125C51.0968 26.9792 50.8033 25.928 50.8033 24.6591V2.95455ZM73.3459 8.18182V11.0227H62.0391V8.18182H73.3459ZM65.3345 2.95455H68.6868V23.75C68.6868 24.697 68.8241 25.4072 69.0987 25.8807C69.3828 26.3447 69.7427 26.6572 70.1783 26.8182C70.6233 26.9697 71.0921 27.0455 71.5845 27.0455C71.9538 27.0455 72.2569 27.0265 72.4936 26.9886C72.7304 26.9413 72.9197 26.9034 73.0618 26.875L73.7436 29.8864C73.5163 29.9716 73.1991 30.0568 72.7919 30.142C72.3847 30.2367 71.8686 30.2841 71.2436 30.2841C70.2966 30.2841 69.3686 30.0805 68.4595 29.6733C67.5599 29.2661 66.8118 28.6458 66.2152 27.8125C65.6281 26.9792 65.3345 25.928 65.3345 24.6591V2.95455ZM87.0178 30.4545C85.0481 30.4545 83.3198 29.9858 81.8331 29.0483C80.3558 28.1108 79.2005 26.7992 78.3672 25.1136C77.5433 23.428 77.1314 21.4583 77.1314 19.2045C77.1314 16.9318 77.5433 14.9479 78.3672 13.2528C79.2005 11.5578 80.3558 10.2415 81.8331 9.30398C83.3198 8.36648 85.0481 7.89773 87.0178 7.89773C88.9875 7.89773 90.7109 8.36648 92.1882 9.30398C93.675 10.2415 94.8303 11.5578 95.6541 13.2528C96.4875 14.9479 96.9041 16.9318 96.9041 19.2045C96.9041 21.4583 96.4875 23.428 95.6541 25.1136C94.8303 26.7992 93.675 28.1108 92.1882 29.0483C90.7109 29.9858 88.9875 30.4545 87.0178 30.4545ZM87.0178 27.4432C88.514 27.4432 89.745 27.0597 90.7109 26.2926C91.6768 25.5256 92.3918 24.517 92.8558 23.267C93.3198 22.017 93.5518 20.6629 93.5518 19.2045C93.5518 17.7462 93.3198 16.3873 92.8558 15.1278C92.3918 13.8684 91.6768 12.8504 90.7109 12.0739C89.745 11.2973 88.514 10.9091 87.0178 10.9091C85.5215 10.9091 84.2905 11.2973 83.3246 12.0739C82.3587 12.8504 81.6437 13.8684 81.1797 15.1278C80.7157 16.3873 80.4837 17.7462 80.4837 19.2045C80.4837 20.6629 80.7157 22.017 81.1797 23.267C81.6437 24.517 82.3587 25.5256 83.3246 26.2926C84.2905 27.0597 85.5215 27.4432 87.0178 27.4432ZM105.374 16.875V30H102.021V8.18182H105.26V11.5909H105.544C106.055 10.483 106.832 9.5928 107.874 8.92045C108.915 8.23864 110.26 7.89773 111.908 7.89773C113.385 7.89773 114.678 8.20076 115.786 8.80682C116.893 9.40341 117.755 10.3125 118.371 11.5341C118.986 12.7462 119.294 14.2803 119.294 16.1364V30H115.942V16.3636C115.942 14.6496 115.497 13.3144 114.607 12.358C113.716 11.392 112.495 10.9091 110.942 10.9091C109.872 10.9091 108.915 11.1411 108.072 11.6051C107.239 12.0691 106.581 12.7462 106.098 13.6364C105.615 14.5265 105.374 15.6061 105.374 16.875ZM140.874 13.0682L137.863 13.9205C137.674 13.4186 137.394 12.9309 137.025 12.4574C136.665 11.9744 136.173 11.5767 135.548 11.2642C134.923 10.9517 134.122 10.7955 133.147 10.7955C131.812 10.7955 130.699 11.1032 129.809 11.7188C128.928 12.3248 128.488 13.0966 128.488 14.0341C128.488 14.8674 128.791 15.5256 129.397 16.0085C130.003 16.4915 130.95 16.8939 132.238 17.2159L135.477 18.0114C137.427 18.4848 138.881 19.2093 139.837 20.1847C140.794 21.1506 141.272 22.3958 141.272 23.9205C141.272 25.1705 140.912 26.2879 140.192 27.2727C139.482 28.2576 138.488 29.0341 137.21 29.6023C135.931 30.1705 134.444 30.4545 132.749 30.4545C130.524 30.4545 128.682 29.9716 127.224 29.0057C125.765 28.0398 124.842 26.6288 124.454 24.7727L127.636 23.9773C127.939 25.1515 128.512 26.0322 129.354 26.6193C130.207 27.2064 131.319 27.5 132.692 27.5C134.255 27.5 135.496 27.1686 136.414 26.5057C137.342 25.8333 137.806 25.0284 137.806 24.0909C137.806 23.3333 137.541 22.6989 137.011 22.1875C136.48 21.6667 135.666 21.2784 134.567 21.0227L130.931 20.1705C128.933 19.697 127.465 18.9631 126.528 17.9688C125.6 16.965 125.136 15.7102 125.136 14.2045C125.136 12.9735 125.481 11.8845 126.173 10.9375C126.873 9.99053 127.825 9.24716 129.028 8.70739C130.24 8.16761 131.613 7.89773 133.147 7.89773C135.306 7.89773 137.001 8.37121 138.232 9.31818C139.473 10.2652 140.353 11.5152 140.874 13.0682Z" fill="black"/>
</svg>
