<svg width="136" height="35" viewBox="0 0 136 35" fill="none" xmlns="http://www.w3.org/2000/svg">
<rect width="136" height="35" rx="17.5" fill="#032557"/>
<path d="M21.4 25V14.2H23.26V16.82L23 16.48C23.1333 16.1333 23.3067 15.8167 23.52 15.53C23.7333 15.2367 23.98 14.9967 24.26 14.81C24.5333 14.61 24.8367 14.4567 25.17 14.35C25.51 14.2367 25.8567 14.17 26.21 14.15C26.5633 14.1233 26.9033 14.14 27.23 14.2V16.16C26.8767 16.0667 26.4833 16.04 26.05 16.08C25.6233 16.12 25.23 16.2567 24.87 16.49C24.53 16.71 24.26 16.9767 24.06 17.29C23.8667 17.6033 23.7267 17.9533 23.64 18.34C23.5533 18.72 23.51 19.1233 23.51 19.55V25H21.4ZM33.7291 25.3C32.6557 25.3 31.7124 25.0667 30.8991 24.6C30.0924 24.1267 29.4624 23.47 29.0091 22.63C28.5624 21.7833 28.3391 20.8033 28.3391 19.69C28.3391 18.51 28.5591 17.4867 28.9991 16.62C29.4457 15.7533 30.0657 15.0833 30.8591 14.61C31.6524 14.1367 32.5757 13.9 33.6291 13.9C34.7291 13.9 35.6657 14.1567 36.4391 14.67C37.2124 15.1767 37.7891 15.9 38.1691 16.84C38.5557 17.78 38.7091 18.8967 38.6291 20.19H36.5391V19.43C36.5257 18.1767 36.2857 17.25 35.8191 16.65C35.3591 16.05 34.6557 15.75 33.7091 15.75C32.6624 15.75 31.8757 16.08 31.3491 16.74C30.8224 17.4 30.5591 18.3533 30.5591 19.6C30.5591 20.7867 30.8224 21.7067 31.3491 22.36C31.8757 23.0067 32.6357 23.33 33.6291 23.33C34.2824 23.33 34.8457 23.1833 35.3191 22.89C35.7991 22.59 36.1724 22.1633 36.4391 21.61L38.4891 22.26C38.0691 23.2267 37.4324 23.9767 36.5791 24.51C35.7257 25.0367 34.7757 25.3 33.7291 25.3ZM29.8791 20.19V18.56H37.5891V20.19H29.8791ZM43.7273 25.3C42.9273 25.3 42.2573 25.1533 41.7173 24.86C41.1773 24.56 40.7673 24.1667 40.4873 23.68C40.214 23.1867 40.0773 22.6467 40.0773 22.06C40.0773 21.5133 40.174 21.0333 40.3673 20.62C40.5607 20.2067 40.8473 19.8567 41.2273 19.57C41.6073 19.2767 42.074 19.04 42.6273 18.86C43.1073 18.72 43.6507 18.5967 44.2573 18.49C44.864 18.3833 45.5007 18.2833 46.1673 18.19C46.8407 18.0967 47.5073 18.0033 48.1673 17.91L47.4073 18.33C47.4207 17.4833 47.2407 16.8567 46.8673 16.45C46.5007 16.0367 45.8673 15.83 44.9673 15.83C44.4007 15.83 43.8807 15.9633 43.4073 16.23C42.934 16.49 42.604 16.9233 42.4173 17.53L40.4673 16.93C40.734 16.0033 41.2407 15.2667 41.9873 14.72C42.7407 14.1733 43.7407 13.9 44.9873 13.9C45.954 13.9 46.794 14.0667 47.5073 14.4C48.2273 14.7267 48.754 15.2467 49.0873 15.96C49.2607 16.3133 49.3673 16.6867 49.4073 17.08C49.4473 17.4733 49.4673 17.8967 49.4673 18.35V25H47.6173V22.53L47.9773 22.85C47.5307 23.6767 46.9607 24.2933 46.2673 24.7C45.5807 25.1 44.734 25.3 43.7273 25.3ZM44.0973 23.59C44.6907 23.59 45.2007 23.4867 45.6273 23.28C46.054 23.0667 46.3973 22.7967 46.6573 22.47C46.9173 22.1433 47.0873 21.8033 47.1673 21.45C47.2807 21.13 47.344 20.77 47.3573 20.37C47.3773 19.97 47.3873 19.65 47.3873 19.41L48.0673 19.66C47.4073 19.76 46.8073 19.85 46.2673 19.93C45.7273 20.01 45.2373 20.09 44.7973 20.17C44.364 20.2433 43.9773 20.3333 43.6373 20.44C43.3507 20.54 43.094 20.66 42.8673 20.8C42.6473 20.94 42.4707 21.11 42.3373 21.31C42.2107 21.51 42.1473 21.7533 42.1473 22.04C42.1473 22.32 42.2173 22.58 42.3573 22.82C42.4973 23.0533 42.7107 23.24 42.9973 23.38C43.284 23.52 43.6507 23.59 44.0973 23.59ZM56.3541 25.3C55.3474 25.3 54.4774 25.05 53.7441 24.55C53.0174 24.05 52.4541 23.37 52.0541 22.51C51.6607 21.6433 51.4641 20.67 51.4641 19.59C51.4641 18.5033 51.6641 17.5333 52.0641 16.68C52.4641 15.82 53.0307 15.1433 53.7641 14.65C54.5041 14.15 55.3807 13.9 56.3941 13.9C57.4141 13.9 58.2707 14.15 58.9641 14.65C59.6641 15.1433 60.1907 15.82 60.5441 16.68C60.9041 17.54 61.0841 18.51 61.0841 19.59C61.0841 20.67 60.9041 21.64 60.5441 22.5C60.1841 23.36 59.6541 24.0433 58.9541 24.55C58.2541 25.05 57.3874 25.3 56.3541 25.3ZM56.6441 23.41C57.3307 23.41 57.8907 23.2467 58.3241 22.92C58.7574 22.5933 59.0741 22.1433 59.2741 21.57C59.4741 20.9967 59.5741 20.3367 59.5741 19.59C59.5741 18.8433 59.4707 18.1833 59.2641 17.61C59.0641 17.0367 58.7507 16.59 58.3241 16.27C57.9041 15.95 57.3674 15.79 56.7141 15.79C56.0207 15.79 55.4507 15.96 55.0041 16.3C54.5574 16.64 54.2241 17.0967 54.0041 17.67C53.7907 18.2433 53.6841 18.8833 53.6841 19.59C53.6841 20.3033 53.7907 20.95 54.0041 21.53C54.2241 22.1033 54.5507 22.56 54.9841 22.9C55.4241 23.24 55.9774 23.41 56.6441 23.41ZM59.5741 25V17.23H59.3341V10.6H61.4341V25H59.5741ZM81.1759 25L81.1859 18.27C81.1859 17.49 80.9859 16.8833 80.5859 16.45C80.1859 16.01 79.6593 15.79 79.0059 15.79C78.6059 15.79 78.2393 15.8833 77.9059 16.07C77.5793 16.25 77.3126 16.5233 77.1059 16.89C76.9059 17.25 76.8059 17.7033 76.8059 18.25L75.7959 17.74C75.7826 16.98 75.9426 16.3133 76.2759 15.74C76.6159 15.1667 77.0759 14.7233 77.6559 14.41C78.2359 14.09 78.8859 13.93 79.6059 13.93C80.7726 13.93 81.6759 14.28 82.3159 14.98C82.9559 15.68 83.2759 16.61 83.2759 17.77L83.2659 25H81.1759ZM68.2259 25V14.2H70.0859V17.32H70.3259V25H68.2259ZM74.7059 25L74.7159 18.31C74.7159 17.5233 74.5159 16.9067 74.1159 16.46C73.7226 16.0133 73.1926 15.79 72.5259 15.79C71.8659 15.79 71.3326 16.0167 70.9259 16.47C70.5259 16.9233 70.3259 17.5167 70.3259 18.25L69.3259 17.61C69.3259 16.9033 69.4959 16.2733 69.8359 15.72C70.1759 15.1667 70.6359 14.73 71.2159 14.41C71.7959 14.09 72.4526 13.93 73.1859 13.93C73.9526 13.93 74.6059 14.0933 75.1459 14.42C75.6859 14.74 76.0959 15.19 76.3759 15.77C76.6626 16.35 76.8059 17.0233 76.8059 17.79L76.7959 25H74.7059ZM90.4259 25.3C89.3459 25.3 88.4093 25.0567 87.6159 24.57C86.8226 24.0833 86.2093 23.4133 85.7759 22.56C85.3493 21.7 85.1359 20.71 85.1359 19.59C85.1359 18.4633 85.3559 17.4733 85.7959 16.62C86.2359 15.76 86.8526 15.0933 87.6459 14.62C88.4393 14.14 89.3659 13.9 90.4259 13.9C91.5059 13.9 92.4426 14.1433 93.2359 14.63C94.0293 15.1167 94.6426 15.7867 95.0759 16.64C95.5093 17.4933 95.7259 18.4767 95.7259 19.59C95.7259 20.7167 95.5059 21.71 95.0659 22.57C94.6326 23.4233 94.0193 24.0933 93.2259 24.58C92.4326 25.06 91.4993 25.3 90.4259 25.3ZM90.4259 23.33C91.4593 23.33 92.2293 22.9833 92.7359 22.29C93.2493 21.59 93.5059 20.69 93.5059 19.59C93.5059 18.4633 93.2459 17.5633 92.7259 16.89C92.2126 16.21 91.4459 15.87 90.4259 15.87C89.7259 15.87 89.1493 16.03 88.6959 16.35C88.2426 16.6633 87.9059 17.1 87.6859 17.66C87.4659 18.2133 87.3559 18.8567 87.3559 19.59C87.3559 20.7233 87.6159 21.63 88.1359 22.31C88.6559 22.99 89.4193 23.33 90.4259 23.33ZM97.9234 25V14.2H99.7834V16.82L99.5234 16.48C99.6568 16.1333 99.8301 15.8167 100.043 15.53C100.257 15.2367 100.503 14.9967 100.783 14.81C101.057 14.61 101.36 14.4567 101.693 14.35C102.033 14.2367 102.38 14.17 102.733 14.15C103.087 14.1233 103.427 14.14 103.753 14.2V16.16C103.4 16.0667 103.007 16.04 102.573 16.08C102.147 16.12 101.753 16.2567 101.393 16.49C101.053 16.71 100.783 16.9767 100.583 17.29C100.39 17.6033 100.25 17.9533 100.163 18.34C100.077 18.72 100.033 19.1233 100.033 19.55V25H97.9234ZM110.253 25.3C109.179 25.3 108.236 25.0667 107.423 24.6C106.616 24.1267 105.986 23.47 105.532 22.63C105.086 21.7833 104.863 20.8033 104.863 19.69C104.863 18.51 105.083 17.4867 105.523 16.62C105.969 15.7533 106.589 15.0833 107.383 14.61C108.176 14.1367 109.099 13.9 110.153 13.9C111.253 13.9 112.189 14.1567 112.963 14.67C113.736 15.1767 114.313 15.9 114.693 16.84C115.079 17.78 115.233 18.8967 115.153 20.19H113.063V19.43C113.049 18.1767 112.809 17.25 112.343 16.65C111.883 16.05 111.179 15.75 110.233 15.75C109.186 15.75 108.399 16.08 107.873 16.74C107.346 17.4 107.083 18.3533 107.083 19.6C107.083 20.7867 107.346 21.7067 107.873 22.36C108.399 23.0067 109.159 23.33 110.153 23.33C110.806 23.33 111.369 23.1833 111.843 22.89C112.323 22.59 112.696 22.1633 112.963 21.61L115.013 22.26C114.593 23.2267 113.956 23.9767 113.103 24.51C112.249 25.0367 111.299 25.3 110.253 25.3ZM106.403 20.19V18.56H114.112V20.19H106.403Z" fill="white"/>
</svg>
