<svg width="128" height="35" viewBox="0 0 128 35" fill="none" xmlns="http://www.w3.org/2000/svg">
<rect width="128" height="35" rx="17.5" fill="#032557"/>
<path d="M25.53 25.29C24.2167 25.29 23.1467 25 22.32 24.42C21.4933 23.84 20.9867 23.0233 20.8 21.97L22.94 21.64C23.0733 22.2 23.38 22.6433 23.86 22.97C24.3467 23.29 24.95 23.45 25.67 23.45C26.3233 23.45 26.8333 23.3167 27.2 23.05C27.5733 22.7833 27.76 22.4167 27.76 21.95C27.76 21.6767 27.6933 21.4567 27.56 21.29C27.4333 21.1167 27.1633 20.9533 26.75 20.8C26.3367 20.6467 25.7067 20.4567 24.86 20.23C23.9333 19.99 23.1967 19.7333 22.65 19.46C22.11 19.18 21.7233 18.8567 21.49 18.49C21.2633 18.1167 21.15 17.6667 21.15 17.14C21.15 16.4867 21.3233 15.9167 21.67 15.43C22.0167 14.9433 22.5033 14.5667 23.13 14.3C23.7633 14.0333 24.5033 13.9 25.35 13.9C26.1767 13.9 26.9133 14.03 27.56 14.29C28.2067 14.55 28.73 14.92 29.13 15.4C29.53 15.8733 29.77 16.43 29.85 17.07L27.71 17.46C27.6367 16.94 27.3933 16.53 26.98 16.23C26.5667 15.93 26.03 15.7667 25.37 15.74C24.7367 15.7133 24.2233 15.82 23.83 16.06C23.4367 16.2933 23.24 16.6167 23.24 17.03C23.24 17.27 23.3133 17.4733 23.46 17.64C23.6133 17.8067 23.9067 17.9667 24.34 18.12C24.7733 18.2733 25.4133 18.4567 26.26 18.67C27.1667 18.9033 27.8867 19.1633 28.42 19.45C28.9533 19.73 29.3333 20.0667 29.56 20.46C29.7933 20.8467 29.91 21.3167 29.91 21.87C29.91 22.9367 29.52 23.7733 28.74 24.38C27.9667 24.9867 26.8967 25.29 25.53 25.29ZM36.9127 25.3C35.8393 25.3 34.896 25.0667 34.0827 24.6C33.276 24.1267 32.646 23.47 32.1927 22.63C31.746 21.7833 31.5227 20.8033 31.5227 19.69C31.5227 18.51 31.7427 17.4867 32.1827 16.62C32.6293 15.7533 33.2493 15.0833 34.0427 14.61C34.836 14.1367 35.7593 13.9 36.8127 13.9C37.9127 13.9 38.8493 14.1567 39.6227 14.67C40.396 15.1767 40.9727 15.9 41.3527 16.84C41.7393 17.78 41.8927 18.8967 41.8127 20.19H39.7227V19.43C39.7093 18.1767 39.4693 17.25 39.0027 16.65C38.5427 16.05 37.8393 15.75 36.8927 15.75C35.846 15.75 35.0593 16.08 34.5327 16.74C34.006 17.4 33.7427 18.3533 33.7427 19.6C33.7427 20.7867 34.006 21.7067 34.5327 22.36C35.0593 23.0067 35.8193 23.33 36.8127 23.33C37.466 23.33 38.0293 23.1833 38.5027 22.89C38.9827 22.59 39.356 22.1633 39.6227 21.61L41.6727 22.26C41.2527 23.2267 40.616 23.9767 39.7627 24.51C38.9093 25.0367 37.9593 25.3 36.9127 25.3ZM33.0627 20.19V18.56H40.7727V20.19H33.0627ZM48.8463 25.3C47.7729 25.3 46.8296 25.0667 46.0163 24.6C45.2096 24.1267 44.5796 23.47 44.1262 22.63C43.6796 21.7833 43.4563 20.8033 43.4563 19.69C43.4563 18.51 43.6763 17.4867 44.1163 16.62C44.5629 15.7533 45.1829 15.0833 45.9763 14.61C46.7696 14.1367 47.6929 13.9 48.7463 13.9C49.8463 13.9 50.7829 14.1567 51.5563 14.67C52.3296 15.1767 52.9063 15.9 53.2863 16.84C53.6729 17.78 53.8263 18.8967 53.7463 20.19H51.6563V19.43C51.6429 18.1767 51.4029 17.25 50.9363 16.65C50.4763 16.05 49.7729 15.75 48.8263 15.75C47.7796 15.75 46.9929 16.08 46.4663 16.74C45.9396 17.4 45.6763 18.3533 45.6763 19.6C45.6763 20.7867 45.9396 21.7067 46.4663 22.36C46.9929 23.0067 47.7529 23.33 48.7463 23.33C49.3996 23.33 49.9629 23.1833 50.4363 22.89C50.9163 22.59 51.2896 22.1633 51.5563 21.61L53.6063 22.26C53.1863 23.2267 52.5496 23.9767 51.6963 24.51C50.8429 25.0367 49.8929 25.3 48.8463 25.3ZM44.9963 20.19V18.56H52.7062V20.19H44.9963ZM72.9338 25L72.9438 18.27C72.9438 17.49 72.7438 16.8833 72.3438 16.45C71.9438 16.01 71.4171 15.79 70.7638 15.79C70.3638 15.79 69.9971 15.8833 69.6637 16.07C69.3371 16.25 69.0704 16.5233 68.8638 16.89C68.6638 17.25 68.5638 17.7033 68.5638 18.25L67.5538 17.74C67.5404 16.98 67.7004 16.3133 68.0338 15.74C68.3738 15.1667 68.8338 14.7233 69.4138 14.41C69.9938 14.09 70.6438 13.93 71.3638 13.93C72.5304 13.93 73.4338 14.28 74.0738 14.98C74.7138 15.68 75.0338 16.61 75.0338 17.77L75.0238 25H72.9338ZM59.9838 25V14.2H61.8438V17.32H62.0838V25H59.9838ZM66.4638 25L66.4738 18.31C66.4738 17.5233 66.2738 16.9067 65.8738 16.46C65.4804 16.0133 64.9504 15.79 64.2838 15.79C63.6238 15.79 63.0904 16.0167 62.6838 16.47C62.2838 16.9233 62.0838 17.5167 62.0838 18.25L61.0838 17.61C61.0838 16.9033 61.2538 16.2733 61.5938 15.72C61.9338 15.1667 62.3938 14.73 62.9738 14.41C63.5538 14.09 64.2104 13.93 64.9438 13.93C65.7104 13.93 66.3638 14.0933 66.9038 14.42C67.4438 14.74 67.8538 15.19 68.1338 15.77C68.4204 16.35 68.5638 17.0233 68.5638 17.79L68.5538 25H66.4638ZM82.1838 25.3C81.1038 25.3 80.1671 25.0567 79.3738 24.57C78.5804 24.0833 77.9671 23.4133 77.5338 22.56C77.1071 21.7 76.8938 20.71 76.8938 19.59C76.8938 18.4633 77.1138 17.4733 77.5538 16.62C77.9938 15.76 78.6104 15.0933 79.4038 14.62C80.1971 14.14 81.1238 13.9 82.1838 13.9C83.2638 13.9 84.2004 14.1433 84.9938 14.63C85.7871 15.1167 86.4004 15.7867 86.8338 16.64C87.2671 17.4933 87.4838 18.4767 87.4838 19.59C87.4838 20.7167 87.2638 21.71 86.8238 22.57C86.3904 23.4233 85.7771 24.0933 84.9838 24.58C84.1904 25.06 83.2571 25.3 82.1838 25.3ZM82.1838 23.33C83.2171 23.33 83.9871 22.9833 84.4938 22.29C85.0071 21.59 85.2638 20.69 85.2638 19.59C85.2638 18.4633 85.0038 17.5633 84.4838 16.89C83.9704 16.21 83.2038 15.87 82.1838 15.87C81.4838 15.87 80.9071 16.03 80.4538 16.35C80.0004 16.6633 79.6638 17.1 79.4438 17.66C79.2238 18.2133 79.1138 18.8567 79.1138 19.59C79.1138 20.7233 79.3738 21.63 79.8938 22.31C80.4138 22.99 81.1771 23.33 82.1838 23.33ZM89.6813 25V14.2H91.5413V16.82L91.2813 16.48C91.4146 16.1333 91.5879 15.8167 91.8013 15.53C92.0146 15.2367 92.2613 14.9967 92.5413 14.81C92.8146 14.61 93.1179 14.4567 93.4513 14.35C93.7913 14.2367 94.1379 14.17 94.4913 14.15C94.8446 14.1233 95.1846 14.14 95.5113 14.2V16.16C95.1579 16.0667 94.7646 16.04 94.3313 16.08C93.9046 16.12 93.5113 16.2567 93.1513 16.49C92.8113 16.71 92.5413 16.9767 92.3413 17.29C92.1479 17.6033 92.0079 17.9533 91.9213 18.34C91.8346 18.72 91.7913 19.1233 91.7913 19.55V25H89.6813ZM102.01 25.3C100.937 25.3 99.9936 25.0667 99.1803 24.6C98.3736 24.1267 97.7436 23.47 97.2903 22.63C96.8436 21.7833 96.6203 20.8033 96.6203 19.69C96.6203 18.51 96.8403 17.4867 97.2803 16.62C97.727 15.7533 98.347 15.0833 99.1403 14.61C99.9336 14.1367 100.857 13.9 101.91 13.9C103.01 13.9 103.947 14.1567 104.72 14.67C105.494 15.1767 106.07 15.9 106.45 16.84C106.837 17.78 106.99 18.8967 106.91 20.19H104.82V19.43C104.807 18.1767 104.567 17.25 104.1 16.65C103.64 16.05 102.937 15.75 101.99 15.75C100.944 15.75 100.157 16.08 99.6303 16.74C99.1036 17.4 98.8403 18.3533 98.8403 19.6C98.8403 20.7867 99.1036 21.7067 99.6303 22.36C100.157 23.0067 100.917 23.33 101.91 23.33C102.564 23.33 103.127 23.1833 103.6 22.89C104.08 22.59 104.454 22.1633 104.72 21.61L106.77 22.26C106.35 23.2267 105.714 23.9767 104.86 24.51C104.007 25.0367 103.057 25.3 102.01 25.3ZM98.1603 20.19V18.56H105.87V20.19H98.1603Z" fill="white"/>
</svg>
