<svg width="109" height="38" viewBox="0 0 109 38" fill="none" xmlns="http://www.w3.org/2000/svg">
<rect width="109" height="38" rx="19" fill="#032557"/>
<path d="M29.472 25.24C28.6187 25.24 27.848 25.0907 27.16 24.792C26.4773 24.488 25.9147 24.056 25.472 23.496C25.0347 22.9307 24.7573 22.2587 24.64 21.48L26.912 21.144C27.072 21.8053 27.4027 22.3147 27.904 22.672C28.4053 23.0293 28.976 23.208 29.616 23.208C29.9733 23.208 30.32 23.152 30.656 23.04C30.992 22.928 31.2667 22.7627 31.48 22.544C31.6987 22.3253 31.808 22.056 31.808 21.736C31.808 21.6187 31.7893 21.5067 31.752 21.4C31.72 21.288 31.664 21.184 31.584 21.088C31.504 20.992 31.3893 20.9013 31.24 20.816C31.096 20.7307 30.912 20.6533 30.688 20.584L27.696 19.704C27.472 19.64 27.2107 19.5493 26.912 19.432C26.6187 19.3147 26.3333 19.1467 26.056 18.928C25.7787 18.7093 25.5467 18.4213 25.36 18.064C25.1787 17.7013 25.088 17.2453 25.088 16.696C25.088 15.9227 25.2827 15.28 25.672 14.768C26.0613 14.256 26.5813 13.8747 27.232 13.624C27.8827 13.3733 28.6027 13.2507 29.392 13.256C30.1867 13.2667 30.896 13.4027 31.52 13.664C32.144 13.9253 32.6667 14.3067 33.088 14.808C33.5093 15.304 33.8133 15.912 34 16.632L31.648 17.032C31.5627 16.6587 31.4053 16.344 31.176 16.088C30.9467 15.832 30.672 15.6373 30.352 15.504C30.0373 15.3707 29.7067 15.2987 29.36 15.288C29.0187 15.2773 28.696 15.3253 28.392 15.432C28.0933 15.5333 27.848 15.6827 27.656 15.88C27.4693 16.0773 27.376 16.312 27.376 16.584C27.376 16.8347 27.4533 17.04 27.608 17.2C27.7627 17.3547 27.9573 17.48 28.192 17.576C28.4267 17.672 28.6667 17.752 28.912 17.816L30.912 18.36C31.2107 18.44 31.5413 18.5467 31.904 18.68C32.2667 18.808 32.6133 18.9893 32.944 19.224C33.28 19.4533 33.5547 19.7573 33.768 20.136C33.9867 20.5147 34.096 20.9947 34.096 21.576C34.096 22.1947 33.9653 22.736 33.704 23.2C33.448 23.6587 33.1013 24.04 32.664 24.344C32.2267 24.6427 31.7307 24.8667 31.176 25.016C30.6267 25.1653 30.0587 25.24 29.472 25.24ZM36.0144 15.16V13.24H38.1904V15.16H36.0144ZM36.0144 25V16.36H38.1904V25H36.0144ZM44.2848 29.08C43.7941 29.08 43.3274 29 42.8848 28.84C42.4421 28.6853 42.0448 28.4667 41.6928 28.184C41.3461 27.9067 41.0634 27.5813 40.8448 27.208L42.8608 26.232C42.9994 26.488 43.1968 26.6827 43.4528 26.816C43.7141 26.9493 43.9968 27.016 44.3008 27.016C44.6261 27.016 44.9328 26.96 45.2208 26.848C45.5088 26.7413 45.7381 26.5787 45.9088 26.36C46.0848 26.1467 46.1674 25.88 46.1568 25.56V23.048H46.4288V16.36H48.3328V25.592C48.3328 25.8053 48.3221 26.0053 48.3008 26.192C48.2848 26.384 48.2528 26.5733 48.2048 26.76C48.0661 27.288 47.8074 27.7227 47.4288 28.064C47.0554 28.4053 46.5968 28.6587 46.0528 28.824C45.5088 28.9947 44.9194 29.08 44.2848 29.08ZM44.0928 25.24C43.2981 25.24 42.6021 25.04 42.0048 24.64C41.4074 24.24 40.9408 23.696 40.6048 23.008C40.2741 22.32 40.1088 21.544 40.1088 20.68C40.1088 19.8 40.2768 19.0187 40.6128 18.336C40.9541 17.648 41.4314 17.1067 42.0448 16.712C42.6581 16.3173 43.3781 16.12 44.2048 16.12C45.0261 16.12 45.7168 16.32 46.2768 16.72C46.8368 17.12 47.2608 17.664 47.5487 18.352C47.8368 19.04 47.9808 19.816 47.9808 20.68C47.9808 21.544 47.8341 22.32 47.5408 23.008C47.2528 23.696 46.8208 24.24 46.2448 24.64C45.6688 25.04 44.9514 25.24 44.0928 25.24ZM44.4448 23.304C44.9301 23.304 45.3168 23.1947 45.6048 22.976C45.8981 22.7573 46.1088 22.4507 46.2368 22.056C46.3648 21.6613 46.4288 21.2027 46.4288 20.68C46.4288 20.1573 46.3648 19.6987 46.2368 19.304C46.1088 18.9093 45.9034 18.6027 45.6208 18.384C45.3434 18.1653 44.9781 18.056 44.5248 18.056C44.0394 18.056 43.6394 18.176 43.3248 18.416C43.0154 18.6507 42.7861 18.968 42.6368 19.368C42.4874 19.7627 42.4128 20.2 42.4128 20.68C42.4128 21.1653 42.4848 21.608 42.6288 22.008C42.7728 22.4027 42.9941 22.7173 43.2928 22.952C43.5914 23.1867 43.9754 23.304 44.4448 23.304ZM56.4611 25V20.92C56.4611 20.7227 56.4505 20.472 56.4291 20.168C56.4078 19.8587 56.3411 19.5493 56.2291 19.24C56.1171 18.9307 55.9331 18.672 55.6771 18.464C55.4265 18.256 55.0691 18.152 54.6051 18.152C54.4185 18.152 54.2185 18.1813 54.0051 18.24C53.7918 18.2987 53.5918 18.4133 53.4051 18.584C53.2185 18.7493 53.0638 18.9947 52.9411 19.32C52.8238 19.6453 52.7651 20.0773 52.7651 20.616L51.5171 20.024C51.5171 19.3413 51.6558 18.7013 51.9331 18.104C52.2105 17.5067 52.6265 17.024 53.1811 16.656C53.7411 16.288 54.4451 16.104 55.2931 16.104C55.9705 16.104 56.5225 16.2187 56.9491 16.448C57.3758 16.6773 57.7065 16.968 57.9411 17.32C58.1811 17.672 58.3518 18.04 58.4531 18.424C58.5545 18.8027 58.6158 19.1493 58.6371 19.464C58.6585 19.7787 58.6691 20.008 58.6691 20.152V25H56.4611ZM50.5571 25V16.36H52.4931V19.224H52.7651V25H50.5571ZM68.6361 25.24C67.7081 25.24 66.8921 25.0533 66.1881 24.68C65.4841 24.3013 64.9348 23.7707 64.5401 23.088C64.1455 22.4053 63.9481 21.6027 63.9481 20.68V13.496L66.1561 13.48V20.664C66.1561 21.0427 66.2201 21.3867 66.3481 21.696C66.4761 22.0053 66.6521 22.272 66.8761 22.496C67.1055 22.72 67.3695 22.8933 67.6681 23.016C67.9721 23.1333 68.2948 23.192 68.6361 23.192C68.9881 23.192 69.3135 23.1307 69.6121 23.008C69.9161 22.8853 70.1801 22.712 70.4041 22.488C70.6281 22.264 70.8015 21.9973 70.9241 21.688C71.0521 21.3787 71.1161 21.0373 71.1161 20.664V13.48H73.3241V20.68C73.3241 21.6027 73.1268 22.4053 72.7321 23.088C72.3375 23.7707 71.7881 24.3013 71.0841 24.68C70.3801 25.0533 69.5641 25.24 68.6361 25.24ZM79.7975 25.24C78.9388 25.24 78.2215 25.04 77.6455 24.64C77.0695 24.24 76.6348 23.696 76.3415 23.008C76.0535 22.32 75.9095 21.544 75.9095 20.68C75.9095 19.816 76.0535 19.04 76.3415 18.352C76.6295 17.664 77.0535 17.12 77.6135 16.72C78.1735 16.32 78.8642 16.12 79.6855 16.12C80.5122 16.12 81.2322 16.3173 81.8455 16.712C82.4588 17.1067 82.9335 17.648 83.2695 18.336C83.6108 19.0187 83.7815 19.8 83.7815 20.68C83.7815 21.544 83.6135 22.32 83.2775 23.008C82.9468 23.696 82.4828 24.24 81.8855 24.64C81.2882 25.04 80.5922 25.24 79.7975 25.24ZM75.5415 28.84V16.36H77.4615V22.28H77.7335V28.84H75.5415ZM79.4455 23.304C79.9148 23.304 80.2988 23.1867 80.5975 22.952C80.8962 22.7173 81.1175 22.4027 81.2615 22.008C81.4055 21.608 81.4775 21.1653 81.4775 20.68C81.4775 20.2 81.4028 19.7627 81.2535 19.368C81.1042 18.968 80.8722 18.6507 80.5575 18.416C80.2482 18.176 79.8508 18.056 79.3655 18.056C78.9122 18.056 78.5442 18.1653 78.2615 18.384C77.9842 18.6027 77.7815 18.9093 77.6535 19.304C77.5255 19.6987 77.4615 20.1573 77.4615 20.68C77.4615 21.2027 77.5255 21.6613 77.6535 22.056C77.7815 22.4507 77.9895 22.7573 78.2775 22.976C78.5708 23.1947 78.9602 23.304 79.4455 23.304Z" fill="white"/>
</svg>
