<svg width="186" height="43" viewBox="0 0 186 43" fill="none" xmlns="http://www.w3.org/2000/svg">
<rect width="186" height="43" rx="21.5" fill="#032557"/>
<path d="M43.34 29.3C42.4067 29.3 41.53 29.1367 40.71 28.81C39.8967 28.4767 39.18 27.99 38.56 27.35C37.9467 26.71 37.4667 25.9267 37.12 25C36.7733 24.0667 36.6 23 36.6 21.8C36.6 20.2267 36.8933 18.8833 37.48 17.77C38.0667 16.65 38.87 15.7933 39.89 15.2C40.91 14.6 42.06 14.3 43.34 14.3C45.1133 14.3 46.5167 14.7133 47.55 15.54C48.59 16.36 49.2933 17.5133 49.66 19L47.2 19.39C46.9267 18.5367 46.48 17.8567 45.86 17.35C45.24 16.8367 44.45 16.58 43.49 16.58C42.5233 16.5667 41.72 16.7767 41.08 17.21C40.44 17.6433 39.9567 18.2533 39.63 19.04C39.31 19.8267 39.15 20.7467 39.15 21.8C39.15 22.8533 39.31 23.77 39.63 24.55C39.95 25.3233 40.43 25.9267 41.07 26.36C41.7167 26.7933 42.5233 27.0167 43.49 27.03C44.2167 27.0367 44.8533 26.9067 45.4 26.64C45.9467 26.3667 46.3933 25.9567 46.74 25.41C47.0867 24.8567 47.32 24.1667 47.44 23.34H44.9V21.45H50C50.0133 21.5567 50.0233 21.7133 50.03 21.92C50.0367 22.1267 50.04 22.25 50.04 22.29C50.04 23.65 49.77 24.86 49.23 25.92C48.6967 26.9733 47.93 27.8 46.93 28.4C45.93 29 44.7333 29.3 43.34 29.3ZM56.9584 29.3C55.8651 29.3 54.9051 29.0633 54.0784 28.59C53.2518 28.1167 52.6051 27.46 52.1384 26.62C51.6784 25.78 51.4484 24.8133 51.4484 23.72C51.4484 22.54 51.6751 21.5167 52.1284 20.65C52.5818 19.7767 53.2118 19.1 54.0184 18.62C54.8251 18.14 55.7584 17.9 56.8184 17.9C57.9384 17.9 58.8884 18.1633 59.6684 18.69C60.4551 19.21 61.0384 19.9467 61.4184 20.9C61.7984 21.8533 61.9418 22.9767 61.8484 24.27H59.4584V23.39C59.4518 22.2167 59.2451 21.36 58.8384 20.82C58.4318 20.28 57.7918 20.01 56.9184 20.01C55.9318 20.01 55.1984 20.3167 54.7184 20.93C54.2384 21.5367 53.9984 22.4267 53.9984 23.6C53.9984 24.6933 54.2384 25.54 54.7184 26.14C55.1984 26.74 55.8984 27.04 56.8184 27.04C57.4118 27.04 57.9218 26.91 58.3484 26.65C58.7818 26.3833 59.1151 26 59.3484 25.5L61.7284 26.22C61.3151 27.1933 60.6751 27.95 59.8084 28.49C58.9484 29.03 57.9984 29.3 56.9584 29.3ZM53.2384 24.27V22.45H60.6684V24.27H53.2384ZM70.4097 29C69.6964 29.1333 68.9964 29.19 68.3097 29.17C67.6297 29.1567 67.0197 29.0333 66.4797 28.8C65.9397 28.56 65.5297 28.1833 65.2497 27.67C65.003 27.2033 64.873 26.7267 64.8597 26.24C64.8464 25.7533 64.8397 25.2033 64.8397 24.59V15.2H67.2397V24.45C67.2397 24.8833 67.243 25.2633 67.2497 25.59C67.263 25.9167 67.333 26.1833 67.4597 26.39C67.6997 26.79 68.083 27.0133 68.6097 27.06C69.1364 27.1067 69.7364 27.08 70.4097 26.98V29ZM62.8797 20.09V18.2H70.4097V20.09H62.8797ZM82.0659 29.3C81.0126 29.3 80.0626 29.1167 79.2159 28.75C78.3759 28.3833 77.6826 27.86 77.1359 27.18C76.5959 26.4933 76.2526 25.68 76.1059 24.74L78.6059 24.36C78.8193 25.2133 79.2559 25.8733 79.9159 26.34C80.5826 26.8067 81.3493 27.04 82.2159 27.04C82.7293 27.04 83.2126 26.96 83.6659 26.8C84.1193 26.64 84.4859 26.4067 84.7659 26.1C85.0526 25.7933 85.1959 25.4167 85.1959 24.97C85.1959 24.77 85.1626 24.5867 85.0959 24.42C85.0293 24.2467 84.9293 24.0933 84.7959 23.96C84.6693 23.8267 84.5026 23.7067 84.2959 23.6C84.0959 23.4867 83.8626 23.39 83.5959 23.31L79.8759 22.21C79.5559 22.1167 79.2093 21.9933 78.8359 21.84C78.4693 21.68 78.1193 21.4633 77.7859 21.19C77.4593 20.91 77.1893 20.5567 76.9759 20.13C76.7693 19.6967 76.6659 19.1633 76.6659 18.53C76.6659 17.6033 76.8993 16.8267 77.3659 16.2C77.8393 15.5667 78.4726 15.0933 79.2659 14.78C80.0659 14.4667 80.9526 14.3133 81.9259 14.32C82.9126 14.3267 83.7926 14.4967 84.5659 14.83C85.3393 15.1567 85.9859 15.6333 86.5059 16.26C87.0259 16.8867 87.3926 17.6433 87.6059 18.53L85.0159 18.98C84.9093 18.4733 84.7026 18.0433 84.3959 17.69C84.0959 17.33 83.7259 17.0567 83.2859 16.87C82.8526 16.6833 82.3893 16.5833 81.8959 16.57C81.4159 16.5633 80.9693 16.6367 80.5559 16.79C80.1493 16.9367 79.8193 17.15 79.5659 17.43C79.3193 17.71 79.1959 18.0367 79.1959 18.41C79.1959 18.7633 79.3026 19.0533 79.5159 19.28C79.7293 19.5 79.9926 19.6767 80.3059 19.81C80.6259 19.9367 80.9493 20.0433 81.2759 20.13L83.8559 20.85C84.2093 20.9433 84.6059 21.07 85.0459 21.23C85.4859 21.39 85.9093 21.6133 86.3159 21.9C86.7226 22.1867 87.0559 22.5633 87.3159 23.03C87.5826 23.4967 87.7159 24.09 87.7159 24.81C87.7159 25.5567 87.5593 26.2133 87.2459 26.78C86.9393 27.34 86.5226 27.8067 85.9959 28.18C85.4693 28.5533 84.8659 28.8333 84.1859 29.02C83.5126 29.2067 82.8059 29.3 82.0659 29.3ZM96.2105 29C95.4971 29.1333 94.7971 29.19 94.1105 29.17C93.4305 29.1567 92.8205 29.0333 92.2805 28.8C91.7405 28.56 91.3305 28.1833 91.0505 27.67C90.8038 27.2033 90.6738 26.7267 90.6605 26.24C90.6471 25.7533 90.6405 25.2033 90.6405 24.59V15.2H93.0405V24.45C93.0405 24.8833 93.0438 25.2633 93.0505 25.59C93.0638 25.9167 93.1338 26.1833 93.2605 26.39C93.5005 26.79 93.8838 27.0133 94.4105 27.06C94.9371 27.1067 95.5371 27.08 96.2105 26.98V29ZM88.6805 20.09V18.2H96.2105V20.09H88.6805ZM101.553 29.3C100.773 29.3 100.113 29.1533 99.5728 28.86C99.0328 28.56 98.6228 28.1633 98.3428 27.67C98.0695 27.1767 97.9328 26.6333 97.9328 26.04C97.9328 25.52 98.0195 25.0533 98.1928 24.64C98.3661 24.22 98.6328 23.86 98.9928 23.56C99.3528 23.2533 99.8195 23.0033 100.393 22.81C100.826 22.67 101.333 22.5433 101.913 22.43C102.499 22.3167 103.133 22.2133 103.813 22.12C104.499 22.02 105.216 21.9133 105.963 21.8L105.103 22.29C105.109 21.5433 104.943 20.9933 104.603 20.64C104.263 20.2867 103.689 20.11 102.883 20.11C102.396 20.11 101.926 20.2233 101.473 20.45C101.019 20.6767 100.703 21.0667 100.523 21.62L98.3228 20.93C98.5895 20.0167 99.0961 19.2833 99.8428 18.73C100.596 18.1767 101.609 17.9 102.883 17.9C103.843 17.9 104.686 18.0567 105.413 18.37C106.146 18.6833 106.689 19.1967 107.043 19.91C107.236 20.29 107.353 20.68 107.393 21.08C107.433 21.4733 107.453 21.9033 107.453 22.37V29H105.343V26.66L105.693 27.04C105.206 27.82 104.636 28.3933 103.983 28.76C103.336 29.12 102.526 29.3 101.553 29.3ZM102.033 27.38C102.579 27.38 103.046 27.2833 103.433 27.09C103.819 26.8967 104.126 26.66 104.353 26.38C104.586 26.1 104.743 25.8367 104.823 25.59C104.949 25.2833 105.019 24.9333 105.033 24.54C105.053 24.14 105.063 23.8167 105.063 23.57L105.803 23.79C105.076 23.9033 104.453 24.0033 103.933 24.09C103.413 24.1767 102.966 24.26 102.593 24.34C102.219 24.4133 101.889 24.4967 101.603 24.59C101.323 24.69 101.086 24.8067 100.893 24.94C100.699 25.0733 100.549 25.2267 100.443 25.4C100.343 25.5733 100.293 25.7767 100.293 26.01C100.293 26.2767 100.359 26.5133 100.493 26.72C100.626 26.92 100.819 27.08 101.073 27.2C101.333 27.32 101.653 27.38 102.033 27.38ZM110.056 29V18.2H112.186V20.83L111.926 20.49C112.06 20.13 112.236 19.8033 112.456 19.51C112.683 19.21 112.953 18.9633 113.266 18.77C113.533 18.59 113.826 18.45 114.146 18.35C114.473 18.2433 114.806 18.18 115.146 18.16C115.486 18.1333 115.816 18.1467 116.136 18.2V20.45C115.816 20.3567 115.446 20.3267 115.026 20.36C114.613 20.3933 114.24 20.51 113.906 20.71C113.573 20.89 113.3 21.12 113.086 21.4C112.88 21.68 112.726 22 112.626 22.36C112.526 22.7133 112.476 23.0967 112.476 23.51V29H110.056ZM124.375 29C123.661 29.1333 122.961 29.19 122.275 29.17C121.595 29.1567 120.985 29.0333 120.445 28.8C119.905 28.56 119.495 28.1833 119.215 27.67C118.968 27.2033 118.838 26.7267 118.825 26.24C118.811 25.7533 118.805 25.2033 118.805 24.59V15.2H121.205V24.45C121.205 24.8833 121.208 25.2633 121.215 25.59C121.228 25.9167 121.298 26.1833 121.425 26.39C121.665 26.79 122.048 27.0133 122.575 27.06C123.101 27.1067 123.701 27.08 124.375 26.98V29ZM116.845 20.09V18.2H124.375V20.09H116.845ZM131.06 29.3C129.967 29.3 129.007 29.0633 128.18 28.59C127.353 28.1167 126.707 27.46 126.24 26.62C125.78 25.78 125.55 24.8133 125.55 23.72C125.55 22.54 125.777 21.5167 126.23 20.65C126.683 19.7767 127.313 19.1 128.12 18.62C128.927 18.14 129.86 17.9 130.92 17.9C132.04 17.9 132.99 18.1633 133.77 18.69C134.557 19.21 135.14 19.9467 135.52 20.9C135.9 21.8533 136.043 22.9767 135.95 24.27H133.56V23.39C133.553 22.2167 133.347 21.36 132.94 20.82C132.533 20.28 131.893 20.01 131.02 20.01C130.033 20.01 129.3 20.3167 128.82 20.93C128.34 21.5367 128.1 22.4267 128.1 23.6C128.1 24.6933 128.34 25.54 128.82 26.14C129.3 26.74 130 27.04 130.92 27.04C131.513 27.04 132.023 26.91 132.45 26.65C132.883 26.3833 133.217 26 133.45 25.5L135.83 26.22C135.417 27.1933 134.777 27.95 133.91 28.49C133.05 29.03 132.1 29.3 131.06 29.3ZM127.34 24.27V22.45H134.77V24.27H127.34ZM142.511 29.3C141.518 29.3 140.651 29.05 139.911 28.55C139.171 28.05 138.598 27.37 138.191 26.51C137.785 25.65 137.581 24.68 137.581 23.6C137.581 22.5067 137.785 21.5333 138.191 20.68C138.605 19.82 139.188 19.1433 139.941 18.65C140.695 18.15 141.581 17.9 142.601 17.9C143.628 17.9 144.488 18.15 145.181 18.65C145.881 19.1433 146.411 19.82 146.771 20.68C147.131 21.54 147.311 22.5133 147.311 23.6C147.311 24.6733 147.131 25.6433 146.771 26.51C146.411 27.37 145.875 28.05 145.161 28.55C144.448 29.05 143.565 29.3 142.511 29.3ZM142.881 27.14C143.528 27.14 144.048 26.9933 144.441 26.7C144.841 26.4 145.131 25.9833 145.311 25.45C145.498 24.9167 145.591 24.3 145.591 23.6C145.591 22.8933 145.498 22.2767 145.311 21.75C145.131 21.2167 144.848 20.8033 144.461 20.51C144.075 20.21 143.575 20.06 142.961 20.06C142.315 20.06 141.781 20.22 141.361 20.54C140.941 20.8533 140.631 21.28 140.431 21.82C140.231 22.3533 140.131 22.9467 140.131 23.6C140.131 24.26 140.228 24.86 140.421 25.4C140.621 25.9333 140.925 26.3567 141.331 26.67C141.738 26.9833 142.255 27.14 142.881 27.14ZM145.591 29V21.42H145.291V14.6H147.721V29H145.591Z" fill="white"/>
</svg>
