<svg width="268" height="38" viewBox="0 0 268 38" fill="none" xmlns="http://www.w3.org/2000/svg">
<rect width="268" height="38" rx="19" fill="white"/>
<path d="M30.064 25.24C28.912 25.24 27.9173 24.9893 27.08 24.488C26.248 23.9867 25.6053 23.2853 25.152 22.384C24.704 21.4827 24.48 20.4347 24.48 19.24C24.48 18.0453 24.704 16.9973 25.152 16.096C25.6053 15.1947 26.248 14.4933 27.08 13.992C27.9173 13.4907 28.912 13.24 30.064 13.24C31.3867 13.24 32.496 13.568 33.392 14.224C34.2933 14.88 34.928 15.768 35.296 16.888L33.104 17.496C32.8907 16.7973 32.5307 16.256 32.024 15.872C31.5173 15.4827 30.864 15.288 30.064 15.288C29.3333 15.288 28.7227 15.4507 28.232 15.776C27.7467 16.1013 27.3813 16.56 27.136 17.152C26.8907 17.744 26.768 18.44 26.768 19.24C26.768 20.04 26.8907 20.736 27.136 21.328C27.3813 21.92 27.7467 22.3787 28.232 22.704C28.7227 23.0293 29.3333 23.192 30.064 23.192C30.864 23.192 31.5173 22.9973 32.024 22.608C32.5307 22.2187 32.8907 21.6773 33.104 20.984L35.296 21.592C34.928 22.712 34.2933 23.6 33.392 24.256C32.496 24.912 31.3867 25.24 30.064 25.24ZM39.4575 25.24C38.8388 25.24 38.3135 25.1227 37.8815 24.888C37.4548 24.648 37.1295 24.3307 36.9055 23.936C36.6868 23.536 36.5775 23.096 36.5775 22.616C36.5775 22.216 36.6388 21.8507 36.7615 21.52C36.8842 21.1893 37.0815 20.8987 37.3535 20.648C37.6308 20.392 38.0015 20.1787 38.4655 20.008C38.7855 19.8907 39.1668 19.7867 39.6095 19.696C40.0522 19.6053 40.5535 19.52 41.1135 19.44C41.6735 19.3547 42.2895 19.2613 42.9615 19.16L42.1775 19.592C42.1775 19.08 42.0548 18.704 41.8095 18.464C41.5642 18.224 41.1535 18.104 40.5775 18.104C40.2575 18.104 39.9242 18.1813 39.5775 18.336C39.2308 18.4907 38.9882 18.7653 38.8495 19.16L36.8815 18.536C37.1002 17.8213 37.5108 17.24 38.1135 16.792C38.7162 16.344 39.5375 16.12 40.5775 16.12C41.3402 16.12 42.0175 16.2373 42.6095 16.472C43.2015 16.7067 43.6495 17.112 43.9535 17.688C44.1242 18.008 44.2255 18.328 44.2575 18.648C44.2895 18.968 44.3055 19.3253 44.3055 19.72V25H42.4015V23.224L42.6735 23.592C42.2522 24.1733 41.7962 24.5947 41.3055 24.856C40.8202 25.112 40.2042 25.24 39.4575 25.24ZM39.9215 23.528C40.3215 23.528 40.6575 23.4587 40.9295 23.32C41.2068 23.176 41.4255 23.0133 41.5855 22.832C41.7508 22.6507 41.8628 22.4987 41.9215 22.376C42.0335 22.1413 42.0975 21.8693 42.1135 21.56C42.1348 21.2453 42.1455 20.984 42.1455 20.776L42.7855 20.936C42.1402 21.0427 41.6175 21.1333 41.2175 21.208C40.8175 21.2773 40.4948 21.3413 40.2495 21.4C40.0042 21.4587 39.7882 21.5227 39.6015 21.592C39.3882 21.6773 39.2148 21.7707 39.0815 21.872C38.9535 21.968 38.8575 22.0747 38.7935 22.192C38.7348 22.3093 38.7055 22.44 38.7055 22.584C38.7055 22.7813 38.7535 22.952 38.8495 23.096C38.9508 23.2347 39.0922 23.3413 39.2735 23.416C39.4548 23.4907 39.6708 23.528 39.9215 23.528ZM56.7856 25V19.896C56.7856 19.3253 56.6496 18.8827 56.3776 18.568C56.111 18.248 55.7403 18.088 55.2656 18.088C54.9616 18.088 54.6976 18.16 54.4736 18.304C54.2496 18.4427 54.0736 18.64 53.9456 18.896C53.823 19.1467 53.7616 19.4373 53.7616 19.768L52.8496 19.16C52.8496 18.568 52.9883 18.0453 53.2656 17.592C53.5483 17.1387 53.9243 16.7867 54.3936 16.536C54.8683 16.28 55.3936 16.152 55.9696 16.152C56.9563 16.152 57.7003 16.4453 58.2016 17.032C58.7083 17.6133 58.9616 18.376 58.9616 19.32V25H56.7856ZM46.3696 25V16.36H48.2896V19.224H48.5616V25H46.3696ZM51.5856 25V19.896C51.5856 19.3253 51.4496 18.8827 51.1776 18.568C50.911 18.248 50.5403 18.088 50.0656 18.088C49.6123 18.088 49.247 18.2453 48.9696 18.56C48.6976 18.8693 48.5616 19.272 48.5616 19.768L47.6496 19.128C47.6496 18.5627 47.791 18.056 48.0736 17.608C48.3563 17.16 48.735 16.8053 49.2096 16.544C49.6896 16.2827 50.2256 16.152 50.8176 16.152C51.495 16.152 52.0496 16.296 52.4816 16.584C52.919 16.872 53.2416 17.256 53.4496 17.736C53.6576 18.216 53.7616 18.744 53.7616 19.32V25H51.5856ZM65.2819 25.24C64.4232 25.24 63.7059 25.04 63.1299 24.64C62.5539 24.24 62.1192 23.696 61.8259 23.008C61.5379 22.32 61.3939 21.544 61.3939 20.68C61.3939 19.816 61.5379 19.04 61.8259 18.352C62.1139 17.664 62.5379 17.12 63.0979 16.72C63.6579 16.32 64.3485 16.12 65.1699 16.12C65.9965 16.12 66.7165 16.3173 67.3299 16.712C67.9432 17.1067 68.4179 17.648 68.7539 18.336C69.0952 19.0187 69.2659 19.8 69.2659 20.68C69.2659 21.544 69.0979 22.32 68.7619 23.008C68.4312 23.696 67.9672 24.24 67.3699 24.64C66.7725 25.04 66.0765 25.24 65.2819 25.24ZM61.0259 28.84V16.36H62.9459V22.28H63.2179V28.84H61.0259ZM64.9299 23.304C65.3992 23.304 65.7832 23.1867 66.0819 22.952C66.3805 22.7173 66.6019 22.4027 66.7459 22.008C66.8899 21.608 66.9619 21.1653 66.9619 20.68C66.9619 20.2 66.8872 19.7627 66.7379 19.368C66.5885 18.968 66.3565 18.6507 66.0419 18.416C65.7325 18.176 65.3352 18.056 64.8499 18.056C64.3965 18.056 64.0285 18.1653 63.7459 18.384C63.4685 18.6027 63.2659 18.9093 63.1379 19.304C63.0099 19.6987 62.9459 20.1573 62.9459 20.68C62.9459 21.2027 63.0099 21.6613 63.1379 22.056C63.2659 22.4507 63.4739 22.7573 63.7619 22.976C64.0552 23.1947 64.4445 23.304 64.9299 23.304ZM74.2423 25.256C73.5649 25.256 73.0129 25.1413 72.5863 24.912C72.1596 24.6827 71.8263 24.392 71.5863 24.04C71.3516 23.688 71.1836 23.3227 71.0822 22.944C70.9809 22.56 70.9196 22.2107 70.8983 21.896C70.8769 21.5813 70.8663 21.352 70.8663 21.208V16.36H73.0743V20.44C73.0743 20.6373 73.0849 20.8907 73.1063 21.2C73.1276 21.504 73.1943 21.8107 73.3063 22.12C73.4183 22.4293 73.5996 22.688 73.8503 22.896C74.1063 23.104 74.4663 23.208 74.9303 23.208C75.1169 23.208 75.3169 23.1787 75.5303 23.12C75.7436 23.0613 75.9436 22.9493 76.1303 22.784C76.3169 22.6133 76.4689 22.3653 76.5863 22.04C76.7089 21.7093 76.7703 21.2773 76.7703 20.744L78.0183 21.336C78.0183 22.0187 77.8796 22.6587 77.6023 23.256C77.3249 23.8533 76.9063 24.336 76.3463 24.704C75.7916 25.072 75.0903 25.256 74.2423 25.256ZM77.0423 25V22.136H76.7703V16.36H78.9623V25H77.0423ZM84.5741 25.24C83.4861 25.24 82.6061 24.9947 81.9341 24.504C81.2675 24.008 80.8621 23.3093 80.7181 22.408L82.9421 22.072C83.0328 22.4773 83.2328 22.7947 83.5421 23.024C83.8568 23.2533 84.2541 23.368 84.7341 23.368C85.1288 23.368 85.4328 23.2933 85.6461 23.144C85.8595 22.9893 85.9661 22.776 85.9661 22.504C85.9661 22.3333 85.9235 22.1973 85.8381 22.096C85.7528 21.9893 85.5608 21.8853 85.2621 21.784C84.9688 21.6827 84.5101 21.5493 83.8861 21.384C83.1821 21.2027 82.6195 21 82.1981 20.776C81.7768 20.552 81.4728 20.2853 81.2861 19.976C81.0995 19.6613 81.0061 19.2827 81.0061 18.84C81.0061 18.2853 81.1475 17.8053 81.4301 17.4C81.7128 16.9893 82.1101 16.6747 82.6221 16.456C83.1395 16.232 83.7475 16.12 84.4461 16.12C85.1235 16.12 85.7235 16.224 86.2461 16.432C86.7688 16.64 87.1901 16.936 87.5101 17.32C87.8355 17.704 88.0355 18.1573 88.1101 18.68L85.8861 19.08C85.8488 18.76 85.7101 18.5067 85.4701 18.32C85.2301 18.1333 84.9048 18.024 84.4941 17.992C84.0941 17.9653 83.7715 18.0187 83.5261 18.152C83.2861 18.2853 83.1661 18.4773 83.1661 18.728C83.1661 18.8773 83.2168 19.0027 83.3181 19.104C83.4248 19.2053 83.6408 19.3093 83.9661 19.416C84.2968 19.5227 84.7981 19.6613 85.4701 19.832C86.1261 20.0027 86.6515 20.2027 87.0461 20.432C87.4461 20.656 87.7368 20.928 87.9181 21.248C88.0995 21.5627 88.1901 21.944 88.1901 22.392C88.1901 23.2773 87.8701 23.9733 87.2301 24.48C86.5901 24.9867 85.7048 25.24 84.5741 25.24ZM93.3113 25V13.48H95.4873V25H93.3113ZM103.774 25V20.92C103.774 20.7227 103.763 20.472 103.742 20.168C103.72 19.8587 103.654 19.5493 103.542 19.24C103.43 18.9307 103.246 18.672 102.99 18.464C102.739 18.256 102.382 18.152 101.918 18.152C101.731 18.152 101.531 18.1813 101.318 18.24C101.104 18.2987 100.904 18.4133 100.718 18.584C100.531 18.7493 100.376 18.9947 100.254 19.32C100.136 19.6453 100.078 20.0773 100.078 20.616L98.8296 20.024C98.8296 19.3413 98.9683 18.7013 99.2456 18.104C99.523 17.5067 99.939 17.024 100.494 16.656C101.054 16.288 101.758 16.104 102.606 16.104C103.283 16.104 103.835 16.2187 104.262 16.448C104.688 16.6773 105.019 16.968 105.254 17.32C105.494 17.672 105.664 18.04 105.766 18.424C105.867 18.8027 105.928 19.1493 105.95 19.464C105.971 19.7787 105.982 20.008 105.982 20.152V25H103.774ZM97.8696 25V16.36H99.8056V19.224H100.078V25H97.8696ZM112.858 18.04V16.36H114.938V18.04H112.858ZM108.778 25V16.392C108.778 16.1733 108.783 15.9253 108.794 15.648C108.804 15.3707 108.847 15.0907 108.922 14.808C109.002 14.5253 109.146 14.2693 109.354 14.04C109.62 13.7413 109.908 13.5387 110.218 13.432C110.532 13.32 110.836 13.2613 111.13 13.256C111.423 13.2453 111.674 13.24 111.882 13.24H112.954V15H111.962C111.62 15 111.367 15.088 111.202 15.264C111.036 15.4347 110.954 15.64 110.954 15.88V25H108.778ZM107.418 18.04V16.36H112.954V18.04H107.418ZM114.858 25V13.24H117.034V25H114.858ZM122.649 25.256C121.971 25.256 121.419 25.1413 120.993 24.912C120.566 24.6827 120.233 24.392 119.993 24.04C119.758 23.688 119.59 23.3227 119.488 22.944C119.387 22.56 119.326 22.2107 119.305 21.896C119.283 21.5813 119.273 21.352 119.273 21.208V16.36H121.481V20.44C121.481 20.6373 121.491 20.8907 121.513 21.2C121.534 21.504 121.601 21.8107 121.713 22.12C121.825 22.4293 122.006 22.688 122.257 22.896C122.513 23.104 122.873 23.208 123.337 23.208C123.523 23.208 123.723 23.1787 123.937 23.12C124.15 23.0613 124.35 22.9493 124.537 22.784C124.723 22.6133 124.875 22.3653 124.993 22.04C125.115 21.7093 125.177 21.2773 125.177 20.744L126.425 21.336C126.425 22.0187 126.286 22.6587 126.009 23.256C125.731 23.8533 125.313 24.336 124.753 24.704C124.198 25.072 123.497 25.256 122.649 25.256ZM125.449 25V22.136H125.177V16.36H127.369V25H125.449ZM133.62 25.24C132.735 25.24 131.954 25.0507 131.276 24.672C130.604 24.288 130.076 23.7627 129.692 23.096C129.314 22.424 129.124 21.656 129.124 20.792C129.124 19.848 129.311 19.0267 129.684 18.328C130.058 17.6293 130.572 17.088 131.228 16.704C131.884 16.3147 132.639 16.12 133.492 16.12C134.399 16.12 135.17 16.3333 135.804 16.76C136.439 17.1867 136.908 17.7867 137.212 18.56C137.516 19.3333 137.623 20.2427 137.532 21.288H135.38V20.488C135.38 19.608 135.239 18.976 134.956 18.592C134.679 18.2027 134.223 18.008 133.588 18.008C132.847 18.008 132.3 18.2347 131.948 18.688C131.602 19.136 131.428 19.8 131.428 20.68C131.428 21.4853 131.602 22.1093 131.948 22.552C132.3 22.9893 132.815 23.208 133.492 23.208C133.919 23.208 134.284 23.1147 134.588 22.928C134.892 22.7413 135.124 22.472 135.284 22.12L137.46 22.744C137.135 23.5333 136.62 24.1467 135.916 24.584C135.218 25.0213 134.452 25.24 133.62 25.24ZM130.756 21.288V19.672H136.484V21.288H130.756ZM144.992 25V20.92C144.992 20.7227 144.982 20.472 144.96 20.168C144.939 19.8587 144.872 19.5493 144.76 19.24C144.648 18.9307 144.464 18.672 144.208 18.464C143.958 18.256 143.6 18.152 143.136 18.152C142.95 18.152 142.75 18.1813 142.536 18.24C142.323 18.2987 142.123 18.4133 141.936 18.584C141.75 18.7493 141.595 18.9947 141.472 19.32C141.355 19.6453 141.296 20.0773 141.296 20.616L140.048 20.024C140.048 19.3413 140.187 18.7013 140.464 18.104C140.742 17.5067 141.158 17.024 141.712 16.656C142.272 16.288 142.976 16.104 143.824 16.104C144.502 16.104 145.054 16.2187 145.48 16.448C145.907 16.6773 146.238 16.968 146.472 17.32C146.712 17.672 146.883 18.04 146.984 18.424C147.086 18.8027 147.147 19.1493 147.168 19.464C147.19 19.7787 147.2 20.008 147.2 20.152V25H144.992ZM139.088 25V16.36H141.024V19.224H141.296V25H139.088ZM152.928 25.24C152.032 25.24 151.264 25.04 150.624 24.64C149.984 24.24 149.493 23.696 149.152 23.008C148.811 22.32 148.64 21.544 148.64 20.68C148.64 19.8053 148.816 19.024 149.168 18.336C149.525 17.648 150.027 17.1067 150.672 16.712C151.317 16.3173 152.08 16.12 152.96 16.12C153.979 16.12 154.832 16.3787 155.52 16.896C156.213 17.408 156.656 18.1093 156.848 19L154.672 19.576C154.544 19.128 154.32 18.7787 154 18.528C153.685 18.2773 153.328 18.152 152.928 18.152C152.469 18.152 152.093 18.264 151.8 18.488C151.507 18.7067 151.291 19.008 151.152 19.392C151.013 19.7707 150.944 20.2 150.944 20.68C150.944 21.432 151.109 22.0427 151.44 22.512C151.776 22.976 152.272 23.208 152.928 23.208C153.419 23.208 153.792 23.096 154.048 22.872C154.304 22.648 154.496 22.328 154.624 21.912L156.848 22.376C156.603 23.2933 156.139 24 155.456 24.496C154.773 24.992 153.931 25.24 152.928 25.24ZM162.23 25.24C161.344 25.24 160.563 25.0507 159.886 24.672C159.214 24.288 158.686 23.7627 158.302 23.096C157.923 22.424 157.734 21.656 157.734 20.792C157.734 19.848 157.92 19.0267 158.294 18.328C158.667 17.6293 159.182 17.088 159.838 16.704C160.494 16.3147 161.248 16.12 162.102 16.12C163.008 16.12 163.779 16.3333 164.414 16.76C165.048 17.1867 165.518 17.7867 165.822 18.56C166.126 19.3333 166.232 20.2427 166.142 21.288H163.99V20.488C163.99 19.608 163.848 18.976 163.566 18.592C163.288 18.2027 162.832 18.008 162.198 18.008C161.456 18.008 160.91 18.2347 160.558 18.688C160.211 19.136 160.038 19.8 160.038 20.68C160.038 21.4853 160.211 22.1093 160.558 22.552C160.91 22.9893 161.424 23.208 162.102 23.208C162.528 23.208 162.894 23.1147 163.198 22.928C163.502 22.7413 163.734 22.472 163.894 22.12L166.07 22.744C165.744 23.5333 165.23 24.1467 164.526 24.584C163.827 25.0213 163.062 25.24 162.23 25.24ZM159.366 21.288V19.672H165.094V21.288H159.366ZM167.948 25V16.36H169.868V18.472L169.66 18.2C169.772 17.9013 169.921 17.6293 170.108 17.384C170.295 17.1387 170.524 16.936 170.796 16.776C171.004 16.648 171.231 16.5493 171.476 16.48C171.721 16.4053 171.975 16.36 172.236 16.344C172.497 16.3227 172.759 16.328 173.02 16.36V18.392C172.78 18.3173 172.5 18.2933 172.18 18.32C171.865 18.3413 171.58 18.4133 171.324 18.536C171.068 18.6533 170.852 18.8107 170.676 19.008C170.5 19.2 170.367 19.4293 170.276 19.696C170.185 19.9573 170.14 20.2533 170.14 20.584V25H167.948ZM177.745 25V13.48H182.609C182.721 13.48 182.87 13.4853 183.057 13.496C183.249 13.5013 183.42 13.5173 183.569 13.544C184.257 13.6507 184.82 13.8773 185.257 14.224C185.7 14.5707 186.025 15.008 186.233 15.536C186.441 16.0587 186.545 16.6427 186.545 17.288C186.545 17.9333 186.438 18.52 186.225 19.048C186.017 19.5707 185.692 20.0053 185.249 20.352C184.812 20.6987 184.252 20.9253 183.569 21.032C183.42 21.0533 183.249 21.0693 183.057 21.08C182.865 21.0907 182.716 21.096 182.609 21.096H179.921V25H177.745ZM179.921 19.064H182.513C182.625 19.064 182.748 19.0587 182.881 19.048C183.014 19.0373 183.137 19.016 183.249 18.984C183.542 18.904 183.769 18.7707 183.929 18.584C184.089 18.392 184.198 18.1813 184.257 17.952C184.321 17.7173 184.353 17.496 184.353 17.288C184.353 17.08 184.321 16.8613 184.257 16.632C184.198 16.3973 184.089 16.1867 183.929 16C183.769 15.808 183.542 15.672 183.249 15.592C183.137 15.56 183.014 15.5387 182.881 15.528C182.748 15.5173 182.625 15.512 182.513 15.512H179.921V19.064ZM188.151 25V16.36H190.071V18.472L189.863 18.2C189.975 17.9013 190.125 17.6293 190.311 17.384C190.498 17.1387 190.727 16.936 190.999 16.776C191.207 16.648 191.434 16.5493 191.679 16.48C191.925 16.4053 192.178 16.36 192.439 16.344C192.701 16.3227 192.962 16.328 193.223 16.36V18.392C192.983 18.3173 192.703 18.2933 192.383 18.32C192.069 18.3413 191.783 18.4133 191.527 18.536C191.271 18.6533 191.055 18.8107 190.879 19.008C190.703 19.2 190.57 19.4293 190.479 19.696C190.389 19.9573 190.343 20.2533 190.343 20.584V25H188.151ZM198.477 25.24C197.607 25.24 196.845 25.0453 196.189 24.656C195.533 24.2667 195.021 23.7307 194.653 23.048C194.29 22.36 194.109 21.5707 194.109 20.68C194.109 19.7787 194.295 18.9867 194.669 18.304C195.042 17.616 195.557 17.08 196.213 16.696C196.869 16.312 197.623 16.12 198.477 16.12C199.346 16.12 200.109 16.3147 200.765 16.704C201.426 17.0933 201.941 17.632 202.309 18.32C202.677 19.0027 202.861 19.7893 202.861 20.68C202.861 21.576 202.674 22.368 202.301 23.056C201.933 23.7387 201.418 24.2747 200.757 24.664C200.101 25.048 199.341 25.24 198.477 25.24ZM198.477 23.208C199.175 23.208 199.695 22.9733 200.037 22.504C200.383 22.0293 200.557 21.4213 200.557 20.68C200.557 19.912 200.381 19.2987 200.029 18.84C199.682 18.3813 199.165 18.152 198.477 18.152C198.002 18.152 197.613 18.2587 197.309 18.472C197.005 18.6853 196.778 18.9813 196.629 19.36C196.485 19.7387 196.413 20.1787 196.413 20.68C196.413 21.4533 196.586 22.0693 196.933 22.528C197.285 22.9813 197.799 23.208 198.477 23.208ZM208.316 29.08C207.825 29.08 207.359 29 206.916 28.84C206.473 28.6853 206.076 28.4667 205.724 28.184C205.377 27.9067 205.095 27.5813 204.876 27.208L206.892 26.232C207.031 26.488 207.228 26.6827 207.484 26.816C207.745 26.9493 208.028 27.016 208.332 27.016C208.657 27.016 208.964 26.96 209.252 26.848C209.54 26.7413 209.769 26.5787 209.94 26.36C210.116 26.1467 210.199 25.88 210.188 25.56V23.048H210.46V16.36H212.364V25.592C212.364 25.8053 212.353 26.0053 212.332 26.192C212.316 26.384 212.284 26.5733 212.236 26.76C212.097 27.288 211.839 27.7227 211.46 28.064C211.087 28.4053 210.628 28.6587 210.084 28.824C209.54 28.9947 208.951 29.08 208.316 29.08ZM208.124 25.24C207.329 25.24 206.633 25.04 206.036 24.64C205.439 24.24 204.972 23.696 204.636 23.008C204.305 22.32 204.14 21.544 204.14 20.68C204.14 19.8 204.308 19.0187 204.644 18.336C204.985 17.648 205.463 17.1067 206.076 16.712C206.689 16.3173 207.409 16.12 208.236 16.12C209.057 16.12 209.748 16.32 210.308 16.72C210.868 17.12 211.292 17.664 211.58 18.352C211.868 19.04 212.012 19.816 212.012 20.68C212.012 21.544 211.865 22.32 211.572 23.008C211.284 23.696 210.852 24.24 210.276 24.64C209.7 25.04 208.983 25.24 208.124 25.24ZM208.476 23.304C208.961 23.304 209.348 23.1947 209.636 22.976C209.929 22.7573 210.14 22.4507 210.268 22.056C210.396 21.6613 210.46 21.2027 210.46 20.68C210.46 20.1573 210.396 19.6987 210.268 19.304C210.14 18.9093 209.935 18.6027 209.652 18.384C209.375 18.1653 209.009 18.056 208.556 18.056C208.071 18.056 207.671 18.176 207.356 18.416C207.047 18.6507 206.817 18.968 206.668 19.368C206.519 19.7627 206.444 20.2 206.444 20.68C206.444 21.1653 206.516 21.608 206.66 22.008C206.804 22.4027 207.025 22.7173 207.324 22.952C207.623 23.1867 208.007 23.304 208.476 23.304ZM214.604 25V16.36H216.524V18.472L216.316 18.2C216.428 17.9013 216.578 17.6293 216.764 17.384C216.951 17.1387 217.18 16.936 217.452 16.776C217.66 16.648 217.887 16.5493 218.132 16.48C218.378 16.4053 218.631 16.36 218.892 16.344C219.154 16.3227 219.415 16.328 219.676 16.36V18.392C219.436 18.3173 219.156 18.2933 218.836 18.32C218.522 18.3413 218.236 18.4133 217.98 18.536C217.724 18.6533 217.508 18.8107 217.332 19.008C217.156 19.2 217.023 19.4293 216.932 19.696C216.842 19.9573 216.796 20.2533 216.796 20.584V25H214.604ZM223.426 25.24C222.808 25.24 222.282 25.1227 221.85 24.888C221.424 24.648 221.098 24.3307 220.874 23.936C220.656 23.536 220.546 23.096 220.546 22.616C220.546 22.216 220.608 21.8507 220.73 21.52C220.853 21.1893 221.05 20.8987 221.322 20.648C221.6 20.392 221.97 20.1787 222.434 20.008C222.754 19.8907 223.136 19.7867 223.578 19.696C224.021 19.6053 224.522 19.52 225.082 19.44C225.642 19.3547 226.258 19.2613 226.93 19.16L226.146 19.592C226.146 19.08 226.024 18.704 225.778 18.464C225.533 18.224 225.122 18.104 224.546 18.104C224.226 18.104 223.893 18.1813 223.546 18.336C223.2 18.4907 222.957 18.7653 222.818 19.16L220.85 18.536C221.069 17.8213 221.48 17.24 222.082 16.792C222.685 16.344 223.506 16.12 224.546 16.12C225.309 16.12 225.986 16.2373 226.578 16.472C227.17 16.7067 227.618 17.112 227.922 17.688C228.093 18.008 228.194 18.328 228.226 18.648C228.258 18.968 228.274 19.3253 228.274 19.72V25H226.37V23.224L226.642 23.592C226.221 24.1733 225.765 24.5947 225.274 24.856C224.789 25.112 224.173 25.24 223.426 25.24ZM223.89 23.528C224.29 23.528 224.626 23.4587 224.898 23.32C225.176 23.176 225.394 23.0133 225.554 22.832C225.72 22.6507 225.832 22.4987 225.89 22.376C226.002 22.1413 226.066 21.8693 226.082 21.56C226.104 21.2453 226.114 20.984 226.114 20.776L226.754 20.936C226.109 21.0427 225.586 21.1333 225.186 21.208C224.786 21.2773 224.464 21.3413 224.218 21.4C223.973 21.4587 223.757 21.5227 223.57 21.592C223.357 21.6773 223.184 21.7707 223.05 21.872C222.922 21.968 222.826 22.0747 222.762 22.192C222.704 22.3093 222.674 22.44 222.674 22.584C222.674 22.7813 222.722 22.952 222.818 23.096C222.92 23.2347 223.061 23.3413 223.242 23.416C223.424 23.4907 223.64 23.528 223.89 23.528ZM240.754 25V19.896C240.754 19.3253 240.618 18.8827 240.346 18.568C240.08 18.248 239.709 18.088 239.234 18.088C238.93 18.088 238.666 18.16 238.442 18.304C238.218 18.4427 238.042 18.64 237.914 18.896C237.792 19.1467 237.73 19.4373 237.73 19.768L236.818 19.16C236.818 18.568 236.957 18.0453 237.234 17.592C237.517 17.1387 237.893 16.7867 238.362 16.536C238.837 16.28 239.362 16.152 239.938 16.152C240.925 16.152 241.669 16.4453 242.17 17.032C242.677 17.6133 242.93 18.376 242.93 19.32V25H240.754ZM230.338 25V16.36H232.258V19.224H232.53V25H230.338ZM235.554 25V19.896C235.554 19.3253 235.418 18.8827 235.146 18.568C234.88 18.248 234.509 18.088 234.034 18.088C233.581 18.088 233.216 18.2453 232.938 18.56C232.666 18.8693 232.53 19.272 232.53 19.768L231.618 19.128C231.618 18.5627 231.76 18.056 232.042 17.608C232.325 17.16 232.704 16.8053 233.178 16.544C233.658 16.2827 234.194 16.152 234.786 16.152C235.464 16.152 236.018 16.296 236.45 16.584C236.888 16.872 237.21 17.256 237.418 17.736C237.626 18.216 237.73 18.744 237.73 19.32V25H235.554Z" fill="#0052D4"/>
</svg>
