<svg width="33" height="29" viewBox="0 0 33 29" fill="none" xmlns="http://www.w3.org/2000/svg">
<path fill-rule="evenodd" clip-rule="evenodd" d="M14.6293 5.42478C14.6293 7.41763 13.0138 9.03315 11.021 9.03315C9.02812 9.03315 7.4126 7.41763 7.4126 5.42478C7.4126 3.43193 9.02812 1.81641 11.021 1.81641C13.0138 1.81641 14.6293 3.43193 14.6293 5.42478Z" stroke="white" stroke-width="3" stroke-linecap="round" stroke-linejoin="round"/>
<path fill-rule="evenodd" clip-rule="evenodd" d="M20.0419 20.7604C20.0419 24.2479 16.0023 27.0751 11.0209 27.0751C6.03957 27.0751 2 24.2479 2 20.7604C2 17.2729 6.03957 14.4458 11.0209 14.4458C16.0023 14.4458 20.0419 17.2729 20.0419 20.7604Z" stroke="white" stroke-width="3" stroke-linecap="round" stroke-linejoin="round"/>
<path d="M28.7588 1.81641C28.7588 0.987979 28.0872 0.316406 27.2588 0.316406C26.4303 0.316406 25.7588 0.987979 25.7588 1.81641H28.7588ZM25.7588 5.42478C25.7588 6.25321 26.4303 6.92478 27.2588 6.92478C28.0872 6.92478 28.7588 6.25321 28.7588 5.42478H25.7588ZM28.7588 5.42479C28.7588 4.59637 28.0872 3.92479 27.2588 3.92479C26.4303 3.92479 25.7588 4.59637 25.7588 5.42479H28.7588ZM25.7588 9.03317C25.7588 9.8616 26.4303 10.5332 27.2588 10.5332C28.0872 10.5332 28.7588 9.8616 28.7588 9.03317H25.7588ZM27.2588 6.92479C28.0872 6.92479 28.7588 6.25322 28.7588 5.42479C28.7588 4.59636 28.0872 3.92479 27.2588 3.92479V6.92479ZM23.6504 3.92479C22.822 3.92479 22.1504 4.59636 22.1504 5.42479C22.1504 6.25322 22.822 6.92479 23.6504 6.92479V3.92479ZM27.2588 3.92479C26.4304 3.92479 25.7588 4.59636 25.7588 5.42479C25.7588 6.25322 26.4304 6.92479 27.2588 6.92479V3.92479ZM30.8672 6.92479C31.6956 6.92479 32.3672 6.25322 32.3672 5.42479C32.3672 4.59636 31.6956 3.92479 30.8672 3.92479V6.92479ZM25.7588 1.81641V5.42478H28.7588V1.81641H25.7588ZM25.7588 5.42479V9.03317H28.7588V5.42479H25.7588ZM27.2588 3.92479H23.6504V6.92479H27.2588V3.92479ZM27.2588 6.92479H30.8672V3.92479H27.2588V6.92479Z" fill="white"/>
</svg>
