<svg width="1388" height="676" viewBox="0 0 1388 676" fill="none" xmlns="http://www.w3.org/2000/svg">
<path d="M848.68 107.96C845.779 107.96 843.016 107.448 840.392 106.424C837.768 105.379 835.443 103.843 833.416 101.816C831.411 99.7893 829.821 97.2827 828.648 94.296C827.496 91.3093 826.92 87.864 826.92 83.96C826.92 78.8613 827.891 74.5307 829.832 70.968C831.795 67.384 834.419 64.6533 837.704 62.776C841.011 60.8987 844.669 59.96 848.68 59.96C854.611 59.96 859.272 61.336 862.664 64.088C866.056 66.84 868.328 70.7333 869.48 75.768L860.584 77.048C859.752 74.36 858.387 72.216 856.488 70.616C854.611 68.9947 852.2 68.1733 849.256 68.152C846.333 68.1093 843.901 68.7387 841.96 70.04C840.019 71.3413 838.557 73.1867 837.576 75.576C836.616 77.9653 836.136 80.76 836.136 83.96C836.136 87.16 836.616 89.9333 837.576 92.28C838.557 94.6267 840.019 96.4507 841.96 97.752C843.901 99.0533 846.333 99.7253 849.256 99.768C851.24 99.8107 853.032 99.4693 854.632 98.744C856.253 98.0187 857.619 96.8773 858.728 95.32C859.837 93.7627 860.627 91.768 861.096 89.336H853.8V82.616H870.376C870.419 82.8933 870.451 83.384 870.472 84.088C870.493 84.792 870.504 85.1973 870.504 85.304C870.504 89.72 869.608 93.6347 867.816 97.048C866.024 100.461 863.496 103.139 860.232 105.08C856.968 107 853.117 107.96 848.68 107.96ZM892.982 107.96C889.44 107.96 886.315 107.203 883.606 105.688C880.918 104.152 878.806 102.051 877.27 99.384C875.755 96.696 874.998 93.624 874.998 90.168C874.998 86.392 875.744 83.1067 877.238 80.312C878.731 77.5173 880.79 75.352 883.414 73.816C886.038 72.2587 889.056 71.48 892.47 71.48C896.096 71.48 899.179 72.3333 901.718 74.04C904.256 75.7467 906.134 78.1467 907.35 81.24C908.566 84.3333 908.992 87.9707 908.63 92.152H900.022V88.952C900.022 85.432 899.456 82.904 898.326 81.368C897.216 79.8107 895.392 79.032 892.854 79.032C889.888 79.032 887.702 79.9387 886.294 81.752C884.907 83.544 884.214 86.2 884.214 89.72C884.214 92.9413 884.907 95.4373 886.294 97.208C887.702 98.9573 889.76 99.832 892.47 99.832C894.176 99.832 895.638 99.4587 896.854 98.712C898.07 97.9653 898.998 96.888 899.638 95.48L908.342 97.976C907.04 101.133 904.982 103.587 902.166 105.336C899.371 107.085 896.31 107.96 892.982 107.96ZM881.526 92.152V85.688H904.438V92.152H881.526ZM936.591 107C934.202 107.448 931.855 107.64 929.551 107.576C927.268 107.533 925.22 107.139 923.407 106.392C921.615 105.624 920.25 104.397 919.311 102.712C918.458 101.133 918.01 99.5333 917.967 97.912C917.924 96.2693 917.903 94.4133 917.903 92.344V62.84H926.607V91.832C926.607 93.176 926.618 94.392 926.639 95.48C926.682 96.5467 926.906 97.4 927.311 98.04C928.079 99.256 929.306 99.9173 930.991 100.024C932.676 100.131 934.543 100.045 936.591 99.768V107ZM912.015 79.16V72.44H936.591V79.16H912.015ZM976.881 107.96C972.273 107.96 968.294 106.957 964.945 104.952C961.617 102.947 959.046 100.141 957.233 96.536C955.441 92.9307 954.545 88.7387 954.545 83.96C954.545 79.1813 955.441 74.9893 957.233 71.384C959.046 67.7787 961.617 64.9733 964.945 62.968C968.294 60.9627 972.273 59.96 976.881 59.96C981.489 59.96 985.457 60.9627 988.785 62.968C992.134 64.9733 994.705 67.7787 996.497 71.384C998.31 74.9893 999.217 79.1813 999.217 83.96C999.217 88.7387 998.31 92.9307 996.497 96.536C994.705 100.141 992.134 102.947 988.785 104.952C985.457 106.957 981.489 107.96 976.881 107.96ZM976.881 99.768C979.804 99.8107 982.236 99.1813 984.177 97.88C986.118 96.5787 987.569 94.7333 988.529 92.344C989.51 89.9547 990.001 87.16 990.001 83.96C990.001 80.76 989.51 77.9867 988.529 75.64C987.569 73.2933 986.118 71.4693 984.177 70.168C982.236 68.8667 979.804 68.1947 976.881 68.152C973.958 68.1093 971.526 68.7387 969.585 70.04C967.644 71.3413 966.182 73.1867 965.201 75.576C964.241 77.9653 963.761 80.76 963.761 83.96C963.761 87.16 964.241 89.9333 965.201 92.28C966.182 94.6267 967.644 96.4507 969.585 97.752C971.526 99.0533 973.958 99.7253 976.881 99.768ZM1018.47 108.024C1015.76 108.024 1013.55 107.565 1011.85 106.648C1010.14 105.731 1008.81 104.568 1007.85 103.16C1006.91 101.752 1006.23 100.291 1005.83 98.776C1005.42 97.24 1005.18 95.8427 1005.09 94.584C1005.01 93.3253 1004.97 92.408 1004.97 91.832V72.44H1013.8V88.76C1013.8 89.5493 1013.84 90.5627 1013.93 91.8C1014.01 93.016 1014.28 94.2427 1014.73 95.48C1015.17 96.7173 1015.9 97.752 1016.9 98.584C1017.93 99.416 1019.37 99.832 1021.22 99.832C1021.97 99.832 1022.77 99.7147 1023.62 99.48C1024.47 99.2453 1025.27 98.7973 1026.02 98.136C1026.77 97.4533 1027.38 96.4613 1027.85 95.16C1028.34 93.8373 1028.58 92.1093 1028.58 89.976L1033.57 92.344C1033.57 95.0747 1033.02 97.6347 1031.91 100.024C1030.8 102.413 1029.13 104.344 1026.89 105.816C1024.67 107.288 1021.86 108.024 1018.47 108.024ZM1029.67 107V95.544H1028.58V72.44H1037.35V107H1029.67ZM1046.29 107V72.44H1053.97V80.888L1053.14 79.8C1053.59 78.6053 1054.19 77.5173 1054.93 76.536C1055.68 75.5547 1056.6 74.744 1057.68 74.104C1058.52 73.592 1059.42 73.1973 1060.4 72.92C1061.39 72.6213 1062.4 72.44 1063.44 72.376C1064.49 72.2907 1065.54 72.312 1066.58 72.44V80.568C1065.62 80.2693 1064.5 80.1733 1063.22 80.28C1061.96 80.3653 1060.82 80.6533 1059.8 81.144C1058.77 81.6133 1057.91 82.2427 1057.2 83.032C1056.5 83.8 1055.97 84.7173 1055.6 85.784C1055.24 86.8293 1055.06 88.0133 1055.06 89.336V107H1046.29ZM1082.28 107L1096.36 60.92H1109.35L1123.43 107H1114.47L1101.93 66.36H1103.59L1091.24 107H1082.28ZM1090.73 97.4V89.272H1115.05V97.4H1090.73ZM1146.13 107.96C1142.69 107.96 1139.82 107.16 1137.52 105.56C1135.22 103.96 1133.48 101.784 1132.3 99.032C1131.15 96.28 1130.58 93.176 1130.58 89.72C1130.58 86.264 1131.15 83.16 1132.3 80.408C1133.46 77.656 1135.15 75.48 1137.39 73.88C1139.63 72.28 1142.39 71.48 1145.68 71.48C1148.99 71.48 1151.87 72.2693 1154.32 73.848C1156.77 75.4267 1158.67 77.592 1160.02 80.344C1161.38 83.0747 1162.06 86.2 1162.06 89.72C1162.06 93.176 1161.39 96.28 1160.05 99.032C1158.72 101.784 1156.87 103.96 1154.48 105.56C1152.09 107.16 1149.31 107.96 1146.13 107.96ZM1129.1 122.36V72.44H1136.78V96.12H1137.87V122.36H1129.1ZM1144.72 100.216C1146.6 100.216 1148.13 99.7467 1149.33 98.808C1150.52 97.8693 1151.41 96.6107 1151.98 95.032C1152.56 93.432 1152.85 91.6613 1152.85 89.72C1152.85 87.8 1152.55 86.0507 1151.95 84.472C1151.35 82.872 1150.43 81.6027 1149.17 80.664C1147.93 79.704 1146.34 79.224 1144.4 79.224C1142.59 79.224 1141.11 79.6613 1139.98 80.536C1138.87 81.4107 1138.06 82.6373 1137.55 84.216C1137.04 85.7947 1136.78 87.6293 1136.78 89.72C1136.78 91.8107 1137.04 93.6453 1137.55 95.224C1138.06 96.8027 1138.9 98.0293 1140.05 98.904C1141.22 99.7787 1142.78 100.216 1144.72 100.216ZM1186.07 107.96C1182.63 107.96 1179.76 107.16 1177.46 105.56C1175.15 103.96 1173.41 101.784 1172.24 99.032C1171.09 96.28 1170.51 93.176 1170.51 89.72C1170.51 86.264 1171.09 83.16 1172.24 80.408C1173.39 77.656 1175.09 75.48 1177.33 73.88C1179.57 72.28 1182.33 71.48 1185.62 71.48C1188.92 71.48 1191.8 72.2693 1194.26 73.848C1196.71 75.4267 1198.61 77.592 1199.95 80.344C1201.32 83.0747 1202 86.2 1202 89.72C1202 93.176 1201.33 96.28 1199.99 99.032C1198.66 101.784 1196.81 103.96 1194.42 105.56C1192.03 107.16 1189.24 107.96 1186.07 107.96ZM1169.04 122.36V72.44H1176.72V96.12H1177.81V122.36H1169.04ZM1184.66 100.216C1186.53 100.216 1188.07 99.7467 1189.27 98.808C1190.46 97.8693 1191.35 96.6107 1191.92 95.032C1192.5 93.432 1192.79 91.6613 1192.79 89.72C1192.79 87.8 1192.49 86.0507 1191.89 84.472C1191.29 82.872 1190.36 81.6027 1189.11 80.664C1187.87 79.704 1186.28 79.224 1184.34 79.224C1182.52 79.224 1181.05 79.6613 1179.92 80.536C1178.81 81.4107 1178 82.6373 1177.49 84.216C1176.98 85.7947 1176.72 87.6293 1176.72 89.72C1176.72 91.8107 1176.98 93.6453 1177.49 95.224C1178 96.8027 1178.83 98.0293 1179.99 98.904C1181.16 99.7787 1182.72 100.216 1184.66 100.216Z" fill="white"/>
<path d="M0 24C0 10.7452 10.7452 0 24 0H1364C1377.25 0 1388 10.7452 1388 24V652C1388 665.255 1377.25 676 1364 676H24C10.7452 676 0 665.255 0 652V24Z" fill="#0B63E5"/>
</svg>
