<svg width="162" height="157" viewBox="0 0 162 157" fill="none" xmlns="http://www.w3.org/2000/svg">
<path d="M162 0H0V156.827H162V0Z" fill="white"/>
<path d="M15.0129 9.80164H10.125V14.5335H15.0129V9.80164Z" fill="black"/>
<path d="M19.9009 9.80164H15.0129V14.5335H19.9009V9.80164Z" fill="black"/>
<path d="M24.7888 9.80164H19.9009V14.5335H24.7888V9.80164Z" fill="black"/>
<path d="M29.6767 9.80164H24.7888V14.5335H29.6767V9.80164Z" fill="black"/>
<path d="M34.5647 9.80164H29.6767V14.5335H34.5647V9.80164Z" fill="black"/>
<path d="M39.4526 9.80164H34.5647V14.5335H39.4526V9.80164Z" fill="black"/>
<path d="M44.3405 9.80164H39.4526V14.5335H44.3405V9.80164Z" fill="black"/>
<path d="M54.1164 9.80164H49.2285V14.5335H54.1164V9.80164Z" fill="black"/>
<path d="M63.8922 9.80164H59.0043V14.5335H63.8922V9.80164Z" fill="black"/>
<path d="M88.3319 9.80164H83.444V14.5335H88.3319V9.80164Z" fill="black"/>
<path d="M93.2198 9.80164H88.3319V14.5335H93.2198V9.80164Z" fill="black"/>
<path d="M102.996 9.80164H98.1078V14.5335H102.996V9.80164Z" fill="black"/>
<path d="M112.772 9.80164H107.884V14.5335H112.772V9.80164Z" fill="black"/>
<path d="M122.547 9.80164H117.659V14.5335H122.547V9.80164Z" fill="black"/>
<path d="M127.435 9.80164H122.547V14.5335H127.435V9.80164Z" fill="black"/>
<path d="M132.323 9.80164H127.435V14.5335H132.323V9.80164Z" fill="black"/>
<path d="M137.211 9.80164H132.323V14.5335H137.211V9.80164Z" fill="black"/>
<path d="M142.099 9.80164H137.211V14.5335H142.099V9.80164Z" fill="black"/>
<path d="M146.987 9.80164H142.099V14.5335H146.987V9.80164Z" fill="black"/>
<path d="M151.875 9.80164H146.987V14.5335H151.875V9.80164Z" fill="black"/>
<path d="M15.0129 14.5335H10.125V19.2653H15.0129V14.5335Z" fill="black"/>
<path d="M44.3405 14.5335H39.4526V19.2653H44.3405V14.5335Z" fill="black"/>
<path d="M59.0043 14.5335H54.1164V19.2653H59.0043V14.5335Z" fill="black"/>
<path d="M63.8922 14.5335H59.0043V19.2653H63.8922V14.5335Z" fill="black"/>
<path d="M68.7802 14.5335H63.8922V19.2653H68.7802V14.5335Z" fill="black"/>
<path d="M73.6681 14.5335H68.7802V19.2653H73.6681V14.5335Z" fill="black"/>
<path d="M83.444 14.5335H78.556V19.2653H83.444V14.5335Z" fill="black"/>
<path d="M88.3319 14.5335H83.444V19.2653H88.3319V14.5335Z" fill="black"/>
<path d="M122.547 14.5335H117.659V19.2653H122.547V14.5335Z" fill="black"/>
<path d="M151.875 14.5335H146.987V19.2653H151.875V14.5335Z" fill="black"/>
<path d="M15.0129 19.2653H10.125V23.9972H15.0129V19.2653Z" fill="black"/>
<path d="M24.7888 19.2653H19.9009V23.9972H24.7888V19.2653Z" fill="black"/>
<path d="M29.6767 19.2653H24.7888V23.9972H29.6767V19.2653Z" fill="black"/>
<path d="M34.5647 19.2653H29.6767V23.9972H34.5647V19.2653Z" fill="black"/>
<path d="M44.3405 19.2653H39.4526V23.9972H44.3405V19.2653Z" fill="black"/>
<path d="M63.8922 19.2653H59.0043V23.9972H63.8922V19.2653Z" fill="black"/>
<path d="M68.7802 19.2653H63.8922V23.9972H68.7802V19.2653Z" fill="black"/>
<path d="M73.6681 19.2653H68.7802V23.9972H73.6681V19.2653Z" fill="black"/>
<path d="M78.556 19.2653H73.6681V23.9972H78.556V19.2653Z" fill="black"/>
<path d="M88.3319 19.2653H83.444V23.9972H88.3319V19.2653Z" fill="black"/>
<path d="M93.2198 19.2653H88.3319V23.9972H93.2198V19.2653Z" fill="black"/>
<path d="M107.884 19.2653H102.996V23.9972H107.884V19.2653Z" fill="black"/>
<path d="M112.772 19.2653H107.884V23.9972H112.772V19.2653Z" fill="black"/>
<path d="M122.547 19.2653H117.659V23.9972H122.547V19.2653Z" fill="black"/>
<path d="M132.323 19.2653H127.435V23.9972H132.323V19.2653Z" fill="black"/>
<path d="M137.211 19.2653H132.323V23.9972H137.211V19.2653Z" fill="black"/>
<path d="M142.099 19.2653H137.211V23.9972H142.099V19.2653Z" fill="black"/>
<path d="M151.875 19.2653H146.987V23.9972H151.875V19.2653Z" fill="black"/>
<path d="M15.0129 23.9972H10.125V28.729H15.0129V23.9972Z" fill="black"/>
<path d="M24.7888 23.9972H19.9009V28.729H24.7888V23.9972Z" fill="black"/>
<path d="M29.6767 23.9972H24.7888V28.729H29.6767V23.9972Z" fill="black"/>
<path d="M34.5647 23.9972H29.6767V28.729H34.5647V23.9972Z" fill="black"/>
<path d="M44.3405 23.9972H39.4526V28.729H44.3405V23.9972Z" fill="black"/>
<path d="M54.1164 23.9972H49.2285V28.729H54.1164V23.9972Z" fill="black"/>
<path d="M59.0043 23.9972H54.1164V28.729H59.0043V23.9972Z" fill="black"/>
<path d="M63.8922 23.9972H59.0043V28.729H63.8922V23.9972Z" fill="black"/>
<path d="M68.7802 23.9972H63.8922V28.729H68.7802V23.9972Z" fill="black"/>
<path d="M78.556 23.9972H73.6681V28.729H78.556V23.9972Z" fill="black"/>
<path d="M93.2198 23.9972H88.3319V28.729H93.2198V23.9972Z" fill="black"/>
<path d="M107.884 23.9972H102.996V28.729H107.884V23.9972Z" fill="black"/>
<path d="M122.547 23.9972H117.659V28.729H122.547V23.9972Z" fill="black"/>
<path d="M132.323 23.9972H127.435V28.729H132.323V23.9972Z" fill="black"/>
<path d="M137.211 23.9972H132.323V28.729H137.211V23.9972Z" fill="black"/>
<path d="M142.099 23.9972H137.211V28.729H142.099V23.9972Z" fill="black"/>
<path d="M151.875 23.9972H146.987V28.729H151.875V23.9972Z" fill="black"/>
<path d="M15.0129 28.729H10.125V33.4608H15.0129V28.729Z" fill="black"/>
<path d="M24.7888 28.729H19.9009V33.4608H24.7888V28.729Z" fill="black"/>
<path d="M29.6767 28.729H24.7888V33.4608H29.6767V28.729Z" fill="black"/>
<path d="M34.5647 28.729H29.6767V33.4608H34.5647V28.729Z" fill="black"/>
<path d="M44.3405 28.729H39.4526V33.4608H44.3405V28.729Z" fill="black"/>
<path d="M78.556 28.729H73.6681V33.4608H78.556V28.729Z" fill="black"/>
<path d="M83.444 28.729H78.556V33.4608H83.444V28.729Z" fill="black"/>
<path d="M88.3319 28.729H83.444V33.4608H88.3319V28.729Z" fill="black"/>
<path d="M98.1078 28.729H93.2198V33.4608H98.1078V28.729Z" fill="black"/>
<path d="M122.547 28.729H117.659V33.4608H122.547V28.729Z" fill="black"/>
<path d="M132.323 28.729H127.435V33.4608H132.323V28.729Z" fill="black"/>
<path d="M137.211 28.729H132.323V33.4608H137.211V28.729Z" fill="black"/>
<path d="M142.099 28.729H137.211V33.4608H142.099V28.729Z" fill="black"/>
<path d="M151.875 28.729H146.987V33.4608H151.875V28.729Z" fill="black"/>
<path d="M15.0129 33.4608H10.125V38.1927H15.0129V33.4608Z" fill="black"/>
<path d="M44.3405 33.4608H39.4526V38.1927H44.3405V33.4608Z" fill="black"/>
<path d="M54.1164 33.4608H49.2285V38.1927H54.1164V33.4608Z" fill="black"/>
<path d="M59.0043 33.4608H54.1164V38.1927H59.0043V33.4608Z" fill="black"/>
<path d="M63.8922 33.4608H59.0043V38.1927H63.8922V33.4608Z" fill="black"/>
<path d="M68.7802 33.4608H63.8922V38.1927H68.7802V33.4608Z" fill="black"/>
<path d="M73.6681 33.4608H68.7802V38.1927H73.6681V33.4608Z" fill="black"/>
<path d="M78.556 33.4608H73.6681V38.1927H78.556V33.4608Z" fill="black"/>
<path d="M88.3319 33.4608H83.444V38.1927H88.3319V33.4608Z" fill="black"/>
<path d="M93.2198 33.4608H88.3319V38.1927H93.2198V33.4608Z" fill="black"/>
<path d="M122.547 33.4608H117.659V38.1927H122.547V33.4608Z" fill="black"/>
<path d="M151.875 33.4608H146.987V38.1927H151.875V33.4608Z" fill="black"/>
<path d="M15.0129 38.1927H10.125V42.9245H15.0129V38.1927Z" fill="black"/>
<path d="M19.9009 38.1927H15.0129V42.9245H19.9009V38.1927Z" fill="black"/>
<path d="M24.7888 38.1927H19.9009V42.9245H24.7888V38.1927Z" fill="black"/>
<path d="M29.6767 38.1927H24.7888V42.9245H29.6767V38.1927Z" fill="black"/>
<path d="M34.5647 38.1927H29.6767V42.9245H34.5647V38.1927Z" fill="black"/>
<path d="M39.4526 38.1927H34.5647V42.9245H39.4526V38.1927Z" fill="black"/>
<path d="M44.3405 38.1927H39.4526V42.9245H44.3405V38.1927Z" fill="black"/>
<path d="M54.1164 38.1927H49.2285V42.9245H54.1164V38.1927Z" fill="black"/>
<path d="M63.8922 38.1927H59.0043V42.9245H63.8922V38.1927Z" fill="black"/>
<path d="M73.6681 38.1927H68.7802V42.9245H73.6681V38.1927Z" fill="black"/>
<path d="M83.444 38.1927H78.556V42.9245H83.444V38.1927Z" fill="black"/>
<path d="M93.2198 38.1927H88.3319V42.9245H93.2198V38.1927Z" fill="black"/>
<path d="M102.996 38.1927H98.1078V42.9245H102.996V38.1927Z" fill="black"/>
<path d="M112.772 38.1927H107.884V42.9245H112.772V38.1927Z" fill="black"/>
<path d="M122.547 38.1927H117.659V42.9245H122.547V38.1927Z" fill="black"/>
<path d="M127.435 38.1927H122.547V42.9245H127.435V38.1927Z" fill="black"/>
<path d="M132.323 38.1927H127.435V42.9245H132.323V38.1927Z" fill="black"/>
<path d="M137.211 38.1927H132.323V42.9245H137.211V38.1927Z" fill="black"/>
<path d="M142.099 38.1927H137.211V42.9245H142.099V38.1927Z" fill="black"/>
<path d="M146.987 38.1927H142.099V42.9245H146.987V38.1927Z" fill="black"/>
<path d="M151.875 38.1927H146.987V42.9245H151.875V38.1927Z" fill="black"/>
<path d="M59.0043 42.9245H54.1164V47.6563H59.0043V42.9245Z" fill="black"/>
<path d="M83.444 42.9245H78.556V47.6563H83.444V42.9245Z" fill="black"/>
<path d="M98.1078 42.9245H93.2198V47.6563H98.1078V42.9245Z" fill="black"/>
<path d="M102.996 42.9245H98.1078V47.6563H102.996V42.9245Z" fill="black"/>
<path d="M107.884 42.9245H102.996V47.6563H107.884V42.9245Z" fill="black"/>
<path d="M112.772 42.9245H107.884V47.6563H112.772V42.9245Z" fill="black"/>
<path d="M39.4526 47.6563H34.5647V52.3882H39.4526V47.6563Z" fill="black"/>
<path d="M44.3405 47.6563H39.4526V52.3882H44.3405V47.6563Z" fill="black"/>
<path d="M54.1164 47.6563H49.2285V52.3882H54.1164V47.6563Z" fill="black"/>
<path d="M59.0043 47.6563H54.1164V52.3882H59.0043V47.6563Z" fill="black"/>
<path d="M68.7802 47.6563H63.8922V52.3882H68.7802V47.6563Z" fill="black"/>
<path d="M73.6681 47.6563H68.7802V52.3882H73.6681V47.6563Z" fill="black"/>
<path d="M83.444 47.6563H78.556V52.3882H83.444V47.6563Z" fill="black"/>
<path d="M88.3319 47.6563H83.444V52.3882H88.3319V47.6563Z" fill="black"/>
<path d="M93.2198 47.6563H88.3319V52.3882H93.2198V47.6563Z" fill="black"/>
<path d="M98.1078 47.6563H93.2198V52.3882H98.1078V47.6563Z" fill="black"/>
<path d="M117.659 47.6563H112.772V52.3882H117.659V47.6563Z" fill="black"/>
<path d="M127.435 47.6563H122.547V52.3882H127.435V47.6563Z" fill="black"/>
<path d="M137.211 47.6563H132.323V52.3882H137.211V47.6563Z" fill="black"/>
<path d="M151.875 47.6563H146.987V52.3882H151.875V47.6563Z" fill="black"/>
<path d="M15.0129 52.3882H10.125V57.12H15.0129V52.3882Z" fill="black"/>
<path d="M29.6767 52.3882H24.7888V57.12H29.6767V52.3882Z" fill="black"/>
<path d="M49.2285 52.3882H44.3405V57.12H49.2285V52.3882Z" fill="black"/>
<path d="M54.1164 52.3882H49.2285V57.12H54.1164V52.3882Z" fill="black"/>
<path d="M59.0043 52.3882H54.1164V57.12H59.0043V52.3882Z" fill="black"/>
<path d="M88.3319 52.3882H83.444V57.12H88.3319V52.3882Z" fill="black"/>
<path d="M98.1078 52.3882H93.2198V57.12H98.1078V52.3882Z" fill="black"/>
<path d="M107.884 52.3882H102.996V57.12H107.884V52.3882Z" fill="black"/>
<path d="M117.659 52.3882H112.772V57.12H117.659V52.3882Z" fill="black"/>
<path d="M15.0129 57.12H10.125V61.8519H15.0129V57.12Z" fill="black"/>
<path d="M29.6767 57.12H24.7888V61.8519H29.6767V57.12Z" fill="black"/>
<path d="M34.5647 57.12H29.6767V61.8519H34.5647V57.12Z" fill="black"/>
<path d="M44.3405 57.12H39.4526V61.8519H44.3405V57.12Z" fill="black"/>
<path d="M49.2285 57.12H44.3405V61.8519H49.2285V57.12Z" fill="black"/>
<path d="M54.1164 57.12H49.2285V61.8519H54.1164V57.12Z" fill="black"/>
<path d="M63.8922 57.12H59.0043V61.8519H63.8922V57.12Z" fill="black"/>
<path d="M73.6681 57.12H68.7802V61.8519H73.6681V57.12Z" fill="black"/>
<path d="M88.3319 57.12H83.444V61.8519H88.3319V57.12Z" fill="black"/>
<path d="M102.996 57.12H98.1078V61.8519H102.996V57.12Z" fill="black"/>
<path d="M112.772 57.12H107.884V61.8519H112.772V57.12Z" fill="black"/>
<path d="M122.547 57.12H117.659V61.8519H122.547V57.12Z" fill="black"/>
<path d="M132.323 57.12H127.435V61.8519H132.323V57.12Z" fill="black"/>
<path d="M142.099 57.12H137.211V61.8519H142.099V57.12Z" fill="black"/>
<path d="M151.875 57.12H146.987V61.8519H151.875V57.12Z" fill="black"/>
<path d="M39.4526 61.8519H34.5647V66.5837H39.4526V61.8519Z" fill="black"/>
<path d="M63.8922 61.8519H59.0043V66.5837H63.8922V61.8519Z" fill="black"/>
<path d="M78.556 61.8519H73.6681V66.5837H78.556V61.8519Z" fill="black"/>
<path d="M83.444 61.8519H78.556V66.5837H83.444V61.8519Z" fill="black"/>
<path d="M93.2198 61.8519H88.3319V66.5837H93.2198V61.8519Z" fill="black"/>
<path d="M102.996 61.8519H98.1078V66.5837H102.996V61.8519Z" fill="black"/>
<path d="M107.884 61.8519H102.996V66.5837H107.884V61.8519Z" fill="black"/>
<path d="M112.772 61.8519H107.884V66.5837H112.772V61.8519Z" fill="black"/>
<path d="M117.659 61.8519H112.772V66.5837H117.659V61.8519Z" fill="black"/>
<path d="M127.435 61.8519H122.547V66.5837H127.435V61.8519Z" fill="black"/>
<path d="M132.323 61.8519H127.435V66.5837H132.323V61.8519Z" fill="black"/>
<path d="M24.7888 66.5837H19.9009V71.3155H24.7888V66.5837Z" fill="black"/>
<path d="M44.3405 66.5837H39.4526V71.3155H44.3405V66.5837Z" fill="black"/>
<path d="M54.1164 66.5837H49.2285V71.3155H54.1164V66.5837Z" fill="black"/>
<path d="M59.0043 66.5837H54.1164V71.3155H59.0043V66.5837Z" fill="black"/>
<path d="M63.8922 66.5837H59.0043V71.3155H63.8922V66.5837Z" fill="black"/>
<path d="M68.7802 66.5837H63.8922V71.3155H68.7802V66.5837Z" fill="black"/>
<path d="M73.6681 66.5837H68.7802V71.3155H73.6681V66.5837Z" fill="black"/>
<path d="M83.444 66.5837H78.556V71.3155H83.444V66.5837Z" fill="black"/>
<path d="M88.3319 66.5837H83.444V71.3155H88.3319V66.5837Z" fill="black"/>
<path d="M102.996 66.5837H98.1078V71.3155H102.996V66.5837Z" fill="black"/>
<path d="M107.884 66.5837H102.996V71.3155H107.884V66.5837Z" fill="black"/>
<path d="M122.547 66.5837H117.659V71.3155H122.547V66.5837Z" fill="black"/>
<path d="M132.323 66.5837H127.435V71.3155H132.323V66.5837Z" fill="black"/>
<path d="M142.099 66.5837H137.211V71.3155H142.099V66.5837Z" fill="black"/>
<path d="M151.875 66.5837H146.987V71.3155H151.875V66.5837Z" fill="black"/>
<path d="M15.0129 71.3155H10.125V76.0474H15.0129V71.3155Z" fill="black"/>
<path d="M19.9009 71.3155H15.0129V76.0474H19.9009V71.3155Z" fill="black"/>
<path d="M24.7888 71.3155H19.9009V76.0474H24.7888V71.3155Z" fill="black"/>
<path d="M29.6767 71.3155H24.7888V76.0474H29.6767V71.3155Z" fill="black"/>
<path d="M34.5647 71.3155H29.6767V76.0474H34.5647V71.3155Z" fill="black"/>
<path d="M39.4526 71.3155H34.5647V76.0474H39.4526V71.3155Z" fill="black"/>
<path d="M88.3319 71.3155H83.444V76.0474H88.3319V71.3155Z" fill="black"/>
<path d="M93.2198 71.3155H88.3319V76.0474H93.2198V71.3155Z" fill="black"/>
<path d="M102.996 71.3155H98.1078V76.0474H102.996V71.3155Z" fill="black"/>
<path d="M107.884 71.3155H102.996V76.0474H107.884V71.3155Z" fill="black"/>
<path d="M117.659 71.3155H112.772V76.0474H117.659V71.3155Z" fill="black"/>
<path d="M122.547 71.3155H117.659V76.0474H122.547V71.3155Z" fill="black"/>
<path d="M127.435 71.3155H122.547V76.0474H127.435V71.3155Z" fill="black"/>
<path d="M146.987 71.3155H142.099V76.0474H146.987V71.3155Z" fill="black"/>
<path d="M151.875 71.3155H146.987V76.0474H151.875V71.3155Z" fill="black"/>
<path d="M19.9009 76.0474H15.0129V80.7792H19.9009V76.0474Z" fill="black"/>
<path d="M29.6767 76.0474H24.7888V80.7792H29.6767V76.0474Z" fill="black"/>
<path d="M34.5647 76.0474H29.6767V80.7792H34.5647V76.0474Z" fill="black"/>
<path d="M39.4526 76.0474H34.5647V80.7792H39.4526V76.0474Z" fill="black"/>
<path d="M44.3405 76.0474H39.4526V80.7792H44.3405V76.0474Z" fill="black"/>
<path d="M49.2285 76.0474H44.3405V80.7792H49.2285V76.0474Z" fill="black"/>
<path d="M59.0043 76.0474H54.1164V80.7792H59.0043V76.0474Z" fill="black"/>
<path d="M68.7802 76.0474H63.8922V80.7792H68.7802V76.0474Z" fill="black"/>
<path d="M88.3319 76.0474H83.444V80.7792H88.3319V76.0474Z" fill="black"/>
<path d="M93.2198 76.0474H88.3319V80.7792H93.2198V76.0474Z" fill="black"/>
<path d="M112.772 76.0474H107.884V80.7792H112.772V76.0474Z" fill="black"/>
<path d="M122.547 76.0474H117.659V80.7792H122.547V76.0474Z" fill="black"/>
<path d="M132.323 76.0474H127.435V80.7792H132.323V76.0474Z" fill="black"/>
<path d="M137.211 76.0474H132.323V80.7792H137.211V76.0474Z" fill="black"/>
<path d="M151.875 76.0474H146.987V80.7792H151.875V76.0474Z" fill="black"/>
<path d="M19.9009 80.7792H15.0129V85.5111H19.9009V80.7792Z" fill="black"/>
<path d="M29.6767 80.7792H24.7888V85.5111H29.6767V80.7792Z" fill="black"/>
<path d="M54.1164 80.7792H49.2285V85.5111H54.1164V80.7792Z" fill="black"/>
<path d="M59.0043 80.7792H54.1164V85.5111H59.0043V80.7792Z" fill="black"/>
<path d="M68.7802 80.7792H63.8922V85.5111H68.7802V80.7792Z" fill="black"/>
<path d="M78.556 80.7792H73.6681V85.5111H78.556V80.7792Z" fill="black"/>
<path d="M83.444 80.7792H78.556V85.5111H83.444V80.7792Z" fill="black"/>
<path d="M93.2198 80.7792H88.3319V85.5111H93.2198V80.7792Z" fill="black"/>
<path d="M98.1078 80.7792H93.2198V85.5111H98.1078V80.7792Z" fill="black"/>
<path d="M107.884 80.7792H102.996V85.5111H107.884V80.7792Z" fill="black"/>
<path d="M117.659 80.7792H112.772V85.5111H117.659V80.7792Z" fill="black"/>
<path d="M122.547 80.7792H117.659V85.5111H122.547V80.7792Z" fill="black"/>
<path d="M132.323 80.7792H127.435V85.5111H132.323V80.7792Z" fill="black"/>
<path d="M137.211 80.7792H132.323V85.5111H137.211V80.7792Z" fill="black"/>
<path d="M146.987 80.7792H142.099V85.5111H146.987V80.7792Z" fill="black"/>
<path d="M15.0129 85.5111H10.125V90.2429H15.0129V85.5111Z" fill="black"/>
<path d="M24.7888 85.5111H19.9009V90.2429H24.7888V85.5111Z" fill="black"/>
<path d="M34.5647 85.5111H29.6767V90.2429H34.5647V85.5111Z" fill="black"/>
<path d="M44.3405 85.5111H39.4526V90.2429H44.3405V85.5111Z" fill="black"/>
<path d="M63.8922 85.5111H59.0043V90.2429H63.8922V85.5111Z" fill="black"/>
<path d="M73.6681 85.5111H68.7802V90.2429H73.6681V85.5111Z" fill="black"/>
<path d="M83.444 85.5111H78.556V90.2429H83.444V85.5111Z" fill="black"/>
<path d="M88.3319 85.5111H83.444V90.2429H88.3319V85.5111Z" fill="black"/>
<path d="M93.2198 85.5111H88.3319V90.2429H93.2198V85.5111Z" fill="black"/>
<path d="M107.884 85.5111H102.996V90.2429H107.884V85.5111Z" fill="black"/>
<path d="M112.772 85.5111H107.884V90.2429H112.772V85.5111Z" fill="black"/>
<path d="M117.659 85.5111H112.772V90.2429H117.659V85.5111Z" fill="black"/>
<path d="M127.435 85.5111H122.547V90.2429H127.435V85.5111Z" fill="black"/>
<path d="M137.211 85.5111H132.323V90.2429H137.211V85.5111Z" fill="black"/>
<path d="M19.9009 90.2429H15.0129V94.9747H19.9009V90.2429Z" fill="black"/>
<path d="M24.7888 90.2429H19.9009V94.9747H24.7888V90.2429Z" fill="black"/>
<path d="M49.2285 90.2429H44.3405V94.9747H49.2285V90.2429Z" fill="black"/>
<path d="M63.8922 90.2429H59.0043V94.9747H63.8922V90.2429Z" fill="black"/>
<path d="M73.6681 90.2429H68.7802V94.9747H73.6681V90.2429Z" fill="black"/>
<path d="M78.556 90.2429H73.6681V94.9747H78.556V90.2429Z" fill="black"/>
<path d="M88.3319 90.2429H83.444V94.9747H88.3319V90.2429Z" fill="black"/>
<path d="M93.2198 90.2429H88.3319V94.9747H93.2198V90.2429Z" fill="black"/>
<path d="M102.996 90.2429H98.1078V94.9747H102.996V90.2429Z" fill="black"/>
<path d="M107.884 90.2429H102.996V94.9747H107.884V90.2429Z" fill="black"/>
<path d="M122.547 90.2429H117.659V94.9747H122.547V90.2429Z" fill="black"/>
<path d="M15.0129 94.9747H10.125V99.7066H15.0129V94.9747Z" fill="black"/>
<path d="M19.9009 94.9747H15.0129V99.7066H19.9009V94.9747Z" fill="black"/>
<path d="M24.7888 94.9747H19.9009V99.7066H24.7888V94.9747Z" fill="black"/>
<path d="M29.6767 94.9747H24.7888V99.7066H29.6767V94.9747Z" fill="black"/>
<path d="M34.5647 94.9747H29.6767V99.7066H34.5647V94.9747Z" fill="black"/>
<path d="M44.3405 94.9747H39.4526V99.7066H44.3405V94.9747Z" fill="black"/>
<path d="M49.2285 94.9747H44.3405V99.7066H49.2285V94.9747Z" fill="black"/>
<path d="M54.1164 94.9747H49.2285V99.7066H54.1164V94.9747Z" fill="black"/>
<path d="M78.556 94.9747H73.6681V99.7066H78.556V94.9747Z" fill="black"/>
<path d="M88.3319 94.9747H83.444V99.7066H88.3319V94.9747Z" fill="black"/>
<path d="M98.1078 94.9747H93.2198V99.7066H98.1078V94.9747Z" fill="black"/>
<path d="M102.996 94.9747H98.1078V99.7066H102.996V94.9747Z" fill="black"/>
<path d="M107.884 94.9747H102.996V99.7066H107.884V94.9747Z" fill="black"/>
<path d="M112.772 94.9747H107.884V99.7066H112.772V94.9747Z" fill="black"/>
<path d="M127.435 94.9747H122.547V99.7066H127.435V94.9747Z" fill="black"/>
<path d="M132.323 94.9747H127.435V99.7066H132.323V94.9747Z" fill="black"/>
<path d="M15.0129 99.7066H10.125V104.438H15.0129V99.7066Z" fill="black"/>
<path d="M39.4526 99.7066H34.5647V104.438H39.4526V99.7066Z" fill="black"/>
<path d="M54.1164 99.7066H49.2285V104.438H54.1164V99.7066Z" fill="black"/>
<path d="M63.8922 99.7066H59.0043V104.438H63.8922V99.7066Z" fill="black"/>
<path d="M68.7802 99.7066H63.8922V104.438H68.7802V99.7066Z" fill="black"/>
<path d="M78.556 99.7066H73.6681V104.438H78.556V99.7066Z" fill="black"/>
<path d="M107.884 99.7066H102.996V104.438H107.884V99.7066Z" fill="black"/>
<path d="M137.211 99.7066H132.323V104.438H137.211V99.7066Z" fill="black"/>
<path d="M142.099 99.7066H137.211V104.438H142.099V99.7066Z" fill="black"/>
<path d="M146.987 99.7066H142.099V104.438H146.987V99.7066Z" fill="black"/>
<path d="M24.7888 104.438H19.9009V109.17H24.7888V104.438Z" fill="black"/>
<path d="M44.3405 104.438H39.4526V109.17H44.3405V104.438Z" fill="black"/>
<path d="M59.0043 104.438H54.1164V109.17H59.0043V104.438Z" fill="black"/>
<path d="M63.8922 104.438H59.0043V109.17H63.8922V104.438Z" fill="black"/>
<path d="M78.556 104.438H73.6681V109.17H78.556V104.438Z" fill="black"/>
<path d="M88.3319 104.438H83.444V109.17H88.3319V104.438Z" fill="black"/>
<path d="M93.2198 104.438H88.3319V109.17H93.2198V104.438Z" fill="black"/>
<path d="M98.1078 104.438H93.2198V109.17H98.1078V104.438Z" fill="black"/>
<path d="M112.772 104.438H107.884V109.17H112.772V104.438Z" fill="black"/>
<path d="M117.659 104.438H112.772V109.17H117.659V104.438Z" fill="black"/>
<path d="M122.547 104.438H117.659V109.17H122.547V104.438Z" fill="black"/>
<path d="M127.435 104.438H122.547V109.17H127.435V104.438Z" fill="black"/>
<path d="M132.323 104.438H127.435V109.17H132.323V104.438Z" fill="black"/>
<path d="M146.987 104.438H142.099V109.17H146.987V104.438Z" fill="black"/>
<path d="M151.875 104.438H146.987V109.17H151.875V104.438Z" fill="black"/>
<path d="M54.1164 109.17H49.2285V113.902H54.1164V109.17Z" fill="black"/>
<path d="M73.6681 109.17H68.7802V113.902H73.6681V109.17Z" fill="black"/>
<path d="M83.444 109.17H78.556V113.902H83.444V109.17Z" fill="black"/>
<path d="M88.3319 109.17H83.444V113.902H88.3319V109.17Z" fill="black"/>
<path d="M93.2198 109.17H88.3319V113.902H93.2198V109.17Z" fill="black"/>
<path d="M98.1078 109.17H93.2198V113.902H98.1078V109.17Z" fill="black"/>
<path d="M102.996 109.17H98.1078V113.902H102.996V109.17Z" fill="black"/>
<path d="M112.772 109.17H107.884V113.902H112.772V109.17Z" fill="black"/>
<path d="M132.323 109.17H127.435V113.902H132.323V109.17Z" fill="black"/>
<path d="M142.099 109.17H137.211V113.902H142.099V109.17Z" fill="black"/>
<path d="M146.987 109.17H142.099V113.902H146.987V109.17Z" fill="black"/>
<path d="M15.0129 113.902H10.125V118.634H15.0129V113.902Z" fill="black"/>
<path d="M19.9009 113.902H15.0129V118.634H19.9009V113.902Z" fill="black"/>
<path d="M24.7888 113.902H19.9009V118.634H24.7888V113.902Z" fill="black"/>
<path d="M29.6767 113.902H24.7888V118.634H29.6767V113.902Z" fill="black"/>
<path d="M34.5647 113.902H29.6767V118.634H34.5647V113.902Z" fill="black"/>
<path d="M39.4526 113.902H34.5647V118.634H39.4526V113.902Z" fill="black"/>
<path d="M44.3405 113.902H39.4526V118.634H44.3405V113.902Z" fill="black"/>
<path d="M59.0043 113.902H54.1164V118.634H59.0043V113.902Z" fill="black"/>
<path d="M68.7802 113.902H63.8922V118.634H68.7802V113.902Z" fill="black"/>
<path d="M73.6681 113.902H68.7802V118.634H73.6681V113.902Z" fill="black"/>
<path d="M83.444 113.902H78.556V118.634H83.444V113.902Z" fill="black"/>
<path d="M98.1078 113.902H93.2198V118.634H98.1078V113.902Z" fill="black"/>
<path d="M112.772 113.902H107.884V118.634H112.772V113.902Z" fill="black"/>
<path d="M122.547 113.902H117.659V118.634H122.547V113.902Z" fill="black"/>
<path d="M132.323 113.902H127.435V118.634H132.323V113.902Z" fill="black"/>
<path d="M137.211 113.902H132.323V118.634H137.211V113.902Z" fill="black"/>
<path d="M151.875 113.902H146.987V118.634H151.875V113.902Z" fill="black"/>
<path d="M15.0129 118.634H10.125V123.366H15.0129V118.634Z" fill="black"/>
<path d="M44.3405 118.634H39.4526V123.366H44.3405V118.634Z" fill="black"/>
<path d="M54.1164 118.634H49.2285V123.366H54.1164V118.634Z" fill="black"/>
<path d="M63.8922 118.634H59.0043V123.366H63.8922V118.634Z" fill="black"/>
<path d="M68.7802 118.634H63.8922V123.366H68.7802V118.634Z" fill="black"/>
<path d="M78.556 118.634H73.6681V123.366H78.556V118.634Z" fill="black"/>
<path d="M98.1078 118.634H93.2198V123.366H98.1078V118.634Z" fill="black"/>
<path d="M102.996 118.634H98.1078V123.366H102.996V118.634Z" fill="black"/>
<path d="M107.884 118.634H102.996V123.366H107.884V118.634Z" fill="black"/>
<path d="M112.772 118.634H107.884V123.366H112.772V118.634Z" fill="black"/>
<path d="M132.323 118.634H127.435V123.366H132.323V118.634Z" fill="black"/>
<path d="M137.211 118.634H132.323V123.366H137.211V118.634Z" fill="black"/>
<path d="M146.987 118.634H142.099V123.366H146.987V118.634Z" fill="black"/>
<path d="M15.0129 123.366H10.125V128.098H15.0129V123.366Z" fill="black"/>
<path d="M24.7888 123.366H19.9009V128.098H24.7888V123.366Z" fill="black"/>
<path d="M29.6767 123.366H24.7888V128.098H29.6767V123.366Z" fill="black"/>
<path d="M34.5647 123.366H29.6767V128.098H34.5647V123.366Z" fill="black"/>
<path d="M44.3405 123.366H39.4526V128.098H44.3405V123.366Z" fill="black"/>
<path d="M63.8922 123.366H59.0043V128.098H63.8922V123.366Z" fill="black"/>
<path d="M68.7802 123.366H63.8922V128.098H68.7802V123.366Z" fill="black"/>
<path d="M83.444 123.366H78.556V128.098H83.444V123.366Z" fill="black"/>
<path d="M88.3319 123.366H83.444V128.098H88.3319V123.366Z" fill="black"/>
<path d="M102.996 123.366H98.1078V128.098H102.996V123.366Z" fill="black"/>
<path d="M107.884 123.366H102.996V128.098H107.884V123.366Z" fill="black"/>
<path d="M112.772 123.366H107.884V128.098H112.772V123.366Z" fill="black"/>
<path d="M117.659 123.366H112.772V128.098H117.659V123.366Z" fill="black"/>
<path d="M122.547 123.366H117.659V128.098H122.547V123.366Z" fill="black"/>
<path d="M127.435 123.366H122.547V128.098H127.435V123.366Z" fill="black"/>
<path d="M132.323 123.366H127.435V128.098H132.323V123.366Z" fill="black"/>
<path d="M137.211 123.366H132.323V128.098H137.211V123.366Z" fill="black"/>
<path d="M142.099 123.366H137.211V128.098H142.099V123.366Z" fill="black"/>
<path d="M146.987 123.366H142.099V128.098H146.987V123.366Z" fill="black"/>
<path d="M151.875 123.366H146.987V128.098H151.875V123.366Z" fill="black"/>
<path d="M15.0129 128.098H10.125V132.829H15.0129V128.098Z" fill="black"/>
<path d="M24.7888 128.098H19.9009V132.829H24.7888V128.098Z" fill="black"/>
<path d="M29.6767 128.098H24.7888V132.829H29.6767V128.098Z" fill="black"/>
<path d="M34.5647 128.098H29.6767V132.829H34.5647V128.098Z" fill="black"/>
<path d="M44.3405 128.098H39.4526V132.829H44.3405V128.098Z" fill="black"/>
<path d="M59.0043 128.098H54.1164V132.829H59.0043V128.098Z" fill="black"/>
<path d="M63.8922 128.098H59.0043V132.829H63.8922V128.098Z" fill="black"/>
<path d="M68.7802 128.098H63.8922V132.829H68.7802V128.098Z" fill="black"/>
<path d="M73.6681 128.098H68.7802V132.829H73.6681V128.098Z" fill="black"/>
<path d="M88.3319 128.098H83.444V132.829H88.3319V128.098Z" fill="black"/>
<path d="M93.2198 128.098H88.3319V132.829H93.2198V128.098Z" fill="black"/>
<path d="M102.996 128.098H98.1078V132.829H102.996V128.098Z" fill="black"/>
<path d="M132.323 128.098H127.435V132.829H132.323V128.098Z" fill="black"/>
<path d="M137.211 128.098H132.323V132.829H137.211V128.098Z" fill="black"/>
<path d="M15.0129 132.829H10.125V137.561H15.0129V132.829Z" fill="black"/>
<path d="M24.7888 132.829H19.9009V137.561H24.7888V132.829Z" fill="black"/>
<path d="M29.6767 132.829H24.7888V137.561H29.6767V132.829Z" fill="black"/>
<path d="M34.5647 132.829H29.6767V137.561H34.5647V132.829Z" fill="black"/>
<path d="M44.3405 132.829H39.4526V137.561H44.3405V132.829Z" fill="black"/>
<path d="M63.8922 132.829H59.0043V137.561H63.8922V132.829Z" fill="black"/>
<path d="M68.7802 132.829H63.8922V137.561H68.7802V132.829Z" fill="black"/>
<path d="M78.556 132.829H73.6681V137.561H78.556V132.829Z" fill="black"/>
<path d="M83.444 132.829H78.556V137.561H83.444V132.829Z" fill="black"/>
<path d="M112.772 132.829H107.884V137.561H112.772V132.829Z" fill="black"/>
<path d="M117.659 132.829H112.772V137.561H117.659V132.829Z" fill="black"/>
<path d="M127.435 132.829H122.547V137.561H127.435V132.829Z" fill="black"/>
<path d="M15.0129 137.561H10.125V142.293H15.0129V137.561Z" fill="black"/>
<path d="M44.3405 137.561H39.4526V142.293H44.3405V137.561Z" fill="black"/>
<path d="M63.8922 137.561H59.0043V142.293H63.8922V137.561Z" fill="black"/>
<path d="M68.7802 137.561H63.8922V142.293H68.7802V137.561Z" fill="black"/>
<path d="M73.6681 137.561H68.7802V142.293H73.6681V137.561Z" fill="black"/>
<path d="M83.444 137.561H78.556V142.293H83.444V137.561Z" fill="black"/>
<path d="M88.3319 137.561H83.444V142.293H88.3319V137.561Z" fill="black"/>
<path d="M93.2198 137.561H88.3319V142.293H93.2198V137.561Z" fill="black"/>
<path d="M102.996 137.561H98.1078V142.293H102.996V137.561Z" fill="black"/>
<path d="M107.884 137.561H102.996V142.293H107.884V137.561Z" fill="black"/>
<path d="M117.659 137.561H112.772V142.293H117.659V137.561Z" fill="black"/>
<path d="M122.547 137.561H117.659V142.293H122.547V137.561Z" fill="black"/>
<path d="M127.435 137.561H122.547V142.293H127.435V137.561Z" fill="black"/>
<path d="M132.323 137.561H127.435V142.293H132.323V137.561Z" fill="black"/>
<path d="M146.987 137.561H142.099V142.293H146.987V137.561Z" fill="black"/>
<path d="M151.875 137.561H146.987V142.293H151.875V137.561Z" fill="black"/>
<path d="M15.0129 142.293H10.125V147.025H15.0129V142.293Z" fill="black"/>
<path d="M19.9009 142.293H15.0129V147.025H19.9009V142.293Z" fill="black"/>
<path d="M24.7888 142.293H19.9009V147.025H24.7888V142.293Z" fill="black"/>
<path d="M29.6767 142.293H24.7888V147.025H29.6767V142.293Z" fill="black"/>
<path d="M34.5647 142.293H29.6767V147.025H34.5647V142.293Z" fill="black"/>
<path d="M39.4526 142.293H34.5647V147.025H39.4526V142.293Z" fill="black"/>
<path d="M44.3405 142.293H39.4526V147.025H44.3405V142.293Z" fill="black"/>
<path d="M59.0043 142.293H54.1164V147.025H59.0043V142.293Z" fill="black"/>
<path d="M73.6681 142.293H68.7802V147.025H73.6681V142.293Z" fill="black"/>
<path d="M83.444 142.293H78.556V147.025H83.444V142.293Z" fill="black"/>
<path d="M98.1078 142.293H93.2198V147.025H98.1078V142.293Z" fill="black"/>
<path d="M102.996 142.293H98.1078V147.025H102.996V142.293Z" fill="black"/>
<path d="M107.884 142.293H102.996V147.025H107.884V142.293Z" fill="black"/>
<path d="M117.659 142.293H112.772V147.025H117.659V142.293Z" fill="black"/>
<path d="M137.211 142.293H132.323V147.025H137.211V142.293Z" fill="black"/>
<path d="M142.099 142.293H137.211V147.025H142.099V142.293Z" fill="black"/>
</svg>
