<svg width="97" height="31" viewBox="0 0 97 31" fill="none" xmlns="http://www.w3.org/2000/svg">
<path d="M4.04545 0.90909V30H0.522727V0.90909H4.04545ZM19.5178 30.4545C17.4723 30.4545 15.7109 29.9716 14.2337 29.0057C12.7564 28.0398 11.62 26.7093 10.8246 25.0142C10.0291 23.3191 9.63139 21.3826 9.63139 19.2045C9.63139 16.9886 10.0386 15.0331 10.853 13.3381C11.6768 11.6335 12.8227 10.303 14.2905 9.34659C15.7678 8.38068 17.4912 7.89773 19.4609 7.89773C20.995 7.89773 22.3776 8.18182 23.6087 8.75C24.8397 9.31818 25.8482 10.1136 26.6342 11.1364C27.4202 12.1591 27.9079 13.3523 28.0973 14.7159H24.745C24.4893 13.7216 23.9212 12.8409 23.0405 12.0739C22.1693 11.2973 20.995 10.9091 19.5178 10.9091C18.2109 10.9091 17.0651 11.25 16.0803 11.9318C15.1049 12.6042 14.3426 13.5559 13.7933 14.7869C13.2536 16.0085 12.9837 17.4432 12.9837 19.0909C12.9837 20.7765 13.2488 22.2443 13.7791 23.4943C14.3189 24.7443 15.0765 25.715 16.0518 26.4062C17.0367 27.0975 18.192 27.4432 19.5178 27.4432C20.389 27.4432 21.1797 27.2917 21.8899 26.9886C22.6001 26.6856 23.2015 26.25 23.6939 25.6818C24.1863 25.1136 24.5367 24.4318 24.745 23.6364H28.0973C27.9079 24.9242 27.4392 26.0843 26.6911 27.1165C25.9524 28.1392 24.9723 28.9536 23.7507 29.5597C22.5386 30.1562 21.1276 30.4545 19.5178 30.4545ZM41.8615 30.4545C39.8918 30.4545 38.1636 29.9858 36.6768 29.0483C35.1996 28.1108 34.0443 26.7992 33.2109 25.1136C32.3871 23.428 31.9751 21.4583 31.9751 19.2045C31.9751 16.9318 32.3871 14.9479 33.2109 13.2528C34.0443 11.5578 35.1996 10.2415 36.6768 9.30398C38.1636 8.36648 39.8918 7.89773 41.8615 7.89773C43.8312 7.89773 45.5547 8.36648 47.032 9.30398C48.5187 10.2415 49.674 11.5578 50.4979 13.2528C51.3312 14.9479 51.7479 16.9318 51.7479 19.2045C51.7479 21.4583 51.3312 23.428 50.4979 25.1136C49.674 26.7992 48.5187 28.1108 47.032 29.0483C45.5547 29.9858 43.8312 30.4545 41.8615 30.4545ZM41.8615 27.4432C43.3577 27.4432 44.5888 27.0597 45.5547 26.2926C46.5206 25.5256 47.2356 24.517 47.6996 23.267C48.1636 22.017 48.3956 20.6629 48.3956 19.2045C48.3956 17.7462 48.1636 16.3873 47.6996 15.1278C47.2356 13.8684 46.5206 12.8504 45.5547 12.0739C44.5888 11.2973 43.3577 10.9091 41.8615 10.9091C40.3653 10.9091 39.1342 11.2973 38.1683 12.0739C37.2024 12.8504 36.4875 13.8684 36.0234 15.1278C35.5594 16.3873 35.3274 17.7462 35.3274 19.2045C35.3274 20.6629 35.5594 22.017 36.0234 23.267C36.4875 24.517 37.2024 25.5256 38.1683 26.2926C39.1342 27.0597 40.3653 27.4432 41.8615 27.4432ZM60.2173 16.875V30H56.8651V8.18182H60.1037V11.5909H60.3878C60.8991 10.483 61.6757 9.5928 62.7173 8.92045C63.759 8.23864 65.1037 7.89773 66.7514 7.89773C68.2287 7.89773 69.5213 8.20076 70.6293 8.80682C71.7372 9.40341 72.599 10.3125 73.2145 11.5341C73.83 12.7462 74.1378 14.2803 74.1378 16.1364V30H70.7855V16.3636C70.7855 14.6496 70.3404 13.3144 69.4503 12.358C68.5601 11.392 67.3385 10.9091 65.7855 10.9091C64.7154 10.9091 63.759 11.1411 62.9162 11.6051C62.0829 12.0691 61.4247 12.7462 60.9418 13.6364C60.4588 14.5265 60.2173 15.6061 60.2173 16.875ZM95.718 13.0682L92.7067 13.9205C92.5173 13.4186 92.2379 12.9309 91.8686 12.4574C91.5088 11.9744 91.0163 11.5767 90.3913 11.2642C89.7663 10.9517 88.9661 10.7955 87.9908 10.7955C86.6555 10.7955 85.5429 11.1032 84.6527 11.7188C83.772 12.3248 83.3317 13.0966 83.3317 14.0341C83.3317 14.8674 83.6347 15.5256 84.2408 16.0085C84.8468 16.4915 85.7938 16.8939 87.0817 17.2159L90.3203 18.0114C92.2711 18.4848 93.7247 19.2093 94.6811 20.1847C95.6375 21.1506 96.1158 22.3958 96.1158 23.9205C96.1158 25.1705 95.7559 26.2879 95.0362 27.2727C94.326 28.2576 93.3317 29.0341 92.0533 29.6023C90.7749 30.1705 89.2881 30.4545 87.593 30.4545C85.3677 30.4545 83.5258 29.9716 82.0675 29.0057C80.6091 28.0398 79.6858 26.6288 79.2976 24.7727L82.4794 23.9773C82.7824 25.1515 83.3554 26.0322 84.1982 26.6193C85.0504 27.2064 86.1631 27.5 87.5362 27.5C89.0987 27.5 90.3393 27.1686 91.2578 26.5057C92.1858 25.8333 92.6499 25.0284 92.6499 24.0909C92.6499 23.3333 92.3847 22.6989 91.8544 22.1875C91.3241 21.6667 90.5097 21.2784 89.4112 21.0227L85.7749 20.1705C83.7768 19.697 82.3089 18.9631 81.3714 17.9688C80.4434 16.965 79.9794 15.7102 79.9794 14.2045C79.9794 12.9735 80.325 11.8845 81.0163 10.9375C81.7171 9.99053 82.6688 9.24716 83.8714 8.70739C85.0836 8.16761 86.4567 7.89773 87.9908 7.89773C90.1499 7.89773 91.8449 8.37121 93.076 9.31818C94.3165 10.2652 95.1972 11.5152 95.718 13.0682Z" fill="black"/>
</svg>
