<svg width="34" height="40" viewBox="0 0 34 40" fill="none" xmlns="http://www.w3.org/2000/svg">
<path fill-rule="evenodd" clip-rule="evenodd" d="M7.63317 35.1225L2.85962 37.4188C2.67408 37.506 2.45384 37.4956 2.2784 37.3914C2.10297 37.2872 1.99768 37.1042 2.00054 36.9085V4.4366C1.9719 3.11855 3.07955 2.02789 4.47512 2H29.2398C30.6354 2.02789 31.743 3.11855 31.7144 4.4366V36.9085C31.7172 37.1042 31.6119 37.2872 31.4365 37.3914C31.2611 37.4956 31.0408 37.506 30.8553 37.4188L26.0817 35.1225C25.8916 35.0309 25.6637 35.0446 25.4874 35.1582L21.6459 37.6229C21.4469 37.7506 21.1856 37.7506 20.9867 37.6229L17.1884 35.1863C16.9895 35.0586 16.7281 35.0586 16.5292 35.1863L12.7309 37.6229C12.532 37.7506 12.2707 37.7506 12.0717 37.6229L8.2275 35.1684C8.05326 35.0515 7.82523 35.0338 7.63317 35.1225Z" fill="white" stroke="#0B63E5" stroke-width="3" stroke-linecap="round" stroke-linejoin="round"/>
<path fill-rule="evenodd" clip-rule="evenodd" d="M10.1021 24.9626H23.3772H10.1021ZM11.4527 16.0325L14.1542 18.5839L22.2587 10.9297" fill="white"/>
<path d="M10.1021 23.4626C9.27362 23.4626 8.60205 24.1342 8.60205 24.9626C8.60205 25.791 9.27362 26.4626 10.1021 26.4626V23.4626ZM23.3772 26.4626C24.2057 26.4626 24.8772 25.791 24.8772 24.9626C24.8772 24.1342 24.2057 23.4626 23.3772 23.4626V26.4626ZM12.4826 14.942C11.8803 14.3732 10.931 14.4003 10.3622 15.0026C9.79335 15.6048 9.82047 16.5542 10.4227 17.123L12.4826 14.942ZM14.1542 18.5839L13.1243 19.6744C13.7023 20.2204 14.606 20.2204 15.1841 19.6744L14.1542 18.5839ZM23.2886 12.0202C23.8909 11.4514 23.918 10.502 23.3492 9.89972C22.7804 9.29744 21.831 9.27032 21.2288 9.83914L23.2886 12.0202ZM10.1021 26.4626H23.3772V23.4626H10.1021V26.4626ZM10.4227 17.123L13.1243 19.6744L15.1841 17.4934L12.4826 14.942L10.4227 17.123ZM15.1841 19.6744L23.2886 12.0202L21.2288 9.83914L13.1243 17.4934L15.1841 19.6744Z" fill="#0B63E5"/>
</svg>
