<svg width="39" height="36" viewBox="0 0 39 36" fill="none" xmlns="http://www.w3.org/2000/svg">
<path fill-rule="evenodd" clip-rule="evenodd" d="M12.77 2.00002H26.5724C26.7158 2.00002 26.8583 2.00784 26.9999 2.02348C32.6183 2.35876 36.9809 6.33749 36.9999 11.1435V24.8587C36.9793 29.9191 32.1602 34.0094 26.2299 34H12.77C6.83877 34.0094 2.0193 29.9178 2 24.8565V11.1435C2.0193 6.08219 6.83877 1.99057 12.77 2.00002Z" stroke="white" stroke-width="3" stroke-linecap="round" stroke-linejoin="round"/>
<path d="M36.9999 12.6435C37.8283 12.6435 38.4999 11.9719 38.4999 11.1435C38.4999 10.3151 37.8283 9.64352 36.9999 9.64352V12.6435ZM26.9999 11.1435H25.4999C25.4999 11.9719 26.1715 12.6435 26.9999 12.6435V11.1435ZM28.4999 2.02353C28.4999 1.1951 27.8283 0.523529 26.9999 0.523529C26.1715 0.523529 25.4999 1.1951 25.4999 2.02353H28.4999ZM17 26.9668C17.8284 26.9668 18.5 26.2952 18.5 25.4668C18.5 24.6383 17.8284 23.9668 17 23.9668V26.9668ZM9.5 23.9668C8.67157 23.9668 8 24.6383 8 25.4668C8 26.2952 8.67157 26.9668 9.5 26.9668V23.9668ZM27 20.5667C27.8284 20.5667 28.5 19.8951 28.5 19.0667C28.5 18.2382 27.8284 17.5667 27 17.5667V20.5667ZM9.5 17.5667C8.67157 17.5667 8 18.2382 8 19.0667C8 19.8951 8.67157 20.5667 9.5 20.5667V17.5667ZM36.9999 9.64352H26.9999V12.6435H36.9999V9.64352ZM28.4999 11.1435V2.02353H25.4999V11.1435H28.4999ZM17 23.9668H9.5V26.9668H17V23.9668ZM27 17.5667H9.5V20.5667H27V17.5667Z" fill="white"/>
</svg>
