<svg width="109" height="31" viewBox="0 0 109 31" fill="none" xmlns="http://www.w3.org/2000/svg">
<path d="M0.522727 30V0.90909H10.6932C12.7197 0.90909 14.3911 1.25947 15.7074 1.96023C17.0237 2.65151 18.0038 3.58428 18.6477 4.75852C19.2917 5.92329 19.6136 7.21591 19.6136 8.63636C19.6136 9.88636 19.3911 10.9186 18.946 11.733C18.5104 12.5473 17.9328 13.1913 17.2131 13.6648C16.5028 14.1383 15.7311 14.4886 14.8977 14.7159V15C15.7879 15.0568 16.6828 15.3693 17.5824 15.9375C18.482 16.5057 19.2348 17.3201 19.8409 18.3807C20.447 19.4413 20.75 20.7386 20.75 22.2727C20.75 23.7311 20.4186 25.0426 19.7557 26.2074C19.0928 27.3722 18.0464 28.2955 16.6165 28.9773C15.1866 29.6591 13.3258 30 11.0341 30H0.522727ZM4.04545 26.875H11.0341C13.3352 26.875 14.9688 26.4299 15.9347 25.5398C16.91 24.6402 17.3977 23.5511 17.3977 22.2727C17.3977 21.2879 17.1468 20.3788 16.6449 19.5455C16.143 18.7027 15.428 18.0303 14.5 17.5284C13.572 17.017 12.4735 16.7614 11.2045 16.7614H4.04545V26.875ZM4.04545 13.6932H10.5795C11.6402 13.6932 12.5966 13.4848 13.4489 13.0682C14.3106 12.6515 14.9924 12.0644 15.4943 11.3068C16.0057 10.5492 16.2614 9.65909 16.2614 8.63636C16.2614 7.35795 15.8163 6.27367 14.9261 5.38352C14.036 4.4839 12.625 4.03409 10.6932 4.03409H4.04545V13.6932ZM34.9474 30.4545C32.9777 30.4545 31.2495 29.9858 29.7628 29.0483C28.2855 28.1108 27.1302 26.7992 26.2969 25.1136C25.473 23.428 25.0611 21.4583 25.0611 19.2045C25.0611 16.9318 25.473 14.9479 26.2969 13.2528C27.1302 11.5578 28.2855 10.2415 29.7628 9.30398C31.2495 8.36648 32.9777 7.89773 34.9474 7.89773C36.9171 7.89773 38.6406 8.36648 40.1179 9.30398C41.6046 10.2415 42.7599 11.5578 43.5838 13.2528C44.4171 14.9479 44.8338 16.9318 44.8338 19.2045C44.8338 21.4583 44.4171 23.428 43.5838 25.1136C42.7599 26.7992 41.6046 28.1108 40.1179 29.0483C38.6406 29.9858 36.9171 30.4545 34.9474 30.4545ZM34.9474 27.4432C36.4437 27.4432 37.6747 27.0597 38.6406 26.2926C39.6065 25.5256 40.3215 24.517 40.7855 23.267C41.2495 22.017 41.4815 20.6629 41.4815 19.2045C41.4815 17.7462 41.2495 16.3873 40.7855 15.1278C40.3215 13.8684 39.6065 12.8504 38.6406 12.0739C37.6747 11.2973 36.4437 10.9091 34.9474 10.9091C33.4512 10.9091 32.2202 11.2973 31.2543 12.0739C30.2884 12.8504 29.5734 13.8684 29.1094 15.1278C28.6454 16.3873 28.4134 17.7462 28.4134 19.2045C28.4134 20.6629 28.6454 22.017 29.1094 23.267C29.5734 24.517 30.2884 25.5256 31.2543 26.2926C32.2202 27.0597 33.4512 27.4432 34.9474 27.4432ZM51.5526 8.18182L56.7798 17.1023L62.0071 8.18182H65.8707L58.8253 19.0909L65.8707 30H62.0071L56.7798 21.5341L51.5526 30H47.6889L54.6207 19.0909L47.6889 8.18182H51.5526ZM78.9034 30.4545C76.8011 30.4545 74.9877 29.9905 73.4631 29.0625C71.9479 28.125 70.7784 26.8182 69.9545 25.142C69.1402 23.4564 68.733 21.4962 68.733 19.2614C68.733 17.0265 69.1402 15.0568 69.9545 13.3523C70.7784 11.6383 71.9242 10.303 73.392 9.34659C74.8693 8.38068 76.5928 7.89773 78.5625 7.89773C79.6989 7.89773 80.821 8.08712 81.929 8.46591C83.0369 8.8447 84.0455 9.46023 84.9545 10.3125C85.8636 11.1553 86.5881 12.2727 87.1278 13.6648C87.6676 15.0568 87.9375 16.7708 87.9375 18.8068V20.2273H71.1193V17.3295H84.5284C84.5284 16.0985 84.2822 15 83.7898 14.0341C83.3068 13.0682 82.6155 12.3059 81.7159 11.7472C80.8258 11.1884 79.7746 10.9091 78.5625 10.9091C77.2273 10.9091 76.072 11.2405 75.0966 11.9034C74.1307 12.5568 73.3873 13.4091 72.8665 14.4602C72.3456 15.5114 72.0852 16.6383 72.0852 17.8409V19.7727C72.0852 21.4205 72.3693 22.8172 72.9375 23.9631C73.5152 25.0994 74.3153 25.9659 75.3381 26.5625C76.3608 27.1496 77.5492 27.4432 78.9034 27.4432C79.7841 27.4432 80.5795 27.3201 81.2898 27.0739C82.0095 26.8182 82.6297 26.4394 83.1506 25.9375C83.6714 25.4261 84.0739 24.7917 84.358 24.0341L87.5966 24.9432C87.2557 26.0417 86.6828 27.0076 85.8778 27.8409C85.0729 28.6648 84.0786 29.3087 82.8949 29.7727C81.7112 30.2273 80.3807 30.4545 78.9034 30.4545ZM108.491 13.0682L105.48 13.9205C105.291 13.4186 105.011 12.9309 104.642 12.4574C104.282 11.9744 103.79 11.5767 103.165 11.2642C102.54 10.9517 101.74 10.7955 100.764 10.7955C99.429 10.7955 98.3163 11.1032 97.4261 11.7188C96.5455 12.3248 96.1051 13.0966 96.1051 14.0341C96.1051 14.8674 96.4081 15.5256 97.0142 16.0085C97.6203 16.4915 98.5672 16.8939 99.8551 17.2159L103.094 18.0114C105.045 18.4848 106.498 19.2093 107.455 20.1847C108.411 21.1506 108.889 22.3958 108.889 23.9205C108.889 25.1705 108.529 26.2879 107.81 27.2727C107.099 28.2576 106.105 29.0341 104.827 29.6023C103.548 30.1705 102.062 30.4545 100.366 30.4545C98.1411 30.4545 96.2992 29.9716 94.8409 29.0057C93.3826 28.0398 92.4593 26.6288 92.071 24.7727L95.2528 23.9773C95.5559 25.1515 96.1288 26.0322 96.9716 26.6193C97.8239 27.2064 98.9366 27.5 100.31 27.5C101.872 27.5 103.113 27.1686 104.031 26.5057C104.959 25.8333 105.423 25.0284 105.423 24.0909C105.423 23.3333 105.158 22.6989 104.628 22.1875C104.098 21.6667 103.283 21.2784 102.185 21.0227L98.5483 20.1705C96.5502 19.697 95.0824 18.9631 94.1449 17.9688C93.2169 16.965 92.7528 15.7102 92.7528 14.2045C92.7528 12.9735 93.0985 11.8845 93.7898 10.9375C94.4905 9.99053 95.4422 9.24716 96.6449 8.70739C97.857 8.16761 99.2301 7.89773 100.764 7.89773C102.923 7.89773 104.618 8.37121 105.849 9.31818C107.09 10.2652 107.971 11.5152 108.491 13.0682Z" fill="black"/>
</svg>
