<svg width="92" height="38" viewBox="0 0 92 38" fill="none" xmlns="http://www.w3.org/2000/svg">
<rect width="92" height="38" rx="19" fill="#032557"/>
<path d="M25.28 25V13.48H27.456V22.968H32.416V25H25.28ZM37.6643 25.24C36.7949 25.24 36.0323 25.0453 35.3763 24.656C34.7203 24.2667 34.2083 23.7307 33.8403 23.048C33.4776 22.36 33.2963 21.5707 33.2963 20.68C33.2963 19.7787 33.4829 18.9867 33.8563 18.304C34.2296 17.616 34.7443 17.08 35.4003 16.696C36.0563 16.312 36.8109 16.12 37.6643 16.12C38.5336 16.12 39.2963 16.3147 39.9523 16.704C40.6136 17.0933 41.1283 17.632 41.4963 18.32C41.8643 19.0027 42.0483 19.7893 42.0483 20.68C42.0483 21.576 41.8616 22.368 41.4883 23.056C41.1203 23.7387 40.6056 24.2747 39.9443 24.664C39.2883 25.048 38.5283 25.24 37.6643 25.24ZM37.6643 23.208C38.3629 23.208 38.8829 22.9733 39.2243 22.504C39.5709 22.0293 39.7443 21.4213 39.7443 20.68C39.7443 19.912 39.5683 19.2987 39.2163 18.84C38.8696 18.3813 38.3523 18.152 37.6643 18.152C37.1896 18.152 36.8003 18.2587 36.4963 18.472C36.1923 18.6853 35.9656 18.9813 35.8163 19.36C35.6723 19.7387 35.6003 20.1787 35.6003 20.68C35.6003 21.4533 35.7736 22.0693 36.1203 22.528C36.4723 22.9813 36.9869 23.208 37.6643 23.208ZM47.5035 29.08C47.0128 29.08 46.5462 29 46.1035 28.84C45.6608 28.6853 45.2635 28.4667 44.9115 28.184C44.5648 27.9067 44.2822 27.5813 44.0635 27.208L46.0795 26.232C46.2182 26.488 46.4155 26.6827 46.6715 26.816C46.9328 26.9493 47.2155 27.016 47.5195 27.016C47.8448 27.016 48.1515 26.96 48.4395 26.848C48.7275 26.7413 48.9568 26.5787 49.1275 26.36C49.3035 26.1467 49.3862 25.88 49.3755 25.56V23.048H49.6475V16.36H51.5515V25.592C51.5515 25.8053 51.5408 26.0053 51.5195 26.192C51.5035 26.384 51.4715 26.5733 51.4235 26.76C51.2848 27.288 51.0262 27.7227 50.6475 28.064C50.2742 28.4053 49.8155 28.6587 49.2715 28.824C48.7275 28.9947 48.1382 29.08 47.5035 29.08ZM47.3115 25.24C46.5168 25.24 45.8208 25.04 45.2235 24.64C44.6262 24.24 44.1595 23.696 43.8235 23.008C43.4928 22.32 43.3275 21.544 43.3275 20.68C43.3275 19.8 43.4955 19.0187 43.8315 18.336C44.1728 17.648 44.6502 17.1067 45.2635 16.712C45.8768 16.3173 46.5968 16.12 47.4235 16.12C48.2448 16.12 48.9355 16.32 49.4955 16.72C50.0555 17.12 50.4795 17.664 50.7675 18.352C51.0555 19.04 51.1995 19.816 51.1995 20.68C51.1995 21.544 51.0528 22.32 50.7595 23.008C50.4715 23.696 50.0395 24.24 49.4635 24.64C48.8875 25.04 48.1702 25.24 47.3115 25.24ZM47.6635 23.304C48.1488 23.304 48.5355 23.1947 48.8235 22.976C49.1168 22.7573 49.3275 22.4507 49.4555 22.056C49.5835 21.6613 49.6475 21.2027 49.6475 20.68C49.6475 20.1573 49.5835 19.6987 49.4555 19.304C49.3275 18.9093 49.1222 18.6027 48.8395 18.384C48.5622 18.1653 48.1968 18.056 47.7435 18.056C47.2582 18.056 46.8582 18.176 46.5435 18.416C46.2342 18.6507 46.0048 18.968 45.8555 19.368C45.7062 19.7627 45.6315 20.2 45.6315 20.68C45.6315 21.1653 45.7035 21.608 45.8475 22.008C45.9915 22.4027 46.2128 22.7173 46.5115 22.952C46.8102 23.1867 47.1942 23.304 47.6635 23.304ZM53.9519 15.16V13.24H56.1279V15.16H53.9519ZM53.9519 25V16.36H56.1279V25H53.9519ZM64.4143 25V20.92C64.4143 20.7227 64.4036 20.472 64.3823 20.168C64.3609 19.8587 64.2943 19.5493 64.1823 19.24C64.0703 18.9307 63.8863 18.672 63.6303 18.464C63.3796 18.256 63.0223 18.152 62.5583 18.152C62.3716 18.152 62.1716 18.1813 61.9583 18.24C61.7449 18.2987 61.5449 18.4133 61.3583 18.584C61.1716 18.7493 61.0169 18.9947 60.8943 19.32C60.7769 19.6453 60.7183 20.0773 60.7183 20.616L59.4703 20.024C59.4703 19.3413 59.6089 18.7013 59.8863 18.104C60.1636 17.5067 60.5796 17.024 61.1343 16.656C61.6943 16.288 62.3983 16.104 63.2463 16.104C63.9236 16.104 64.4756 16.2187 64.9023 16.448C65.3289 16.6773 65.6596 16.968 65.8943 17.32C66.1343 17.672 66.3049 18.04 66.4062 18.424C66.5076 18.8027 66.5689 19.1493 66.5903 19.464C66.6116 19.7787 66.6223 20.008 66.6223 20.152V25H64.4143ZM58.5103 25V16.36H60.4463V19.224H60.7183V25H58.5103Z" fill="white"/>
</svg>
