<svg width="33" height="33" viewBox="0 0 33 33" fill="none" xmlns="http://www.w3.org/2000/svg">
<path d="M30.689 30.689H10.1968C5.66985 30.689 2 27.0191 2 22.4921V2" stroke="white" stroke-width="3" stroke-linecap="round" stroke-linejoin="round"/>
<path d="M22.7365 6.74823C21.9081 6.74823 21.2365 7.4198 21.2365 8.24823C21.2365 9.07666 21.9081 9.74823 22.7365 9.74823V6.74823ZM30.6895 9.74823C31.518 9.74823 32.1895 9.07666 32.1895 8.24823C32.1895 7.4198 31.518 6.74823 30.6895 6.74823V9.74823ZM32.1892 8.24842C32.1892 7.42 31.5176 6.74842 30.6892 6.74842C29.8608 6.74842 29.1892 7.42 29.1892 8.24842H32.1892ZM29.1892 15.7617C29.1892 16.5901 29.8608 17.2617 30.6892 17.2617C31.5176 17.2617 32.1892 16.5901 32.1892 15.7617H29.1892ZM31.8496 9.19872C32.3744 8.55769 32.2801 7.61263 31.6391 7.08787C30.9981 6.56311 30.053 6.65736 29.5283 7.29838L31.8496 9.19872ZM22.4921 18.2614L23.5087 19.3644C23.5603 19.3169 23.6084 19.2658 23.6528 19.2116L22.4921 18.2614ZM19.2769 18.3885L18.3381 19.5585L18.3492 19.5672L19.2769 18.3885ZM17.1273 16.6638L18.066 15.4938L18.0585 15.4878L17.1273 16.6638ZM13.6805 17.045L12.5181 16.0969C12.5035 16.1147 12.4894 16.133 12.4756 16.1515L13.6805 17.045ZM13.4182 17.3616L14.4976 18.4031C14.5052 18.3953 14.5127 18.3874 14.5201 18.3793L13.4182 17.3616ZM6.79361 22.067C6.21838 22.6631 6.23535 23.6127 6.83151 24.188C7.42766 24.7632 8.37726 24.7462 8.95249 24.1501L6.79361 22.067ZM22.7365 9.74823H30.6895V6.74823H22.7365V9.74823ZM29.1892 8.24842V15.7617H32.1892V8.24842H29.1892ZM29.5283 7.29838L21.3314 17.3113L23.6528 19.2116L31.8496 9.19872L29.5283 7.29838ZM21.4755 17.1585C21.1164 17.4895 20.5849 17.5091 20.2046 17.2098L18.3492 19.5672C19.8894 20.7794 22.0685 20.6919 23.5087 19.3644L21.4755 17.1585ZM20.2156 17.2185L18.066 15.4938L16.1886 17.8338L18.3382 19.5585L20.2156 17.2185ZM18.0585 15.4878C16.3503 14.1352 13.8922 14.4123 12.5181 16.0969L14.8429 17.9931C15.1865 17.5718 15.7812 17.5112 16.1961 17.8397L18.0585 15.4878ZM12.4756 16.1515C12.4259 16.2186 12.3727 16.2828 12.3163 16.3438L14.5201 18.3793C14.6497 18.2391 14.7716 18.0919 14.8854 17.9384L12.4756 16.1515ZM12.3388 16.32L6.79361 22.067L8.95249 24.1501L14.4976 18.4031L12.3388 16.32Z" fill="white"/>
</svg>
