<svg width="32" height="34" viewBox="0 0 32 34" fill="none" xmlns="http://www.w3.org/2000/svg">
<path d="M11.068 19.665L10.9236 19.5886C10.3375 19.2913 9.85329 18.8071 9.55599 18.221L9.47954 18.0766C9.18224 17.499 8.3668 17.499 8.0695 18.0766L7.99305 18.221C7.69576 18.8071 7.21159 19.2913 6.62548 19.5886L6.48108 19.665C5.90348 19.9623 5.90348 20.7778 6.48108 21.0751L6.62548 21.1515C7.21159 21.4488 7.69576 21.933 7.99305 22.5191L8.0695 22.6635C8.3668 23.2411 9.18224 23.2411 9.47954 22.6635L9.55599 22.5191C9.85329 21.933 10.3375 21.4488 10.9236 21.1515L11.068 21.0751C11.6456 20.7778 11.6456 19.9623 11.068 19.665Z" fill="white"/>
<path d="M14.678 15.8341L14.8139 15.5623C15.2471 14.7129 15.9266 14.0334 16.7761 13.6002L17.0479 13.4643C17.9653 12.9971 18.5344 12.0627 18.5344 11.0349C18.5344 10.0071 17.9653 9.07275 17.0479 8.59708L16.7761 8.46117C15.9266 8.02796 15.2471 7.34843 14.8139 6.49901L14.678 6.22719C14.2108 5.30982 13.2765 4.7407 12.2487 4.7407C11.2209 4.7407 10.2865 5.30982 9.81081 6.22719L9.67491 6.49901C9.2417 7.34843 8.56217 8.02796 7.71274 8.46117L7.44093 8.59708C6.52355 9.06426 5.95444 9.99862 5.95444 11.0349C5.95444 12.0712 6.52355 12.9971 7.44093 13.4728L7.71274 13.6087C8.56217 14.0419 9.2417 14.7214 9.67491 15.5708L9.81081 15.8426C10.278 16.76 11.2124 17.3291 12.2487 17.3291C13.2849 17.3291 14.2108 16.76 14.6865 15.8426L14.678 15.8341ZM12.546 14.4071L12.41 14.6789C12.41 14.6789 12.3591 14.7809 12.2487 14.7809C12.1382 14.7809 12.0958 14.7044 12.0873 14.6789L11.9514 14.4071C11.2718 13.0735 10.21 12.0118 8.87645 11.3322L8.60464 11.1963C8.60464 11.1963 8.50271 11.1453 8.50271 11.0349C8.50271 10.9245 8.57915 10.882 8.60464 10.8735L8.87645 10.7376C10.21 10.0581 11.2718 8.9963 11.9514 7.66271L12.0873 7.3909C12.0873 7.3909 12.1382 7.28897 12.2487 7.28897C12.3591 7.28897 12.4015 7.35692 12.41 7.3909L12.546 7.66271C13.2255 8.9963 14.2873 10.0581 15.6209 10.7376L15.8927 10.8735C15.8927 10.8735 15.9946 10.9245 15.9946 11.0349C15.9946 11.1453 15.9182 11.1878 15.8927 11.1963L15.6209 11.3322C14.2873 12.0118 13.2255 13.0735 12.546 14.4071Z" fill="white"/>
<path d="M11.068 25.8913L10.9236 25.8148C10.3375 25.5175 9.85329 25.0334 9.55599 24.4473L9.47954 24.3029C9.18224 23.7253 8.3668 23.7253 8.0695 24.3029L7.99305 24.4473C7.69576 25.0334 7.21159 25.5175 6.62548 25.8148L6.48108 25.8913C5.90348 26.1886 5.90348 27.004 6.48108 27.3013L6.62548 27.3778C7.21159 27.6751 7.69576 28.1592 7.99305 28.7453L8.0695 28.8897C8.3668 29.4674 9.18224 29.4674 9.47954 28.8897L9.55599 28.7453C9.85329 28.1592 10.3375 27.6751 10.9236 27.3778L11.068 27.3013C11.6456 27.004 11.6456 26.1886 11.068 25.8913Z" fill="white"/>
<path d="M23.3591 19.0959H14.0154C13.3104 19.0959 12.7413 19.665 12.7413 20.3701C12.7413 21.0751 13.3104 21.6442 14.0154 21.6442H23.3591C24.0641 21.6442 24.6332 21.0751 24.6332 20.3701C24.6332 19.665 24.0641 19.0959 23.3591 19.0959Z" fill="white"/>
<path d="M23.3591 25.3222H14.0154C13.3104 25.3222 12.7413 25.8913 12.7413 26.5963C12.7413 27.3013 13.3104 27.8704 14.0154 27.8704H23.3591C24.0641 27.8704 24.6332 27.3013 24.6332 26.5963C24.6332 25.8913 24.0641 25.3222 23.3591 25.3222Z" fill="white"/>
<path d="M23.3591 12.8612H20.8108C20.1058 12.8612 19.5367 13.4303 19.5367 14.1353C19.5367 14.8403 20.1058 15.4094 20.8108 15.4094H23.3591C24.0641 15.4094 24.6332 14.8403 24.6332 14.1353C24.6332 13.4303 24.0641 12.8612 23.3591 12.8612Z" fill="white"/>
<path d="M23.3591 6.63491H20.8108C20.1058 6.63491 19.5367 7.20403 19.5367 7.90905C19.5367 8.61406 20.1058 9.18318 20.8108 9.18318H23.3591C24.0641 9.18318 24.6332 8.61406 24.6332 7.90905C24.6332 7.20403 24.0641 6.63491 23.3591 6.63491Z" fill="white"/>
<path d="M21.6602 0.688965H9.76834C4.38301 0.688965 0 5.07198 0 10.4573V24.048C0 29.4334 4.38301 33.8164 9.76834 33.8164H21.6602C27.0456 33.8164 31.4286 29.4334 31.4286 24.048V10.4573C31.4286 5.07198 27.0456 0.688965 21.6602 0.688965ZM28.8803 24.048C28.8803 28.0318 25.644 31.2681 21.6602 31.2681H9.76834C5.78456 31.2681 2.54826 28.0318 2.54826 24.048V10.4573C2.54826 6.47352 5.78456 3.23723 9.76834 3.23723H21.6602C25.644 3.23723 28.8803 6.47352 28.8803 10.4573V24.048Z" fill="white"/>
</svg>
