<svg width="17" height="18" viewBox="0 0 17 18" fill="none" xmlns="http://www.w3.org/2000/svg">
<path d="M17 2.01851C16.3625 2.37736 15.6896 2.60164 14.9812 2.73621C15.6896 2.19794 16.2563 1.34568 16.5042 0.313991C15.8313 0.807405 15.0875 1.16625 14.2729 1.39053C13.6354 0.53827 12.7146 0 11.7229 0C9.81042 0 8.25208 1.97366 8.25208 4.39587C8.25208 4.75472 8.2875 5.06871 8.35833 5.3827C5.48958 5.20328 2.90417 3.4539 1.16875 0.762549C0.885417 1.43539 0.708333 2.15308 0.708333 2.96049C0.708333 4.48558 1.31042 5.83126 2.26667 6.63867C1.7 6.59381 1.16875 6.41439 0.672917 6.10039V6.14525C0.672917 8.29833 1.87708 10.0926 3.47083 10.4963C3.1875 10.586 2.86875 10.6308 2.55 10.6308C2.3375 10.6308 2.08958 10.586 1.87708 10.5411C2.3375 12.2905 3.6125 13.5913 5.13542 13.5913C3.93125 14.7576 2.44375 15.4753 0.814583 15.4753C0.53125 15.4753 0.247917 15.4753 0 15.4304C1.55833 16.6864 3.36458 17.4041 5.34792 17.4041C11.7583 17.4041 15.2646 10.6757 15.2646 4.84443C15.2646 4.66501 15.2646 4.44073 15.2646 4.26131C15.9375 3.67818 16.5396 2.91563 17 2.01851Z" fill="white"/>
</svg>
