<svg width="33" height="36" viewBox="0 0 33 36" fill="none" xmlns="http://www.w3.org/2000/svg">
<path fill-rule="evenodd" clip-rule="evenodd" d="M11.8178 15.4086H5.51556C4.59082 15.4014 3.70092 15.7374 3.04161 16.3426C2.38231 16.9478 2.00763 17.7727 2 18.6358V30.8499C2.01711 32.6463 3.59076 34.09 5.51556 34.075H11.8178C12.7425 34.0822 13.6324 33.7462 14.2917 33.141C14.951 32.5358 15.3257 31.7109 15.3333 30.8478V18.6358C15.3257 17.7727 14.951 16.9478 14.2917 16.3426C13.6324 15.7374 12.7425 15.4014 11.8178 15.4086Z" stroke="white" stroke-width="3" stroke-linecap="round" stroke-linejoin="round"/>
<path fill-rule="evenodd" clip-rule="evenodd" d="M11.8178 2.0764H5.51556C3.62946 2.02933 2.05686 3.36464 2 5.0615V7.08889C2.05686 8.78575 3.62946 10.1211 5.51556 10.074H11.8178C13.7039 10.1211 15.2765 8.78575 15.3333 7.08889V5.0615C15.2765 3.36464 13.7039 2.02933 11.8178 2.0764Z" stroke="white" stroke-width="3" stroke-linecap="round" stroke-linejoin="round"/>
<path fill-rule="evenodd" clip-rule="evenodd" d="M23.4789 18.0751H28.5189C29.259 18.0817 29.9714 17.7939 30.4993 17.2751C31.0271 16.7563 31.3271 16.049 31.3332 15.3089V4.84148C31.3271 4.1017 31.0273 3.39465 30.4999 2.87589C29.9724 2.35712 29.2605 2.06914 28.5207 2.07529H23.4789C22.7392 2.06914 22.0272 2.35712 21.4998 2.87589C20.9724 3.39465 20.6726 4.1017 20.6665 4.84148V15.3089C20.6726 16.0487 20.9724 16.7557 21.4998 17.2745C22.0272 17.7933 22.7392 18.0812 23.4789 18.0751Z" stroke="white" stroke-width="3" stroke-linecap="round" stroke-linejoin="round"/>
<path fill-rule="evenodd" clip-rule="evenodd" d="M23.4789 31.4073H28.5189C30.0285 31.4555 31.2877 30.1198 31.3332 28.4222V26.3948C31.2877 24.698 30.0296 23.3627 28.5207 23.4097H23.4789C21.9701 23.3627 20.712 24.698 20.6665 26.3948V28.4202C20.711 30.1178 21.9694 31.4543 23.4789 31.4073Z" stroke="white" stroke-width="3" stroke-linecap="round" stroke-linejoin="round"/>
</svg>
