<svg width="42" height="34" viewBox="0 0 42 34" fill="none" xmlns="http://www.w3.org/2000/svg">
<path fill-rule="evenodd" clip-rule="evenodd" d="M25.3619 6.81805C25.3599 9.4762 23.5146 11.6294 21.2398 11.6278C18.9651 11.6263 17.1219 9.47056 17.1226 6.81241C17.1232 4.15426 18.9675 1.99982 21.2422 1.99982C22.3353 2.00038 23.3834 2.50833 24.156 3.41192C24.9286 4.31551 25.3624 5.54073 25.3619 6.81805Z" stroke="white" stroke-width="3" stroke-linecap="round" stroke-linejoin="round"/>
<path fill-rule="evenodd" clip-rule="evenodd" d="M25.4942 18.7272H16.9981C14.0299 18.8362 11.6719 21.6795 11.6719 25.1497C11.6719 28.62 14.0299 31.4633 16.9981 31.5723H25.4942C28.4625 31.4633 30.8204 28.62 30.8204 25.1497C30.8204 21.6795 28.4625 18.8362 25.4942 18.7272V18.7272Z" stroke="white" stroke-width="3" stroke-linecap="round" stroke-linejoin="round"/>
<path fill-rule="evenodd" clip-rule="evenodd" d="M35.7815 10.4997C35.7805 12.5329 34.3694 14.1802 32.6295 14.1794C30.8897 14.1786 29.4796 12.53 29.48 10.4969C29.4803 8.46379 30.8909 6.81583 32.6307 6.81583C33.4667 6.81583 34.2684 7.20402 34.8593 7.89495C35.4502 8.58587 35.782 9.52289 35.7815 10.4997V10.4997Z" stroke="white" stroke-width="3" stroke-linecap="round" stroke-linejoin="round"/>
<path fill-rule="evenodd" clip-rule="evenodd" d="M6.21875 10.4998C6.21875 12.5332 7.6294 14.1816 9.36952 14.1816C11.1096 14.1816 12.5203 12.5332 12.5203 10.4998C12.5203 8.46636 11.1096 6.81796 9.36952 6.81796C7.6294 6.81796 6.21875 8.46636 6.21875 10.4998V10.4998Z" stroke="white" stroke-width="3" stroke-linecap="round" stroke-linejoin="round"/>
<path d="M33.5199 18.6424C32.6915 18.6424 32.0199 19.3139 32.0199 20.1424C32.0199 20.9708 32.6915 21.6424 33.5199 21.6424V18.6424ZM35.8826 20.1424L35.9189 18.6428C35.9068 18.6425 35.8947 18.6424 35.8826 18.6424V20.1424ZM35.8826 29.9668V31.4668C35.8947 31.4668 35.9068 31.4667 35.9189 31.4664L35.8826 29.9668ZM33.5199 28.4668C32.6915 28.4668 32.0199 29.1384 32.0199 29.9668C32.0199 30.7952 32.6915 31.4668 33.5199 31.4668V28.4668ZM8.48008 21.6426C9.30851 21.6426 9.98008 20.971 9.98008 20.1426C9.98008 19.3142 9.30851 18.6426 8.48008 18.6426V21.6426ZM6.11746 20.1426V18.6426C6.10535 18.6426 6.09323 18.6427 6.08112 18.643L6.11746 20.1426ZM6.11746 29.967L6.08112 31.4666C6.09323 31.4669 6.10535 31.467 6.11746 31.467V29.967ZM8.48008 31.467C9.30851 31.467 9.98008 30.7955 9.98008 29.967C9.98008 29.1386 9.30851 28.467 8.48008 28.467V31.467ZM33.5199 21.6424H35.8826V18.6424H33.5199V21.6424ZM35.8462 21.6419C37.1168 21.6727 38.5 22.9755 38.5 25.0546H41.5C41.5 21.786 39.2237 18.7229 35.9189 18.6428L35.8462 21.6419ZM38.5 25.0546C38.5 27.1336 37.1168 28.4365 35.8462 28.4673L35.9189 31.4664C39.2237 31.3863 41.5 28.3232 41.5 25.0546H38.5ZM35.8826 28.4668H33.5199V31.4668H35.8826V28.4668ZM8.48008 18.6426H6.11746V21.6426H8.48008V18.6426ZM6.08112 18.643C2.77636 18.7231 0.5 21.7862 0.5 25.0548H3.5C3.5 22.9758 4.88318 21.6729 6.1538 21.6421L6.08112 18.643ZM0.5 25.0548C0.5 28.3234 2.77636 31.3865 6.08112 31.4666L6.1538 28.4675C4.88318 28.4367 3.5 27.1339 3.5 25.0548H0.5ZM6.11746 31.467H8.48008V28.467H6.11746V31.467Z" fill="white"/>
</svg>
