<svg width="32" height="36" viewBox="0 0 32 36" fill="none" xmlns="http://www.w3.org/2000/svg">
<path fill-rule="evenodd" clip-rule="evenodd" d="M21.2845 6.57052C21.2845 4.04629 18.9822 2 16.142 2C13.3019 2 10.9995 4.04629 10.9995 6.57052H21.2845Z" stroke="white" stroke-width="3" stroke-linecap="round" stroke-linejoin="round"/>
<path d="M9.42465 19.1637C8.80548 18.6133 7.85737 18.6691 7.30699 19.2883C6.75661 19.9075 6.81238 20.8556 7.43155 21.4059L9.42465 19.1637ZM13.5706 24.856L12.5741 25.9771C13.1424 26.4823 13.9988 26.4823 14.5672 25.9771L13.5706 24.856ZM24.8522 16.8348C25.4714 16.2844 25.5271 15.3363 24.9768 14.7171C24.4264 14.098 23.4783 14.0422 22.8591 14.5926L24.8522 16.8348ZM21.2844 5.07111C20.456 5.07111 19.7844 5.74268 19.7844 6.57111C19.7844 7.39953 20.456 8.07111 21.2844 8.07111V5.07111ZM25.5707 6.57111V8.07111C25.585 8.07111 25.5993 8.0709 25.6135 8.07049L25.5707 6.57111ZM30.2838 10.4886H31.7838C31.7838 10.4689 31.7834 10.4493 31.7827 10.4296L30.2838 10.4886ZM30.2838 30.0783L31.7827 30.1363C31.7835 30.1169 31.7838 30.0976 31.7838 30.0783H30.2838ZM25.5707 33.998L25.6135 32.4986C25.5993 32.4982 25.585 32.498 25.5707 32.498V33.998ZM6.71311 33.998V32.498C6.69883 32.498 6.68455 32.4982 6.67028 32.4986L6.71311 33.998ZM2 30.0805H0.5C0.5 30.1002 0.500386 30.1198 0.501159 30.1395L2 30.0805ZM2 10.4886L0.501159 10.4296C0.500386 10.4493 0.5 10.4689 0.5 10.4886H2ZM6.71311 6.57111L6.67028 8.07049C6.68455 8.0709 6.69883 8.07111 6.71311 8.07111V6.57111ZM10.9994 8.07111C11.8278 8.07111 12.4994 7.39953 12.4994 6.57111C12.4994 5.74268 11.8278 5.07111 10.9994 5.07111V8.07111ZM7.43155 21.4059L12.5741 25.9771L14.5672 23.7349L9.42465 19.1637L7.43155 21.4059ZM14.5672 25.9771L24.8522 16.8348L22.8591 14.5926L12.5741 23.7349L14.5672 25.9771ZM21.2844 8.07111H25.5707V5.07111H21.2844V8.07111ZM25.6135 8.07049C27.4767 8.01727 28.7355 9.28994 28.785 10.5475L31.7827 10.4296C31.6562 7.21271 28.699 4.98112 25.5279 5.07172L25.6135 8.07049ZM28.7838 10.4886V30.0783H31.7838V10.4886H28.7838ZM28.7849 30.0203C28.7363 31.2782 27.4774 32.5518 25.6135 32.4986L25.5279 35.4974C28.7002 35.588 31.6582 33.3546 31.7827 30.1363L28.7849 30.0203ZM25.5707 32.498H6.71311V35.498H25.5707V32.498ZM6.67028 32.4986C4.80717 32.5519 3.5483 31.2792 3.49884 30.0216L0.501159 30.1395C0.627673 33.3564 3.58479 35.588 6.75595 35.4974L6.67028 32.4986ZM3.5 30.0805V10.4886H0.5V30.0805H3.5ZM3.49884 10.5475C3.5483 9.28994 4.80717 8.01727 6.67028 8.07049L6.75595 5.07172C3.58479 4.98112 0.627673 7.21271 0.501159 10.4296L3.49884 10.5475ZM6.71311 8.07111H10.9994V5.07111H6.71311V8.07111Z" fill="white"/>
</svg>
