<svg xmlns="http://www.w3.org/2000/svg" width="32" height="46" viewBox="0 0 32 46" fill="none">
  <path fill-rule="evenodd" clip-rule="evenodd" d="M6.85968 40.5098L2.31582 43.2142C2.1392 43.3169 1.92956 43.3047 1.76256 43.182C1.59557 43.0592 1.49535 42.8437 1.49808 42.6132V4.36969C1.47081 2.81736 2.52516 1.53285 3.85358 1.5H27.4266C28.7551 1.53285 29.8094 2.81736 29.7821 4.36969V42.6132C29.7849 42.8437 29.6846 43.0592 29.5177 43.182C29.3507 43.3047 29.141 43.3169 28.9644 43.2142L24.4205 40.5098C24.2396 40.4018 24.0226 40.418 23.8548 40.5519L20.1981 43.4546C20.0088 43.605 19.76 43.605 19.5707 43.4546L15.9551 40.5849C15.7658 40.4345 15.517 40.4345 15.3277 40.5849L11.7121 43.4546C11.5228 43.605 11.274 43.605 11.0847 43.4546L7.42541 40.5639C7.25955 40.4261 7.0425 40.4054 6.85968 40.5098Z" fill="white" stroke="#0052D4" stroke-width="3" stroke-linecap="round" stroke-linejoin="round"/>
  <path fill-rule="evenodd" clip-rule="evenodd" d="M9.20996 28.5441H21.8464H9.20996ZM10.4956 18.027L13.0671 21.032L20.7817 12.0172" fill="white"/>
  <path d="M9.20996 27.0441C8.38153 27.0441 7.70996 27.7156 7.70996 28.5441C7.70996 29.3725 8.38153 30.0441 9.20996 30.0441V27.0441ZM21.8464 30.0441C22.6748 30.0441 23.3464 29.3725 23.3464 28.5441C23.3464 27.7156 22.6748 27.0441 21.8464 27.0441V30.0441ZM11.6353 17.0518C11.0966 16.4223 10.1498 16.3487 9.52034 16.8874C8.89092 17.426 8.81733 18.3729 9.35596 19.0023L11.6353 17.0518ZM13.0671 21.032L11.9275 22.0072C12.2125 22.3402 12.6288 22.532 13.0671 22.532C13.5054 22.532 13.9218 22.3402 14.2068 22.0072L13.0671 21.032ZM21.9213 12.9925C22.46 12.3631 22.3864 11.4162 21.757 10.8776C21.1275 10.3389 20.1806 10.4125 19.642 11.0419L21.9213 12.9925ZM9.20996 30.0441H21.8464V27.0441H9.20996V30.0441ZM9.35596 19.0023L11.9275 22.0072L14.2068 20.0567L11.6353 17.0518L9.35596 19.0023ZM14.2068 22.0072L21.9213 12.9925L19.642 11.0419L11.9275 20.0567L14.2068 22.0072Z" fill="#0052D4"/>
</svg>