<svg xmlns="http://www.w3.org/2000/svg" width="39" height="41" viewBox="0 0 39 41" fill="none">
  <path fill-rule="evenodd" clip-rule="evenodd" d="M12.77 1.50002H26.5724C26.7158 1.50002 26.8583 1.50919 26.9999 1.52752C32.6183 1.92042 36.9809 6.58299 36.9999 12.215V28.2875C36.9793 34.2177 32.1602 39.011 26.2299 38.9999H12.77C6.83877 39.011 2.0193 34.2162 2 28.285V12.215C2.0193 6.28381 6.83877 1.48895 12.77 1.50002Z" stroke="white" stroke-width="3" stroke-linecap="round" stroke-linejoin="round"/>
  <path d="M36.9999 13.715C37.8284 13.715 38.4999 13.0434 38.4999 12.215C38.4999 11.3866 37.8284 10.715 36.9999 10.715V13.715ZM27 12.215H25.5C25.5 13.0434 26.1715 13.715 27 13.715V12.215ZM28.5 1.52753C28.5 0.6991 27.8284 0.0275269 27 0.0275269C26.1715 0.0275269 25.5 0.6991 25.5 1.52753H28.5ZM17 30.5C17.8284 30.5 18.5 29.8284 18.5 29C18.5 28.1715 17.8284 27.5 17 27.5V30.5ZM9.5 27.5C8.67157 27.5 8 28.1715 8 29C8 29.8284 8.67157 30.5 9.5 30.5V27.5ZM27 22.9999C27.8284 22.9999 28.5 22.3283 28.5 21.4999C28.5 20.6715 27.8284 19.9999 27 19.9999V22.9999ZM9.5 19.9999C8.67157 19.9999 8 20.6715 8 21.4999C8 22.3283 8.67157 22.9999 9.5 22.9999V19.9999ZM36.9999 10.715H27V13.715H36.9999V10.715ZM28.5 12.215V1.52753H25.5V12.215H28.5ZM17 27.5H9.5V30.5H17V27.5ZM27 19.9999H9.5V22.9999H27V19.9999Z" fill="white"/>
</svg>