<svg xmlns="http://www.w3.org/2000/svg" width="33" height="36" viewBox="0 0 33 36" fill="none">
  <path fill-rule="evenodd" clip-rule="evenodd" d="M11.8178 15.4996H5.51556C4.59082 15.4924 3.70092 15.8284 3.04161 16.4337C2.38231 17.0389 2.00763 17.8638 2 18.7268V30.9409C2.01711 32.7374 3.59076 34.181 5.51556 34.1661H11.8178C12.7425 34.1732 13.6324 33.8373 14.2917 33.232C14.951 32.6268 15.3257 31.8019 15.3333 30.9388V18.7268C15.3257 17.8638 14.951 17.0389 14.2917 16.4337C13.6324 15.8284 12.7425 15.4924 11.8178 15.4996Z" stroke="white" stroke-width="3" stroke-linecap="round" stroke-linejoin="round"/>
  <path fill-rule="evenodd" clip-rule="evenodd" d="M11.8178 2.16747H5.51556C3.62946 2.1204 2.05686 3.45571 2 5.15257V7.17995C2.05686 8.87681 3.62946 10.2121 5.51556 10.1651H11.8178C13.7039 10.2121 15.2765 8.87681 15.3333 7.17995V5.15257C15.2765 3.45571 13.7039 2.1204 11.8178 2.16747Z" stroke="white" stroke-width="3" stroke-linecap="round" stroke-linejoin="round"/>
  <path fill-rule="evenodd" clip-rule="evenodd" d="M23.4789 18.1661H28.5189C29.259 18.1728 29.9714 17.885 30.4993 17.3662C31.0271 16.8474 31.3271 16.14 31.3332 15.4V4.93254C31.3271 4.19277 31.0273 3.48572 30.4999 2.96695C29.9724 2.44819 29.2605 2.1602 28.5207 2.16636H23.4789C22.7392 2.1602 22.0272 2.44819 21.4998 2.96695C20.9724 3.48572 20.6726 4.19277 20.6665 4.93254V15.4C20.6726 16.1397 20.9724 16.8468 21.4998 17.3656C22.0272 17.8843 22.7392 18.1723 23.4789 18.1661Z" stroke="white" stroke-width="3" stroke-linecap="round" stroke-linejoin="round"/>
  <path fill-rule="evenodd" clip-rule="evenodd" d="M23.4789 31.4984H28.5189C30.0285 31.5466 31.2877 30.2109 31.3332 28.5133V26.4859C31.2877 24.7891 30.0296 23.4538 28.5207 23.5008H23.4789C21.9701 23.4538 20.712 24.7891 20.6665 26.4859V28.5113C20.711 30.2089 21.9694 31.5454 23.4789 31.4984Z" stroke="white" stroke-width="3" stroke-linecap="round" stroke-linejoin="round"/>
</svg>