<svg xmlns="http://www.w3.org/2000/svg" width="32" height="34" viewBox="0 0 32 34" fill="none">
  <path d="M11.068 19.0149L10.9236 18.9384C10.3375 18.6411 9.85329 18.157 9.55599 17.5709L9.47954 17.4265C9.18224 16.8489 8.3668 16.8489 8.0695 17.4265L7.99305 17.5709C7.69576 18.157 7.21159 18.6411 6.62548 18.9384L6.48108 19.0149C5.90348 19.3122 5.90348 20.1276 6.48108 20.4249L6.62548 20.5014C7.21159 20.7987 7.69576 21.2828 7.99305 21.8689L8.0695 22.0133C8.3668 22.591 9.18224 22.591 9.47954 22.0133L9.55599 21.8689C9.85329 21.2828 10.3375 20.7987 10.9236 20.5014L11.068 20.4249C11.6456 20.1276 11.6456 19.3122 11.068 19.0149Z" fill="white"/>
  <path d="M14.678 15.184L14.8139 14.9122C15.2471 14.0628 15.9266 13.3832 16.7761 12.95L17.0479 12.8141C17.9653 12.3469 18.5344 11.4126 18.5344 10.3848C18.5344 9.35697 17.9653 8.42261 17.0479 7.94693L16.7761 7.81102C15.9266 7.37782 15.2471 6.69828 14.8139 5.84886L14.678 5.57704C14.2108 4.65967 13.2765 4.09056 12.2487 4.09056C11.2209 4.09056 10.2865 4.65967 9.81081 5.57704L9.67491 5.84886C9.2417 6.69828 8.56217 7.37782 7.71274 7.81102L7.44093 7.94693C6.52355 8.41411 5.95444 9.34847 5.95444 10.3848C5.95444 11.4211 6.52355 12.3469 7.44093 12.8226L7.71274 12.9585C8.56217 13.3917 9.2417 14.0713 9.67491 14.9207L9.81081 15.1925C10.278 16.1099 11.2124 16.679 12.2487 16.679C13.2849 16.679 14.2108 16.1099 14.6865 15.1925L14.678 15.184ZM12.546 13.757L12.41 14.0288C12.41 14.0288 12.3591 14.1307 12.2487 14.1307C12.1382 14.1307 12.0958 14.0543 12.0873 14.0288L11.9514 13.757C11.2718 12.4234 10.21 11.3616 8.87645 10.6821L8.60464 10.5462C8.60464 10.5462 8.50271 10.4952 8.50271 10.3848C8.50271 10.2743 8.57915 10.2319 8.60464 10.2234L8.87645 10.0875C10.21 9.40793 11.2718 8.34616 11.9514 7.01257L12.0873 6.74075C12.0873 6.74075 12.1382 6.63882 12.2487 6.63882C12.3591 6.63882 12.4015 6.70677 12.41 6.74075L12.546 7.01257C13.2255 8.34616 14.2873 9.40793 15.6209 10.0875L15.8927 10.2234C15.8927 10.2234 15.9946 10.2743 15.9946 10.3848C15.9946 10.4952 15.9182 10.5377 15.8927 10.5462L15.6209 10.6821C14.2873 11.3616 13.2255 12.4234 12.546 13.757Z" fill="white"/>
  <path d="M11.068 25.2411L10.9236 25.1647C10.3375 24.8674 9.85329 24.3832 9.55599 23.7971L9.47954 23.6527C9.18224 23.0751 8.3668 23.0751 8.0695 23.6527L7.99305 23.7971C7.69576 24.3832 7.21159 24.8674 6.62548 25.1647L6.48108 25.2411C5.90348 25.5384 5.90348 26.3539 6.48108 26.6512L6.62548 26.7276C7.21159 27.0249 7.69576 27.5091 7.99305 28.0952L8.0695 28.2396C8.3668 28.8172 9.18224 28.8172 9.47954 28.2396L9.55599 28.0952C9.85329 27.5091 10.3375 27.0249 10.9236 26.7276L11.068 26.6512C11.6456 26.3539 11.6456 25.5384 11.068 25.2411Z" fill="white"/>
  <path d="M23.3591 18.4458H14.0154C13.3104 18.4458 12.7413 19.0149 12.7413 19.7199C12.7413 20.4249 13.3104 20.994 14.0154 20.994H23.3591C24.0641 20.994 24.6332 20.4249 24.6332 19.7199C24.6332 19.0149 24.0641 18.4458 23.3591 18.4458Z" fill="white"/>
  <path d="M23.3591 24.672H14.0154C13.3104 24.672 12.7413 25.2411 12.7413 25.9462C12.7413 26.6512 13.3104 27.2203 14.0154 27.2203H23.3591C24.0641 27.2203 24.6332 26.6512 24.6332 25.9462C24.6332 25.2411 24.0641 24.672 23.3591 24.672Z" fill="white"/>
  <path d="M23.3591 12.211H20.8108C20.1058 12.211 19.5367 12.7801 19.5367 13.4852C19.5367 14.1902 20.1058 14.7593 20.8108 14.7593H23.3591C24.0641 14.7593 24.6332 14.1902 24.6332 13.4852C24.6332 12.7801 24.0641 12.211 23.3591 12.211Z" fill="white"/>
  <path d="M23.3591 5.98477H20.8108C20.1058 5.98477 19.5367 6.55388 19.5367 7.2589C19.5367 7.96392 20.1058 8.53303 20.8108 8.53303H23.3591C24.0641 8.53303 24.6332 7.96392 24.6332 7.2589C24.6332 6.55388 24.0641 5.98477 23.3591 5.98477Z" fill="white"/>
  <path d="M21.6602 0.0388184H9.76834C4.38301 0.0388184 0 4.42183 0 9.80716V23.3979C0 28.7832 4.38301 33.1662 9.76834 33.1662H21.6602C27.0456 33.1662 31.4286 28.7832 31.4286 23.3979V9.80716C31.4286 4.42183 27.0456 0.0388184 21.6602 0.0388184ZM28.8803 23.3979C28.8803 27.3817 25.644 30.618 21.6602 30.618H9.76834C5.78456 30.618 2.54826 27.3817 2.54826 23.3979V9.80716C2.54826 5.82338 5.78456 2.58708 9.76834 2.58708H21.6602C25.644 2.58708 28.8803 5.82338 28.8803 9.80716V23.3979Z" fill="white"/>
</svg>