<svg xmlns="http://www.w3.org/2000/svg" width="42" height="34" viewBox="0 0 42 34" fill="none">
<path fill-rule="evenodd" clip-rule="evenodd" d="M25.3619 7.03183C25.3599 9.68998 23.5146 11.8432 21.2398 11.8416C18.9651 11.8401 17.1219 9.68435 17.1226 7.0262C17.1232 4.36804 18.9675 2.2136 21.2422 2.2136C22.3353 2.21416 23.3834 2.72211 24.156 3.6257C24.9286 4.52929 25.3624 5.75451 25.3619 7.03183Z" stroke="white" stroke-width="3" stroke-linecap="round" stroke-linejoin="round"/>
<path fill-rule="evenodd" clip-rule="evenodd" d="M25.4942 18.941H16.9981C14.0299 19.05 11.6719 21.8933 11.6719 25.3635C11.6719 28.8338 14.0299 31.6771 16.9981 31.7861H25.4942C28.4625 31.6771 30.8204 28.8338 30.8204 25.3635C30.8204 21.8933 28.4625 19.05 25.4942 18.941V18.941Z" stroke="white" stroke-width="3" stroke-linecap="round" stroke-linejoin="round"/>
<path fill-rule="evenodd" clip-rule="evenodd" d="M35.7815 10.7135C35.7805 12.7466 34.3694 14.394 32.6295 14.3932C30.8897 14.3924 29.4796 12.7438 29.48 10.7107C29.4803 8.67757 30.8909 7.02961 32.6307 7.02961C33.4667 7.02961 34.2684 7.4178 34.8593 8.10873C35.4502 8.79965 35.782 9.73668 35.7815 10.7135V10.7135Z" stroke="white" stroke-width="3" stroke-linecap="round" stroke-linejoin="round"/>
<path fill-rule="evenodd" clip-rule="evenodd" d="M6.21875 10.7135C6.21875 12.7469 7.6294 14.3953 9.36952 14.3953C11.1096 14.3953 12.5203 12.7469 12.5203 10.7135C12.5203 8.68015 11.1096 7.03175 9.36952 7.03175C7.6294 7.03175 6.21875 8.68015 6.21875 10.7135V10.7135Z" stroke="white" stroke-width="3" stroke-linecap="round" stroke-linejoin="round"/>
<path d="M33.5199 18.8561C32.6915 18.8561 32.0199 19.5277 32.0199 20.3561C32.0199 21.1846 32.6915 21.8561 33.5199 21.8561V18.8561ZM35.8826 20.3561L35.9189 18.8566C35.9068 18.8563 35.8947 18.8561 35.8826 18.8561V20.3561ZM35.8826 30.1806V31.6806C35.8947 31.6806 35.9068 31.6805 35.9189 31.6802L35.8826 30.1806ZM33.5199 28.6806C32.6915 28.6806 32.0199 29.3522 32.0199 30.1806C32.0199 31.009 32.6915 31.6806 33.5199 31.6806V28.6806ZM8.48008 21.8564C9.30851 21.8564 9.98008 21.1848 9.98008 20.3564C9.98008 19.5279 9.30851 18.8564 8.48008 18.8564V21.8564ZM6.11746 20.3564V18.8564C6.10535 18.8564 6.09323 18.8565 6.08112 18.8568L6.11746 20.3564ZM6.11746 30.1808L6.08112 31.6804C6.09323 31.6807 6.10535 31.6808 6.11746 31.6808V30.1808ZM8.48008 31.6808C9.30851 31.6808 9.98008 31.0093 9.98008 30.1808C9.98008 29.3524 9.30851 28.6808 8.48008 28.6808V31.6808ZM33.5199 21.8561H35.8826V18.8561H33.5199V21.8561ZM35.8462 21.8557C37.1168 21.8865 38.5 23.1893 38.5 25.2684H41.5C41.5 21.9998 39.2237 18.9367 35.9189 18.8566L35.8462 21.8557ZM38.5 25.2684C38.5 27.3474 37.1168 28.6503 35.8462 28.681L35.9189 31.6802C39.2237 31.6001 41.5 28.537 41.5 25.2684H38.5ZM35.8826 28.6806H33.5199V31.6806H35.8826V28.6806ZM8.48008 18.8564H6.11746V21.8564H8.48008V18.8564ZM6.08112 18.8568C2.77636 18.9369 0.5 22 0.5 25.2686H3.5C3.5 23.1895 4.88318 21.8867 6.1538 21.8559L6.08112 18.8568ZM0.5 25.2686C0.5 28.5372 2.77636 31.6003 6.08112 31.6804L6.1538 28.6813C4.88318 28.6505 3.5 27.3477 3.5 25.2686H0.5ZM6.11746 31.6808H8.48008V28.6808H6.11746V31.6808Z" fill="white"/>
</svg>