<svg xmlns="http://www.w3.org/2000/svg" width="167" height="28" viewBox="0 0 167 28" fill="none">
  <path fill-rule="evenodd" clip-rule="evenodd" d="M0.124023 2.16162V27.1234H5.10083V16.3922H15.4433V12.5041H5.10083V6.20528H15.4433V2.16162H0.124023ZM31.6179 20.6691H36.9058C36.3614 22.8206 33.9197 26.8901 27.5742 26.8901C19.6425 26.8901 18.3205 19.4249 18.3205 17.6364C18.3205 11.2599 21.5088 7.21619 28.6629 7.21619C35.4283 7.21619 37.2946 13.4372 37.2946 18.6473H23.2195C23.2195 20.8247 25.0547 22.9242 27.4187 22.9242C30.3737 22.9242 31.6179 21.2135 31.6179 20.6691ZM32.24 15.2258C32.2659 13.9038 31.5401 11.3376 27.8075 11.3376C24.0749 11.3376 23.1418 13.9038 23.2195 15.2258H32.24Z" fill="white"/>
  <path fill-rule="evenodd" clip-rule="evenodd" d="M108.214 0.528564H103.082V27.0456H108.214V0.528564ZM94.1392 9.70456H100.049C100.049 6.9051 94.6835 1.77277 88.8513 1.77277C76.8758 1.77277 75.5539 11.8819 75.5539 14.8369C75.5539 24.0129 84.4053 27.3567 87.9959 27.3567C96.5498 27.3567 100.36 20.047 100.516 17.7141C100.608 16.3224 100.563 14.801 100.534 13.827V13.8269V13.8269V13.8268V13.8268V13.8268C100.524 13.4947 100.516 13.2263 100.516 13.0484H87.0628V17.0142H95.5389C95.5389 19.5027 92.9727 22.7687 88.2292 22.7687C82.2415 22.7687 80.764 17.1698 80.764 14.8369C80.764 8.77141 84.5744 6.36076 88.2292 6.36076C92.1173 6.36076 93.4393 8.53812 94.1392 9.70456ZM53.8581 27.0456V7.29392H58.9127V9.70456C60.2346 7.83825 62.5675 6.9051 64.3561 6.9051C70.8259 6.9051 72.7026 11.7782 72.8322 14.2148V27.0456H67.6999V15.5368C67.6999 14.1111 66.8445 11.2598 63.4229 11.2598C60.0014 11.2598 58.9904 14.0074 58.9127 15.3812V27.0456H53.8581ZM40.1719 27.0456V7.29392H45.0709V10.5599C47.2483 7.32502 50.0218 7.03471 51.1364 7.29392V12.504C46.0352 11.6953 44.9672 15.1739 45.0709 17.0142V27.0456H40.1719ZM126.1 10.1711V7.13839H130.999V27.0456H126.1V23.9351C126.031 24.0034 125.963 24.0723 125.894 24.1418L125.894 24.1419L125.894 24.142L125.894 24.1421C124.549 25.4978 123.014 27.0456 118.945 27.0456C113.58 27.0456 110.936 20.5913 110.936 17.7141C110.936 10.1711 115.446 7.37168 119.956 7.37168C122.988 7.37168 124.342 8.60012 125.439 9.59628C125.666 9.80211 125.882 9.99802 126.1 10.1711ZM149.351 13.5927H144.84C144.84 12.9706 143.829 11.1043 141.73 11.1043C139.242 11.1043 138.887 12.4274 138.93 13.2039C139.004 14.5313 141.373 15.1012 143.487 15.6096L143.699 15.6608L143.829 15.6923C148.962 16.9365 149.428 19.1916 149.428 21.7578C149.428 24.3239 146.862 27.0456 142.274 27.0456C136.52 27.0456 133.643 23.4685 133.643 20.5913H138.619C138.619 21.2134 139.242 23.1575 141.885 23.1575C144.296 23.1575 144.84 21.8355 144.84 21.5245C144.84 21.5074 144.841 21.4871 144.842 21.4638V21.4637V21.4636C144.861 21.0612 144.921 19.7667 140.952 18.9583C136.728 18.0977 134.109 16.0811 134.109 13.2039C134.109 10.7155 135.82 7.37168 141.885 7.37168C147.795 7.37168 149.351 11.4931 149.351 13.5927ZM152.072 7.13839H166.536V11.3376L157.827 22.8464H166.536V27.0456H151.917V23.1575L160.704 11.3376H152.072V7.13839ZM120.967 22.7686C123.802 22.7686 126.1 20.2271 126.1 17.092C126.1 13.9568 123.802 11.4153 120.967 11.4153C118.133 11.4153 115.835 13.9568 115.835 17.092C115.835 20.2271 118.133 22.7686 120.967 22.7686Z" fill="white"/>
</svg>