<svg xmlns="http://www.w3.org/2000/svg" width="37" height="39" viewBox="0 0 37 39" fill="none">
  <path fill-rule="evenodd" clip-rule="evenodd" d="M12.3451 15.7889H5.70123C4.72637 15.7807 3.78823 16.1665 3.09319 16.8613C2.39815 17.5562 2.00316 18.5033 1.99512 19.4942V33.5176C2.01315 35.5801 3.6721 37.2376 5.70123 37.2205H12.3451C13.3199 37.2287 14.2581 36.843 14.9531 36.1481C15.6481 35.4532 16.0431 34.5061 16.0512 33.5152V19.4942C16.0431 18.5033 15.6481 17.5562 14.9531 16.8613C14.2581 16.1665 13.3199 15.7807 12.3451 15.7889Z" stroke="white" stroke-width="3" stroke-linecap="round" stroke-linejoin="round"/>
  <path fill-rule="evenodd" clip-rule="evenodd" d="M12.3451 1.50144H5.70123C3.7129 1.44538 2.05506 3.03573 1.99512 5.05669V7.47131C2.05506 9.49226 3.7129 11.0826 5.70123 11.0266H12.3451C14.3334 11.0826 15.9912 9.49226 16.0512 7.47131V5.05669C15.9912 3.03573 14.3334 1.44538 12.3451 1.50144Z" stroke="white" stroke-width="3" stroke-linecap="round" stroke-linejoin="round"/>
  <path fill-rule="evenodd" clip-rule="evenodd" d="M24.4429 22.9331H31.0844C32.0597 22.942 32.9984 22.5565 33.694 21.8616C34.3895 21.1666 34.7848 20.2192 34.7929 19.2278V5.20687C34.7848 4.21595 34.3898 3.26886 33.6948 2.57398C32.9998 1.8791 32.0616 1.49335 31.0868 1.50159H24.4429C23.4681 1.49335 22.5299 1.8791 21.8349 2.57398C21.1399 3.26886 20.7449 4.21595 20.7368 5.20687V19.2278C20.7449 20.2188 21.1399 21.1658 21.8349 21.8607C22.5299 22.5556 23.4681 22.9414 24.4429 22.9331Z" stroke="white" stroke-width="3" stroke-linecap="round" stroke-linejoin="round"/>
  <path fill-rule="evenodd" clip-rule="evenodd" d="M24.4429 37.2207H31.0844C33.0736 37.278 34.7329 35.6873 34.7929 33.6654V31.2508C34.7329 29.2298 33.0751 27.6395 31.0868 27.6955H24.4429C22.4546 27.6395 20.7968 29.2298 20.7368 31.2508V33.663C20.7955 35.6849 22.4537 37.2767 24.4429 37.2207Z" stroke="white" stroke-width="3" stroke-linecap="round" stroke-linejoin="round"/>
</svg>