<svg xmlns="http://www.w3.org/2000/svg" width="56" height="38" viewBox="0 0 56 38" fill="none">
  <path fill-rule="evenodd" clip-rule="evenodd" d="M33.9688 7.1424C33.966 10.2552 31.4408 12.7767 28.328 12.7749C25.2152 12.7731 22.6929 10.2486 22.6938 7.13581C22.6948 4.02297 25.2185 1.5 28.3313 1.5C29.8271 1.50066 31.2614 2.09549 32.3186 3.15365C33.3758 4.2118 33.9694 5.6466 33.9688 7.1424Z" stroke="white" stroke-width="3" stroke-linecap="round" stroke-linejoin="round"/>
  <path fill-rule="evenodd" clip-rule="evenodd" d="M34.1496 21.0886H22.5234C18.4616 21.2162 15.2349 24.5459 15.2349 28.6098C15.2349 32.6736 18.4616 36.0033 22.5234 36.1309H34.1496C38.2115 36.0033 41.4382 32.6736 41.4382 28.6098C41.4382 24.5459 38.2115 21.2162 34.1496 21.0886V21.0886Z" stroke="white" stroke-width="3" stroke-linecap="round" stroke-linejoin="round"/>
  <path fill-rule="evenodd" clip-rule="evenodd" d="M48.2272 11.454C48.2258 13.8349 46.2948 15.764 43.9139 15.7631C41.533 15.7622 39.6035 13.8316 39.604 11.4507C39.6045 9.06981 41.5347 7.13995 43.9156 7.13995C45.0595 7.13995 46.1566 7.59455 46.9652 8.40366C47.7738 9.21277 48.2278 10.3101 48.2272 11.454V11.454Z" stroke="white" stroke-width="3" stroke-linecap="round" stroke-linejoin="round"/>
  <path fill-rule="evenodd" clip-rule="evenodd" d="M7.77295 11.4539C7.77295 13.8351 9.70331 15.7655 12.0845 15.7655C14.4657 15.7655 16.3961 13.8351 16.3961 11.4539C16.3961 9.07269 14.4657 7.14233 12.0845 7.14233C9.70331 7.14233 7.77295 9.07269 7.77295 11.4539V11.4539Z" stroke="white" stroke-width="3" stroke-linecap="round" stroke-linejoin="round"/>
  <path d="M45.1325 21.2458C44.3041 21.2458 43.6325 21.9174 43.6325 22.7458C43.6325 23.5742 44.3041 24.2458 45.1325 24.2458V21.2458ZM48.3656 22.7458L48.3967 21.2461C48.3863 21.2459 48.376 21.2458 48.3656 21.2458V22.7458ZM48.3656 34.2507V35.7507C48.376 35.7507 48.3863 35.7506 48.3967 35.7504L48.3656 34.2507ZM45.1325 32.7507C44.3041 32.7507 43.6325 33.4223 43.6325 34.2507C43.6325 35.0792 44.3041 35.7507 45.1325 35.7507V32.7507ZM10.8675 24.2459C11.6959 24.2459 12.3675 23.5743 12.3675 22.7459C12.3675 21.9174 11.6959 21.2459 10.8675 21.2459V24.2459ZM7.63442 22.7459V21.2459C7.62406 21.2459 7.61369 21.246 7.60332 21.2462L7.63442 22.7459ZM7.63442 34.2508L7.60332 35.7505C7.61369 35.7507 7.62406 35.7508 7.63442 35.7508V34.2508ZM10.8675 35.7508C11.6959 35.7508 12.3675 35.0793 12.3675 34.2508C12.3675 33.4224 11.6959 32.7508 10.8675 32.7508V35.7508ZM45.1325 24.2458H48.3656V21.2458H45.1325V24.2458ZM48.3345 24.2455C50.6489 24.2935 52.5 26.1834 52.5 28.4983H55.5C55.5 24.5508 52.3433 21.328 48.3967 21.2461L48.3345 24.2455ZM52.5 28.4983C52.5 30.8132 50.6489 32.7031 48.3345 32.7511L48.3967 35.7504C52.3433 35.6686 55.5 32.4458 55.5 28.4983H52.5ZM48.3656 32.7507H45.1325V35.7507H48.3656V32.7507ZM10.8675 21.2459H7.63442V24.2459H10.8675V21.2459ZM7.60332 21.2462C3.65667 21.328 0.5 24.5508 0.5 28.4984H3.5C3.5 26.1835 5.35113 24.2935 7.66552 24.2455L7.60332 21.2462ZM0.5 28.4984C0.5 32.4459 3.65667 35.6687 7.60332 35.7505L7.66552 32.7512C5.35113 32.7032 3.5 30.8132 3.5 28.4984H0.5ZM7.63442 35.7508H10.8675V32.7508H7.63442V35.7508Z" fill="white"/>
</svg>