<svg xmlns="http://www.w3.org/2000/svg" width="33" height="33" viewBox="0 0 33 33" fill="none">
  <path d="M30.689 31.0388H10.1968C5.66985 31.0388 2 27.369 2 22.842V2.34985" stroke="white" stroke-width="3" stroke-linecap="round" stroke-linejoin="round"/>
  <path d="M22.7365 7.09814C21.9081 7.09814 21.2365 7.76972 21.2365 8.59814C21.2365 9.42657 21.9081 10.0981 22.7365 10.0981V7.09814ZM30.6895 10.0981C31.518 10.0981 32.1895 9.42657 32.1895 8.59814C32.1895 7.76972 31.518 7.09814 30.6895 7.09814V10.0981ZM32.1892 8.59834C32.1892 7.76991 31.5176 7.09834 30.6892 7.09834C29.8608 7.09834 29.1892 7.76991 29.1892 8.59834H32.1892ZM29.1892 16.1116C29.1892 16.9401 29.8608 17.6116 30.6892 17.6116C31.5176 17.6116 32.1892 16.9401 32.1892 16.1116H29.1892ZM31.8496 9.54863C32.3744 8.90761 32.2801 7.96255 31.6391 7.43778C30.9981 6.91302 30.053 7.00727 29.5283 7.6483L31.8496 9.54863ZM22.4921 18.6113L23.5087 19.7143C23.5603 19.6668 23.6084 19.6157 23.6528 19.5615L22.4921 18.6113ZM19.2769 18.7384L18.3381 19.9084L18.3492 19.9171L19.2769 18.7384ZM17.1273 17.0137L18.066 15.8437L18.0585 15.8377L17.1273 17.0137ZM13.6805 17.3949L12.5181 16.4468C12.5035 16.4647 12.4894 16.4829 12.4756 16.5014L13.6805 17.3949ZM13.4182 17.7115L14.4976 18.753C14.5052 18.7452 14.5127 18.7373 14.5201 18.7293L13.4182 17.7115ZM6.79361 22.4169C6.21838 23.013 6.23535 23.9626 6.83151 24.5379C7.42766 25.1131 8.37726 25.0961 8.95249 24.5L6.79361 22.4169ZM22.7365 10.0981H30.6895V7.09814H22.7365V10.0981ZM29.1892 8.59834V16.1116H32.1892V8.59834H29.1892ZM29.5283 7.6483L21.3314 17.6612L23.6528 19.5615L31.8496 9.54863L29.5283 7.6483ZM21.4755 17.5084C21.1164 17.8394 20.5849 17.859 20.2046 17.5597L18.3492 19.9171C19.8894 21.1293 22.0685 21.0418 23.5087 19.7143L21.4755 17.5084ZM20.2156 17.5684L18.066 15.8437L16.1886 18.1837L18.3382 19.9084L20.2156 17.5684ZM18.0585 15.8377C16.3503 14.4851 13.8922 14.7622 12.5181 16.4468L14.8429 18.343C15.1865 17.9217 15.7812 17.8612 16.1961 18.1897L18.0585 15.8377ZM12.4756 16.5014C12.4259 16.5685 12.3727 16.6327 12.3163 16.6937L14.5201 18.7293C14.6497 18.589 14.7716 18.4418 14.8854 18.2883L12.4756 16.5014ZM12.3388 16.67L6.79361 22.4169L8.95249 24.5L14.4976 18.753L12.3388 16.67Z" fill="white"/>
</svg>
