<svg xmlns="http://www.w3.org/2000/svg" width="33" height="29" viewBox="0 0 33 29" fill="none">
  <path fill-rule="evenodd" clip-rule="evenodd" d="M14.6293 5.77463C14.6293 7.76748 13.0138 9.38301 11.021 9.38301C9.02812 9.38301 7.4126 7.76748 7.4126 5.77463C7.4126 3.78178 9.02812 2.16626 11.021 2.16626C13.0138 2.16626 14.6293 3.78178 14.6293 5.77463Z" stroke="white" stroke-width="3" stroke-linecap="round" stroke-linejoin="round"/>
  <path fill-rule="evenodd" clip-rule="evenodd" d="M20.0419 21.1103C20.0419 24.5978 16.0023 27.425 11.0209 27.425C6.03957 27.425 2 24.5978 2 21.1103C2 17.6228 6.03957 14.7957 11.0209 14.7957C16.0023 14.7957 20.0419 17.6228 20.0419 21.1103Z" stroke="white" stroke-width="3" stroke-linecap="round" stroke-linejoin="round"/>
  <path d="M28.7588 2.16626C28.7588 1.33783 28.0872 0.66626 27.2588 0.66626C26.4303 0.66626 25.7588 1.33783 25.7588 2.16626H28.7588ZM25.7588 5.77463C25.7588 6.60306 26.4303 7.27463 27.2588 7.27463C28.0872 7.27463 28.7588 6.60306 28.7588 5.77463H25.7588ZM28.7588 5.77465C28.7588 4.94622 28.0872 4.27465 27.2588 4.27465C26.4303 4.27465 25.7588 4.94622 25.7588 5.77465H28.7588ZM25.7588 9.38302C25.7588 10.2114 26.4303 10.883 27.2588 10.883C28.0872 10.883 28.7588 10.2114 28.7588 9.38302H25.7588ZM27.2588 7.27464C28.0872 7.27464 28.7588 6.60307 28.7588 5.77464C28.7588 4.94622 28.0872 4.27464 27.2588 4.27464V7.27464ZM23.6504 4.27464C22.822 4.27464 22.1504 4.94622 22.1504 5.77464C22.1504 6.60307 22.822 7.27464 23.6504 7.27464V4.27464ZM27.2588 4.27464C26.4304 4.27464 25.7588 4.94622 25.7588 5.77464C25.7588 6.60307 26.4304 7.27464 27.2588 7.27464V4.27464ZM30.8672 7.27464C31.6956 7.27464 32.3672 6.60307 32.3672 5.77464C32.3672 4.94622 31.6956 4.27464 30.8672 4.27464V7.27464ZM25.7588 2.16626V5.77463H28.7588V2.16626H25.7588ZM25.7588 5.77465V9.38302H28.7588V5.77465H25.7588ZM27.2588 4.27464H23.6504V7.27464H27.2588V4.27464ZM27.2588 7.27464H30.8672V4.27464H27.2588V7.27464Z" fill="white"/>
</svg>