<svg width="22" height="22" viewBox="0 0 22 22" fill="none" xmlns="http://www.w3.org/2000/svg">
<path d="M13.2378 5.18719C13.4286 5.99586 14.1547 6.59828 15.0219 6.59828C16.0342 6.59828 16.8549 5.77758 16.8549 4.76524C16.8549 3.75289 16.0342 2.93219 15.0219 2.93219C14.1367 2.93219 13.3985 3.55953 13.2266 4.39399C11.7442 4.55297 10.5866 5.81024 10.5866 7.33391C10.5866 7.33735 10.5866 7.33992 10.5866 7.34336C8.97443 7.41125 7.50232 7.87016 6.33357 8.59461C5.89959 8.2586 5.35475 8.05836 4.7635 8.05836C3.34467 8.05836 2.19482 9.20821 2.19482 10.627C2.19482 11.6566 2.79982 12.5434 3.67381 12.9534C3.75889 15.9354 7.00818 18.3339 11.0051 18.3339C15.0021 18.3339 18.2557 15.9328 18.3365 12.9482C19.2036 12.5357 19.8034 11.6514 19.8034 10.6279C19.8034 9.20906 18.6536 8.05922 17.2347 8.05922C16.6461 8.05922 16.1038 8.25774 15.6707 8.59118C14.4916 7.86157 13.0032 7.40266 11.3747 7.34164C11.3747 7.33907 11.3747 7.33735 11.3747 7.33477C11.3747 6.24336 12.1859 5.33758 13.2378 5.18891V5.18719ZM6.23045 12.2573C6.27342 11.3257 6.89217 10.6107 7.61146 10.6107C8.33076 10.6107 8.88076 11.3661 8.83779 12.2977C8.79482 13.2292 8.25772 13.5678 7.53756 13.5678C6.8174 13.5678 6.18748 13.1888 6.23045 12.2573ZM14.3997 10.6107C15.1198 10.6107 15.7386 11.3257 15.7807 12.2573C15.8237 13.1888 15.1929 13.5678 14.4736 13.5678C13.7543 13.5678 13.2163 13.2301 13.1733 12.2977C13.1304 11.3661 13.6795 10.6107 14.3997 10.6107ZM13.5437 14.4126C13.6787 14.4263 13.7646 14.5664 13.7122 14.6919C13.2696 15.7498 12.2246 16.4931 11.0051 16.4931C9.78568 16.4931 8.74154 15.7498 8.29811 14.6919C8.24568 14.5664 8.33162 14.4263 8.46654 14.4126C9.25717 14.3327 10.1122 14.2888 11.0051 14.2888C11.898 14.2888 12.7522 14.3327 13.5437 14.4126Z" fill="white"/>
</svg>
