<svg xmlns="http://www.w3.org/2000/svg" width="32" height="36" viewBox="0 0 32 36" fill="none">
  <path fill-rule="evenodd" clip-rule="evenodd" d="M21.1 6.57052C21.1 4.04629 18.7976 2 15.9575 2C13.1173 2 10.8149 4.04629 10.8149 6.57052H21.1Z" stroke="white" stroke-width="3" stroke-linecap="round" stroke-linejoin="round"/>
  <path d="M9.24008 19.1637C8.62091 18.6133 7.6728 18.6691 7.12242 19.2883C6.57204 19.9075 6.62781 20.8556 7.24698 21.4059L9.24008 19.1637ZM13.386 24.856L12.3895 25.9771C12.9578 26.4823 13.8143 26.4823 14.3826 25.9771L13.386 24.856ZM24.6676 16.8348C25.2868 16.2844 25.3426 15.3363 24.7922 14.7171C24.2418 14.098 23.2937 14.0422 22.6745 14.5926L24.6676 16.8348ZM21.0999 5.0711C20.2714 5.0711 19.5999 5.74267 19.5999 6.5711C19.5999 7.39953 20.2714 8.0711 21.0999 8.0711V5.0711ZM25.3861 6.5711V8.0711C25.4004 8.0711 25.4147 8.07089 25.429 8.07049L25.3861 6.5711ZM30.0993 10.4886H31.5993C31.5993 10.4689 31.5989 10.4493 31.5981 10.4296L30.0993 10.4886ZM30.0993 30.0782L31.5981 30.1362C31.5989 30.1169 31.5993 30.0976 31.5993 30.0782H30.0993ZM25.3861 33.998L25.429 32.4986C25.4147 32.4982 25.4004 32.498 25.3861 32.498V33.998ZM6.52854 33.998V32.498C6.51426 32.498 6.49998 32.4982 6.48571 32.4986L6.52854 33.998ZM1.81543 30.0805H0.31543C0.31543 30.1002 0.315816 30.1198 0.316588 30.1395L1.81543 30.0805ZM1.81543 10.4886L0.316588 10.4296C0.315816 10.4493 0.31543 10.4689 0.31543 10.4886H1.81543ZM6.52854 6.5711L6.48571 8.07049C6.49998 8.07089 6.51426 8.0711 6.52854 8.0711V6.5711ZM10.8148 8.0711C11.6433 8.0711 12.3148 7.39953 12.3148 6.5711C12.3148 5.74267 11.6433 5.0711 10.8148 5.0711V8.0711ZM7.24698 21.4059L12.3895 25.9771L14.3826 23.7349L9.24008 19.1637L7.24698 21.4059ZM14.3826 25.9771L24.6676 16.8348L22.6745 14.5926L12.3895 23.7349L14.3826 25.9771ZM21.0999 8.0711H25.3861V5.0711H21.0999V8.0711ZM25.429 8.07049C27.2921 8.01726 28.551 9.28993 28.6004 10.5475L31.5981 10.4296C31.4716 7.21271 28.5145 4.98111 25.3433 5.07171L25.429 8.07049ZM28.5993 10.4886V30.0782H31.5993V10.4886H28.5993ZM28.6004 30.0202C28.5517 31.2782 27.2928 32.5518 25.429 32.4986L25.3433 35.4974C28.5157 35.588 31.4736 33.3546 31.5981 30.1362L28.6004 30.0202ZM25.3861 32.498H6.52854V35.498H25.3861V32.498ZM6.48571 32.4986C4.6226 32.5518 3.36373 31.2792 3.31427 30.0216L0.316588 30.1395C0.443103 33.3564 3.40022 35.588 6.57138 35.4974L6.48571 32.4986ZM3.31543 30.0805V10.4886H0.31543V30.0805H3.31543ZM3.31427 10.5475C3.36373 9.28993 4.6226 8.01726 6.48571 8.07049L6.57138 5.07171C3.40022 4.98111 0.443103 7.21271 0.316588 10.4296L3.31427 10.5475ZM6.52854 8.0711H10.8148V5.0711H6.52854V8.0711Z" fill="white"/>
</svg>