<svg xmlns="http://www.w3.org/2000/svg" width="34" height="40" viewBox="0 0 34 40" fill="none">
  <path fill-rule="evenodd" clip-rule="evenodd" d="M7.4486 35.2632L2.67505 37.5594C2.48951 37.6467 2.26927 37.6363 2.09383 37.5321C1.9184 37.4279 1.81311 37.2449 1.81597 37.0492V4.57726C1.78733 3.2592 2.89498 2.16855 4.29055 2.14066H29.0552C30.4508 2.16855 31.5584 3.2592 31.5298 4.57726V37.0492C31.5327 37.2449 31.4274 37.4279 31.2519 37.5321C31.0765 37.6363 30.8562 37.6467 30.6707 37.5594L25.8972 35.2632C25.707 35.1715 25.4791 35.1852 25.3028 35.2989L21.4613 37.7636C21.2624 37.8913 21.001 37.8913 20.8021 37.7636L17.0038 35.3269C16.8049 35.1992 16.5436 35.1992 16.3446 35.3269L12.5463 37.7636C12.3474 37.8913 12.0861 37.8913 11.8872 37.7636L8.04293 35.3091C7.86869 35.1921 7.64066 35.1745 7.4486 35.2632Z" fill="white" stroke="#0B63E5" stroke-width="3" stroke-linecap="round" stroke-linejoin="round"/>
  <path fill-rule="evenodd" clip-rule="evenodd" d="M9.91748 25.1033H23.1927H9.91748ZM11.2681 16.1732L13.9696 18.7246L22.0741 11.0703" fill="white"/>
  <path d="M9.91748 23.6033C9.08905 23.6033 8.41748 24.2749 8.41748 25.1033C8.41748 25.9317 9.08905 26.6033 9.91748 26.6033V23.6033ZM23.1927 26.6033C24.0211 26.6033 24.6927 25.9317 24.6927 25.1033C24.6927 24.2749 24.0211 23.6033 23.1927 23.6033V26.6033ZM12.298 15.0826C11.6958 14.5138 10.7464 14.541 10.1776 15.1432C9.60878 15.7455 9.6359 16.6949 10.2382 17.2637L12.298 15.0826ZM13.9696 18.7246L12.9397 19.8151C13.5178 20.3611 14.4215 20.3611 14.9996 19.8151L13.9696 18.7246ZM23.1041 12.1608C23.7063 11.592 23.7335 10.6427 23.1646 10.0404C22.5958 9.43812 21.6465 9.41099 21.0442 9.97981L23.1041 12.1608ZM9.91748 26.6033H23.1927V23.6033H9.91748V26.6033ZM10.2382 17.2637L12.9397 19.8151L14.9996 17.6341L12.298 15.0826L10.2382 17.2637ZM14.9996 19.8151L23.1041 12.1608L21.0442 9.97981L12.9397 17.6341L14.9996 19.8151Z" fill="#0B63E5"/>
</svg>