<svg xmlns="http://www.w3.org/2000/svg" width="17" height="16" viewBox="0 0 17 16" fill="none">
  <path d="M17 2.36333C16.3625 2.66274 15.6896 2.84986 14.9812 2.96214C15.6896 2.51304 16.2563 1.80196 16.5042 0.941176C15.8313 1.35285 15.0875 1.65226 14.2729 1.83938C13.6354 1.1283 12.7146 0.679199 11.7229 0.679199C9.81042 0.679199 8.25208 2.32591 8.25208 4.34687C8.25208 4.64627 8.2875 4.90825 8.35833 5.17023C5.48958 5.02053 2.90417 3.56094 1.16875 1.31543C0.885417 1.87681 0.708333 2.47561 0.708333 3.14926C0.708333 4.42172 1.31042 5.54448 2.26667 6.21813C1.7 6.18071 1.16875 6.03101 0.672917 5.76903V5.80646C0.672917 7.60287 1.87708 9.09987 3.47083 9.4367C3.1875 9.51155 2.86875 9.54898 2.55 9.54898C2.3375 9.54898 2.08958 9.51155 1.87708 9.47413C2.3375 10.9337 3.6125 12.019 5.13542 12.019C3.93125 12.9921 2.44375 13.5909 0.814583 13.5909C0.53125 13.5909 0.247917 13.5909 0 13.5535C1.55833 14.6014 3.36458 15.2002 5.34792 15.2002C11.7583 15.2002 15.2646 9.5864 15.2646 4.72112C15.2646 4.57142 15.2646 4.3843 15.2646 4.2346C15.9375 3.74807 16.5396 3.11184 17 2.36333Z" fill="white"/>
</svg>