<svg xmlns="http://www.w3.org/2000/svg" width="84" height="14" viewBox="0 0 84 14" fill="none">
  <path fill-rule="evenodd" clip-rule="evenodd" d="M0.561035 0.815186V13.2744H3.04511V7.91808H8.20732V5.9774H3.04511V2.8335H8.20732V0.815186H0.561035ZM16.2806 10.0528H18.9199C18.6482 11.1267 17.4294 13.1579 14.2623 13.1579C10.3033 13.1579 9.64343 9.43182 9.64343 8.5391C9.64343 5.35638 11.2348 3.33807 14.8056 3.33807C18.1824 3.33807 19.114 6.44316 19.114 9.04368H12.0887C12.0887 10.1305 13.0047 11.1784 14.1846 11.1784C15.6595 11.1784 16.2806 10.3245 16.2806 10.0528ZM16.5912 7.3359C16.6041 6.67607 16.2419 5.39522 14.3788 5.39522C12.5158 5.39522 12.05 6.67607 12.0888 7.3359H16.5912Z" fill="white"/>
  <path fill-rule="evenodd" clip-rule="evenodd" d="M54.5122 0H51.9505V13.2355H54.5122V0ZM47.487 4.58001H50.4368C50.4368 3.18272 47.7587 0.621018 44.8476 0.621018C38.8703 0.621018 38.2105 5.66679 38.2105 7.14171C38.2105 11.7217 42.6285 13.3907 44.4207 13.3907C48.6902 13.3907 50.5921 9.74223 50.6697 8.57782C50.716 7.88321 50.6932 7.12385 50.6787 6.6377V6.63763L50.6787 6.63752L50.6786 6.63657V6.63651V6.63646V6.63641V6.63638C50.6737 6.47117 50.6697 6.33761 50.6697 6.249H43.9549V8.22849H48.1856C48.1856 9.47053 46.9048 11.1007 44.5371 11.1007C41.5485 11.1007 40.811 8.30612 40.811 7.14171C40.811 4.11425 42.7129 2.91102 44.5371 2.91102C46.4778 2.91102 47.1376 3.99781 47.487 4.58001ZM27.3815 13.2355V3.37679H29.9044V4.58001C30.5642 3.64848 31.7286 3.18272 32.6213 3.18272C35.8506 3.18272 36.7873 5.61504 36.852 6.8312V13.2355H34.2903V7.49104C34.2903 6.77945 33.8634 5.35628 32.1556 5.35628C30.4478 5.35628 29.9432 6.7277 29.9044 7.41341V13.2355H27.3815ZM20.5503 13.2355V3.37679H22.9956V5.00696C24.0823 3.39231 25.4667 3.24741 26.023 3.37679V5.9773C23.4768 5.57364 22.9438 7.30991 22.9956 8.22849V13.2355H20.5503ZM63.4394 4.81289V3.29916H65.8846V13.2355H63.4394V11.6829C63.4053 11.717 63.3711 11.7515 63.3366 11.7862C62.6654 12.4629 61.899 13.2355 59.8685 13.2355C57.1904 13.2355 55.8707 10.0139 55.8707 8.57782C55.8707 4.81289 58.1219 3.4156 60.3731 3.4156C61.8863 3.4156 62.562 4.02876 63.1099 4.52597L63.11 4.52606L63.1101 4.52617C63.2232 4.62883 63.3309 4.72654 63.4394 4.81289ZM75.0447 6.52069H72.7935C72.7935 6.21018 72.2889 5.27866 71.2409 5.27866C69.9989 5.27866 69.8221 5.93909 69.8436 6.32663C69.8804 6.98919 71.0628 7.27362 72.1179 7.52742L72.2889 7.56866C74.8506 8.18968 75.0835 9.31528 75.0835 10.5961C75.0835 11.877 73.8026 13.2355 71.5126 13.2355C68.6404 13.2355 67.2043 11.45 67.2043 10.0139H69.6884C69.6884 10.3244 69.9989 11.2948 71.3185 11.2948C72.5218 11.2948 72.7935 10.6349 72.7935 10.4797C72.7935 10.4712 72.7939 10.461 72.7945 10.4493C72.8037 10.2485 72.8335 9.60232 70.8528 9.19884C68.7441 8.76929 67.4372 7.76273 67.4372 6.32663C67.4372 5.08459 68.2911 3.4156 71.3185 3.4156C74.2684 3.4156 75.0447 5.47273 75.0447 6.52069ZM76.4031 3.29916H83.6225V5.3951L79.2753 11.1395H83.6225V13.2355H76.3255V11.2948L80.7114 5.3951H76.4031V3.29916ZM60.8775 11.1008C62.2923 11.1008 63.4392 9.83221 63.4392 8.26737C63.4392 6.70252 62.2923 5.43397 60.8775 5.43397C59.4628 5.43397 58.3158 6.70252 58.3158 8.26737C58.3158 9.83221 59.4628 11.1008 60.8775 11.1008Z" fill="white"/>
</svg>